M48
; DRILL file {KiCad 5.99.0-unknown-c3175b4~86~ubuntu16.04.1} date Sun 02 Aug 2020 06:09:07 PM CEST
; FORMAT={-:-/ absolute / inch / decimal}
; #@! TF.CreationDate,2020-08-02T18:09:07+02:00
; #@! TF.GenerationSoftware,Kicad,Pcbnew,5.99.0-unknown-c3175b4~86~ubuntu16.04.1
; #@! TF.FileFunction,Plated,1,2,PTH
FMAT,2
INCH
T1C0.0157
T2C0.0295
T3C0.0374
T4C0.0394
T5C0.0472
T6C0.0866
%
G90
G05
T1
X3.9457Y-4.6358
X4.129Y-5.32
T2
X3.1642Y-4.4083
X3.1642Y-4.487
X3.1642Y-4.5657
X3.1642Y-4.6445
T3
X3.8727Y-5.5565
X3.9711Y-5.5565
X4.0696Y-5.5565
X4.168Y-5.5565
X3.7056Y-3.2975
X3.8041Y-3.2975
X3.9025Y-3.2975
X4.0009Y-3.2975
X3.2047Y-5.3398
X3.2047Y-5.4382
X3.2047Y-5.5366
X3.2047Y-5.635
X3.2283Y-3.2165
X3.2283Y-3.315
X3.2283Y-3.4134
X3.2283Y-3.5118
X4.465Y-3.2165
X4.465Y-3.315
X4.465Y-3.4134
X4.465Y-3.5118
X4.5244Y-4.5688
X4.5244Y-4.6672
X4.5244Y-4.7657
X4.5244Y-4.8641
T4
X3.0697Y-5.8496
X2.9Y-4.25
X2.9Y-4.35
X2.9Y-4.45
X2.9Y-4.55
X2.9Y-4.65
X2.9Y-4.75
X2.9Y-4.85
X2.9Y-4.95
X2.9Y-3.35
X2.9Y-3.45
X2.9Y-3.55
X2.9Y-3.65
X2.9Y-3.75
X2.9Y-3.85
X2.9Y-3.95
X2.9Y-4.05
X4.5161Y-5.1565
X4.5161Y-5.2565
X4.5161Y-5.3565
X4.5161Y-5.4565
X4.5161Y-5.5565
X4.5161Y-5.6565
X4.8Y-3.175
X4.8Y-3.275
X4.8Y-3.375
X4.8Y-3.475
X4.8Y-3.575
X4.8Y-3.675
X4.8Y-3.775
X4.8Y-3.875
X4.5161Y-3.7764
X4.5161Y-3.8764
X4.5161Y-3.9764
X4.5161Y-4.0764
X4.5161Y-4.1764
X4.5161Y-4.2764
X4.6547Y-6.5496
X3.5807Y-4.5807
X4.6547Y-5.8496
X3.0697Y-6.5596
X2.9Y-5.11
X2.9Y-5.21
X2.9Y-5.31
X2.9Y-5.41
X2.9Y-5.51
X2.9Y-5.61
X2.9Y-5.71
X2.9Y-5.81
X2.9Y-5.91
X2.9Y-6.01
X4.8Y-4.075
X4.8Y-4.175
X4.8Y-4.275
X4.8Y-4.375
X4.8Y-4.475
X4.8Y-4.575
X4.8Y-4.675
X4.8Y-4.775
X3.581Y-4.443
X3.581Y-4.305
X4.8Y-4.975
X4.8Y-5.075
X4.8Y-5.175
X4.8Y-5.275
X4.8Y-5.375
X4.8Y-5.475
X4.8Y-5.575
X4.8Y-5.675
T5
X4.8925Y-6.4035
X4.8925Y-6.5413
X4.8855Y-2.852
X4.8855Y-2.9898
X2.8425Y-6.4035
X2.8425Y-6.5413
T6
X4.2185Y-4.8642
X3.4331Y-4.8661
X3.8268Y-3.685
T0
M30
