G04 #@! TF.GenerationSoftware,KiCad,Pcbnew,5.99.0-unknown-c3175b4~86~ubuntu16.04.1*
G04 #@! TF.CreationDate,2020-08-02T18:07:17+02:00*
G04 #@! TF.ProjectId,nexus_arduino_cytron,6e657875-735f-4617-9264-75696e6f5f63,rev?*
G04 #@! TF.SameCoordinates,Original*
G04 #@! TF.FileFunction,Legend,Top*
G04 #@! TF.FilePolarity,Positive*
%FSLAX46Y46*%
G04 Gerber Fmt 4.6, Leading zero omitted, Abs format (unit mm)*
G04 Created by KiCad (PCBNEW 5.99.0-unknown-c3175b4~86~ubuntu16.04.1) date 2020-08-02 18:07:17*
%MOMM*%
%LPD*%
G04 APERTURE LIST*
%ADD10C,0.120000*%
%ADD11C,0.152400*%
%ADD12C,0.180000*%
%ADD13C,0.100000*%
%ADD14C,0.150000*%
%ADD15C,0.140000*%
%ADD16C,0.101600*%
%ADD17C,0.114300*%
%ADD18C,0.127000*%
%ADD19C,0.177800*%
%ADD20C,0.250000*%
%ADD21C,0.500000*%
%ADD22C,0.480000*%
G04 APERTURE END LIST*
D10*
X120043816Y-71158100D02*
G75*
G03X120043816Y-71158100I-676516J0D01*
G01*
D11*
X119362900Y-71480866D02*
X119362900Y-70803533D01*
X119701566Y-71142200D02*
X119024233Y-71142200D01*
X124845884Y-79799366D02*
X124845884Y-79122033D01*
D10*
X125526800Y-79476600D02*
G75*
G03X125526800Y-79476600I-676516J0D01*
G01*
D12*
X68917857Y-169920238D02*
X68917857Y-168929761D01*
D10*
X69766386Y-169425000D02*
G75*
G03X69766386Y-169425000I-866386J0D01*
G01*
X72995946Y-159270946D02*
G75*
G03X72995946Y-159270946I-845946J0D01*
G01*
D12*
X71654761Y-159263803D02*
X72645238Y-159263803D01*
X72150000Y-159759041D02*
X72150000Y-158768565D01*
D10*
X127007186Y-169713300D02*
G75*
G03X127007186Y-169713300I-866386J0D01*
G01*
X125070946Y-159145946D02*
G75*
G03X125070946Y-159145946I-845946J0D01*
G01*
D12*
X126140357Y-170179938D02*
X126140357Y-169189461D01*
X123729761Y-159138803D02*
X124720238Y-159138803D01*
X124225000Y-159634041D02*
X124225000Y-158643565D01*
D13*
X119012533Y-73022533D02*
X119012533Y-72651104D01*
X119012533Y-72836819D02*
X119712533Y-72836819D01*
X119612533Y-72774914D01*
X119545866Y-72713009D01*
X119512533Y-72651104D01*
X119645866Y-73270152D02*
X119679200Y-73301104D01*
X119712533Y-73363009D01*
X119712533Y-73517771D01*
X119679200Y-73579676D01*
X119645866Y-73610628D01*
X119579200Y-73641580D01*
X119512533Y-73641580D01*
X119412533Y-73610628D01*
X119012533Y-73239200D01*
X119012533Y-73641580D01*
X119712533Y-73827295D02*
X119012533Y-74043961D01*
X119712533Y-74260628D01*
X119712533Y-75096342D02*
X119712533Y-75220152D01*
X119679200Y-75282057D01*
X119612533Y-75343961D01*
X119479200Y-75374914D01*
X119245866Y-75374914D01*
X119112533Y-75343961D01*
X119045866Y-75282057D01*
X119012533Y-75220152D01*
X119012533Y-75096342D01*
X119045866Y-75034438D01*
X119112533Y-74972533D01*
X119245866Y-74941580D01*
X119479200Y-74941580D01*
X119612533Y-74972533D01*
X119679200Y-75034438D01*
X119712533Y-75096342D01*
X119712533Y-75653485D02*
X119145866Y-75653485D01*
X119079200Y-75684438D01*
X119045866Y-75715390D01*
X119012533Y-75777295D01*
X119012533Y-75901104D01*
X119045866Y-75963009D01*
X119079200Y-75993961D01*
X119145866Y-76024914D01*
X119712533Y-76024914D01*
X119712533Y-76241580D02*
X119712533Y-76613009D01*
X119012533Y-76427295D02*
X119712533Y-76427295D01*
X119012533Y-76829676D02*
X119712533Y-76829676D01*
X119712533Y-77077295D01*
X119679200Y-77139200D01*
X119645866Y-77170152D01*
X119579200Y-77201104D01*
X119479200Y-77201104D01*
X119412533Y-77170152D01*
X119379200Y-77139200D01*
X119345866Y-77077295D01*
X119345866Y-76829676D01*
X119712533Y-77479676D02*
X119145866Y-77479676D01*
X119079200Y-77510628D01*
X119045866Y-77541580D01*
X119012533Y-77603485D01*
X119012533Y-77727295D01*
X119045866Y-77789200D01*
X119079200Y-77820152D01*
X119145866Y-77851104D01*
X119712533Y-77851104D01*
X119712533Y-78067771D02*
X119712533Y-78439200D01*
X119012533Y-78253485D02*
X119712533Y-78253485D01*
D14*
X115940366Y-170175180D02*
X115368938Y-170175180D01*
X115654652Y-170175180D02*
X115654652Y-169175180D01*
X115559414Y-169318038D01*
X115464176Y-169413276D01*
X115368938Y-169460895D01*
X116321319Y-169270419D02*
X116368938Y-169222800D01*
X116464176Y-169175180D01*
X116702271Y-169175180D01*
X116797509Y-169222800D01*
X116845128Y-169270419D01*
X116892747Y-169365657D01*
X116892747Y-169460895D01*
X116845128Y-169603752D01*
X116273700Y-170175180D01*
X116892747Y-170175180D01*
X117178461Y-169175180D02*
X117511795Y-170175180D01*
X117845128Y-169175180D01*
X119130842Y-169175180D02*
X119321319Y-169175180D01*
X119416557Y-169222800D01*
X119511795Y-169318038D01*
X119559414Y-169508514D01*
X119559414Y-169841847D01*
X119511795Y-170032323D01*
X119416557Y-170127561D01*
X119321319Y-170175180D01*
X119130842Y-170175180D01*
X119035604Y-170127561D01*
X118940366Y-170032323D01*
X118892747Y-169841847D01*
X118892747Y-169508514D01*
X118940366Y-169318038D01*
X119035604Y-169222800D01*
X119130842Y-169175180D01*
X119987985Y-169175180D02*
X119987985Y-169984704D01*
X120035604Y-170079942D01*
X120083223Y-170127561D01*
X120178461Y-170175180D01*
X120368938Y-170175180D01*
X120464176Y-170127561D01*
X120511795Y-170079942D01*
X120559414Y-169984704D01*
X120559414Y-169175180D01*
X120892747Y-169175180D02*
X121464176Y-169175180D01*
X121178461Y-170175180D02*
X121178461Y-169175180D01*
X121797509Y-170175180D02*
X121797509Y-169175180D01*
X122178461Y-169175180D01*
X122273700Y-169222800D01*
X122321319Y-169270419D01*
X122368938Y-169365657D01*
X122368938Y-169508514D01*
X122321319Y-169603752D01*
X122273700Y-169651371D01*
X122178461Y-169698990D01*
X121797509Y-169698990D01*
X122797509Y-169175180D02*
X122797509Y-169984704D01*
X122845128Y-170079942D01*
X122892747Y-170127561D01*
X122987985Y-170175180D01*
X123178461Y-170175180D01*
X123273700Y-170127561D01*
X123321319Y-170079942D01*
X123368938Y-169984704D01*
X123368938Y-169175180D01*
X123702271Y-169175180D02*
X124273700Y-169175180D01*
X123987985Y-170175180D02*
X123987985Y-169175180D01*
X70667857Y-170177380D02*
X70667857Y-169177380D01*
X71048809Y-169177380D01*
X71144047Y-169225000D01*
X71191666Y-169272619D01*
X71239285Y-169367857D01*
X71239285Y-169510714D01*
X71191666Y-169605952D01*
X71144047Y-169653571D01*
X71048809Y-169701190D01*
X70667857Y-169701190D01*
X71858333Y-169177380D02*
X72048809Y-169177380D01*
X72144047Y-169225000D01*
X72239285Y-169320238D01*
X72286904Y-169510714D01*
X72286904Y-169844047D01*
X72239285Y-170034523D01*
X72144047Y-170129761D01*
X72048809Y-170177380D01*
X71858333Y-170177380D01*
X71763095Y-170129761D01*
X71667857Y-170034523D01*
X71620238Y-169844047D01*
X71620238Y-169510714D01*
X71667857Y-169320238D01*
X71763095Y-169225000D01*
X71858333Y-169177380D01*
X72620238Y-169177380D02*
X72858333Y-170177380D01*
X73048809Y-169463095D01*
X73239285Y-170177380D01*
X73477380Y-169177380D01*
X73858333Y-169653571D02*
X74191666Y-169653571D01*
X74334523Y-170177380D02*
X73858333Y-170177380D01*
X73858333Y-169177380D01*
X74334523Y-169177380D01*
X75334523Y-170177380D02*
X75001190Y-169701190D01*
X74763095Y-170177380D02*
X74763095Y-169177380D01*
X75144047Y-169177380D01*
X75239285Y-169225000D01*
X75286904Y-169272619D01*
X75334523Y-169367857D01*
X75334523Y-169510714D01*
X75286904Y-169605952D01*
X75239285Y-169653571D01*
X75144047Y-169701190D01*
X74763095Y-169701190D01*
X76525000Y-170177380D02*
X76525000Y-169177380D01*
X77001190Y-170177380D02*
X77001190Y-169177380D01*
X77572619Y-170177380D01*
X77572619Y-169177380D01*
X78048809Y-170177380D02*
X78048809Y-169177380D01*
X78429761Y-169177380D01*
X78525000Y-169225000D01*
X78572619Y-169272619D01*
X78620238Y-169367857D01*
X78620238Y-169510714D01*
X78572619Y-169605952D01*
X78525000Y-169653571D01*
X78429761Y-169701190D01*
X78048809Y-169701190D01*
X79048809Y-169177380D02*
X79048809Y-169986904D01*
X79096428Y-170082142D01*
X79144047Y-170129761D01*
X79239285Y-170177380D01*
X79429761Y-170177380D01*
X79525000Y-170129761D01*
X79572619Y-170082142D01*
X79620238Y-169986904D01*
X79620238Y-169177380D01*
X79953571Y-169177380D02*
X80525000Y-169177380D01*
X80239285Y-170177380D02*
X80239285Y-169177380D01*
X75838095Y-144600000D02*
X75742857Y-144552380D01*
X75600000Y-144552380D01*
X75457142Y-144600000D01*
X75361904Y-144695238D01*
X75314285Y-144790476D01*
X75266666Y-144980952D01*
X75266666Y-145123809D01*
X75314285Y-145314285D01*
X75361904Y-145409523D01*
X75457142Y-145504761D01*
X75600000Y-145552380D01*
X75695238Y-145552380D01*
X75838095Y-145504761D01*
X75885714Y-145457142D01*
X75885714Y-145123809D01*
X75695238Y-145123809D01*
X76314285Y-145552380D02*
X76314285Y-144552380D01*
X76885714Y-145552380D01*
X76885714Y-144552380D01*
X77361904Y-145552380D02*
X77361904Y-144552380D01*
X77600000Y-144552380D01*
X77742857Y-144600000D01*
X77838095Y-144695238D01*
X77885714Y-144790476D01*
X77933333Y-144980952D01*
X77933333Y-145123809D01*
X77885714Y-145314285D01*
X77838095Y-145409523D01*
X77742857Y-145504761D01*
X77600000Y-145552380D01*
X77361904Y-145552380D01*
X75554761Y-129730952D02*
X75459523Y-129683333D01*
X75411904Y-129635714D01*
X75364285Y-129540476D01*
X75364285Y-129492857D01*
X75411904Y-129397619D01*
X75459523Y-129350000D01*
X75554761Y-129302380D01*
X75745238Y-129302380D01*
X75840476Y-129350000D01*
X75888095Y-129397619D01*
X75935714Y-129492857D01*
X75935714Y-129540476D01*
X75888095Y-129635714D01*
X75840476Y-129683333D01*
X75745238Y-129730952D01*
X75554761Y-129730952D01*
X75459523Y-129778571D01*
X75411904Y-129826190D01*
X75364285Y-129921428D01*
X75364285Y-130111904D01*
X75411904Y-130207142D01*
X75459523Y-130254761D01*
X75554761Y-130302380D01*
X75745238Y-130302380D01*
X75840476Y-130254761D01*
X75888095Y-130207142D01*
X75935714Y-130111904D01*
X75935714Y-129921428D01*
X75888095Y-129826190D01*
X75840476Y-129778571D01*
X75745238Y-129730952D01*
X75935714Y-140520436D02*
X75364286Y-140520436D01*
X75650000Y-140520436D02*
X75650000Y-139520436D01*
X75554762Y-139663294D01*
X75459524Y-139758532D01*
X75364286Y-139806151D01*
X76316667Y-139615675D02*
X76364286Y-139568056D01*
X76459524Y-139520436D01*
X76697619Y-139520436D01*
X76792857Y-139568056D01*
X76840476Y-139615675D01*
X76888095Y-139710913D01*
X76888095Y-139806151D01*
X76840476Y-139949008D01*
X76269048Y-140520436D01*
X76888095Y-140520436D01*
X75459523Y-132856894D02*
X75650000Y-132856894D01*
X75745238Y-132809275D01*
X75792857Y-132761656D01*
X75888095Y-132618799D01*
X75935714Y-132428323D01*
X75935714Y-132047371D01*
X75888095Y-131952133D01*
X75840476Y-131904514D01*
X75745238Y-131856894D01*
X75554761Y-131856894D01*
X75459523Y-131904514D01*
X75411904Y-131952133D01*
X75364285Y-132047371D01*
X75364285Y-132285466D01*
X75411904Y-132380704D01*
X75459523Y-132428323D01*
X75554761Y-132475942D01*
X75745238Y-132475942D01*
X75840476Y-132428323D01*
X75888095Y-132380704D01*
X75935714Y-132285466D01*
X75935714Y-137965922D02*
X75364286Y-137965922D01*
X75650000Y-137965922D02*
X75650000Y-136965922D01*
X75554762Y-137108780D01*
X75459524Y-137204018D01*
X75364286Y-137251637D01*
X76888095Y-137965922D02*
X76316667Y-137965922D01*
X76602381Y-137965922D02*
X76602381Y-136965922D01*
X76507143Y-137108780D01*
X76411905Y-137204018D01*
X76316667Y-137251637D01*
X75935714Y-135411408D02*
X75364286Y-135411408D01*
X75650000Y-135411408D02*
X75650000Y-134411408D01*
X75554762Y-134554266D01*
X75459524Y-134649504D01*
X75364286Y-134697123D01*
X76554762Y-134411408D02*
X76650000Y-134411408D01*
X76745238Y-134459028D01*
X76792857Y-134506647D01*
X76840476Y-134601885D01*
X76888095Y-134792361D01*
X76888095Y-135030456D01*
X76840476Y-135220932D01*
X76792857Y-135316170D01*
X76745238Y-135363789D01*
X76650000Y-135411408D01*
X76554762Y-135411408D01*
X76459524Y-135363789D01*
X76411905Y-135316170D01*
X76364286Y-135220932D01*
X76316667Y-135030456D01*
X76316667Y-134792361D01*
X76364286Y-134601885D01*
X76411905Y-134506647D01*
X76459524Y-134459028D01*
X76554762Y-134411408D01*
X75935714Y-143074952D02*
X75364286Y-143074952D01*
X75650000Y-143074952D02*
X75650000Y-142074952D01*
X75554762Y-142217810D01*
X75459524Y-142313048D01*
X75364286Y-142360667D01*
X76269048Y-142074952D02*
X76888095Y-142074952D01*
X76554762Y-142455905D01*
X76697619Y-142455905D01*
X76792857Y-142503524D01*
X76840476Y-142551143D01*
X76888095Y-142646381D01*
X76888095Y-142884476D01*
X76840476Y-142979714D01*
X76792857Y-143027333D01*
X76697619Y-143074952D01*
X76411905Y-143074952D01*
X76316667Y-143027333D01*
X76269048Y-142979714D01*
X75416666Y-115056894D02*
X76035714Y-115056894D01*
X75702380Y-115437847D01*
X75845238Y-115437847D01*
X75940476Y-115485466D01*
X75988095Y-115533085D01*
X76035714Y-115628323D01*
X76035714Y-115866418D01*
X75988095Y-115961656D01*
X75940476Y-116009275D01*
X75845238Y-116056894D01*
X75559523Y-116056894D01*
X75464285Y-116009275D01*
X75416666Y-115961656D01*
X75988095Y-120165922D02*
X75511904Y-120165922D01*
X75464285Y-120642113D01*
X75511904Y-120594494D01*
X75607142Y-120546875D01*
X75845238Y-120546875D01*
X75940476Y-120594494D01*
X75988095Y-120642113D01*
X76035714Y-120737351D01*
X76035714Y-120975446D01*
X75988095Y-121070684D01*
X75940476Y-121118303D01*
X75845238Y-121165922D01*
X75607142Y-121165922D01*
X75511904Y-121118303D01*
X75464285Y-121070684D01*
X75464285Y-112597619D02*
X75511904Y-112550000D01*
X75607142Y-112502380D01*
X75845238Y-112502380D01*
X75940476Y-112550000D01*
X75988095Y-112597619D01*
X76035714Y-112692857D01*
X76035714Y-112788095D01*
X75988095Y-112930952D01*
X75416666Y-113502380D01*
X76035714Y-113502380D01*
X75940476Y-122720436D02*
X75750000Y-122720436D01*
X75654761Y-122768056D01*
X75607142Y-122815675D01*
X75511904Y-122958532D01*
X75464285Y-123149008D01*
X75464285Y-123529960D01*
X75511904Y-123625198D01*
X75559523Y-123672817D01*
X75654761Y-123720436D01*
X75845238Y-123720436D01*
X75940476Y-123672817D01*
X75988095Y-123625198D01*
X76035714Y-123529960D01*
X76035714Y-123291865D01*
X75988095Y-123196627D01*
X75940476Y-123149008D01*
X75845238Y-123101389D01*
X75654761Y-123101389D01*
X75559523Y-123149008D01*
X75511904Y-123196627D01*
X75464285Y-123291865D01*
X75940476Y-117944742D02*
X75940476Y-118611408D01*
X75702380Y-117563789D02*
X75464285Y-118278075D01*
X76083333Y-118278075D01*
X75416666Y-125274952D02*
X76083333Y-125274952D01*
X75654761Y-126274952D01*
D15*
X77432095Y-107861904D02*
X77432095Y-107938095D01*
X77394000Y-108014285D01*
X77355904Y-108052380D01*
X77279714Y-108090476D01*
X77127333Y-108128571D01*
X76936857Y-108128571D01*
X76784476Y-108090476D01*
X76708285Y-108052380D01*
X76670190Y-108014285D01*
X76632095Y-107938095D01*
X76632095Y-107861904D01*
X76670190Y-107785714D01*
X76708285Y-107747619D01*
X76784476Y-107709523D01*
X76936857Y-107671428D01*
X77127333Y-107671428D01*
X77279714Y-107709523D01*
X77355904Y-107747619D01*
X77394000Y-107785714D01*
X77432095Y-107861904D01*
X75344095Y-107385714D02*
X75725047Y-107119047D01*
X75344095Y-106928571D02*
X76144095Y-106928571D01*
X76144095Y-107233333D01*
X76106000Y-107309523D01*
X76067904Y-107347619D01*
X75991714Y-107385714D01*
X75877428Y-107385714D01*
X75801238Y-107347619D01*
X75763142Y-107309523D01*
X75725047Y-107233333D01*
X75725047Y-106928571D01*
X76144095Y-107652380D02*
X75344095Y-108185714D01*
X76144095Y-108185714D02*
X75344095Y-107652380D01*
X76144095Y-108642857D02*
X76144095Y-108719047D01*
X76106000Y-108795238D01*
X76067904Y-108833333D01*
X75991714Y-108871428D01*
X75839333Y-108909523D01*
X75648857Y-108909523D01*
X75496476Y-108871428D01*
X75420285Y-108833333D01*
X75382190Y-108795238D01*
X75344095Y-108719047D01*
X75344095Y-108642857D01*
X75382190Y-108566666D01*
X75420285Y-108528571D01*
X75496476Y-108490476D01*
X75648857Y-108452380D01*
X75839333Y-108452380D01*
X75991714Y-108490476D01*
X76067904Y-108528571D01*
X76106000Y-108566666D01*
X76144095Y-108642857D01*
X76632095Y-110678571D02*
X76632095Y-110221428D01*
X76632095Y-110450000D02*
X77432095Y-110450000D01*
X77317809Y-110373809D01*
X77241619Y-110297619D01*
X77203523Y-110221428D01*
X76144095Y-109459523D02*
X76144095Y-109916666D01*
X75344095Y-109688095D02*
X76144095Y-109688095D01*
X76144095Y-110107142D02*
X75344095Y-110640476D01*
X76144095Y-110640476D02*
X75344095Y-110107142D01*
X76144095Y-111097619D02*
X76144095Y-111173809D01*
X76106000Y-111250000D01*
X76067904Y-111288095D01*
X75991714Y-111326190D01*
X75839333Y-111364285D01*
X75648857Y-111364285D01*
X75496476Y-111326190D01*
X75420285Y-111288095D01*
X75382190Y-111250000D01*
X75344095Y-111173809D01*
X75344095Y-111097619D01*
X75382190Y-111021428D01*
X75420285Y-110983333D01*
X75496476Y-110945238D01*
X75648857Y-110907142D01*
X75839333Y-110907142D01*
X75991714Y-110945238D01*
X76067904Y-110983333D01*
X76106000Y-111021428D01*
X76144095Y-111097619D01*
X76632095Y-102697619D02*
X76632095Y-102240476D01*
X76632095Y-102469047D02*
X77432095Y-102469047D01*
X77317809Y-102392857D01*
X77241619Y-102316666D01*
X77203523Y-102240476D01*
X77165428Y-103383333D02*
X76632095Y-103383333D01*
X77470190Y-103192857D02*
X76898761Y-103002380D01*
X76898761Y-103497619D01*
X76144095Y-101859523D02*
X76144095Y-102316666D01*
X75344095Y-102088095D02*
X76144095Y-102088095D01*
X76144095Y-102507142D02*
X75344095Y-103040476D01*
X76144095Y-103040476D02*
X75344095Y-102507142D01*
X76144095Y-103269047D02*
X76144095Y-103764285D01*
X75839333Y-103497619D01*
X75839333Y-103611904D01*
X75801238Y-103688095D01*
X75763142Y-103726190D01*
X75686952Y-103764285D01*
X75496476Y-103764285D01*
X75420285Y-103726190D01*
X75382190Y-103688095D01*
X75344095Y-103611904D01*
X75344095Y-103383333D01*
X75382190Y-103307142D01*
X75420285Y-103269047D01*
X76632095Y-100147619D02*
X76632095Y-99690476D01*
X76632095Y-99919047D02*
X77432095Y-99919047D01*
X77317809Y-99842857D01*
X77241619Y-99766666D01*
X77203523Y-99690476D01*
X77432095Y-100871428D02*
X77432095Y-100490476D01*
X77051142Y-100452380D01*
X77089238Y-100490476D01*
X77127333Y-100566666D01*
X77127333Y-100757142D01*
X77089238Y-100833333D01*
X77051142Y-100871428D01*
X76974952Y-100909523D01*
X76784476Y-100909523D01*
X76708285Y-100871428D01*
X76670190Y-100833333D01*
X76632095Y-100757142D01*
X76632095Y-100566666D01*
X76670190Y-100490476D01*
X76708285Y-100452380D01*
X75344095Y-99785714D02*
X75725047Y-99519047D01*
X75344095Y-99328571D02*
X76144095Y-99328571D01*
X76144095Y-99633333D01*
X76106000Y-99709523D01*
X76067904Y-99747619D01*
X75991714Y-99785714D01*
X75877428Y-99785714D01*
X75801238Y-99747619D01*
X75763142Y-99709523D01*
X75725047Y-99633333D01*
X75725047Y-99328571D01*
X76144095Y-100052380D02*
X75344095Y-100585714D01*
X76144095Y-100585714D02*
X75344095Y-100052380D01*
X76144095Y-100814285D02*
X76144095Y-101309523D01*
X75839333Y-101042857D01*
X75839333Y-101157142D01*
X75801238Y-101233333D01*
X75763142Y-101271428D01*
X75686952Y-101309523D01*
X75496476Y-101309523D01*
X75420285Y-101271428D01*
X75382190Y-101233333D01*
X75344095Y-101157142D01*
X75344095Y-100928571D01*
X75382190Y-100852380D01*
X75420285Y-100814285D01*
X76632095Y-95097619D02*
X76632095Y-94640476D01*
X76632095Y-94869047D02*
X77432095Y-94869047D01*
X77317809Y-94792857D01*
X77241619Y-94716666D01*
X77203523Y-94640476D01*
X77432095Y-95364285D02*
X77432095Y-95897619D01*
X76632095Y-95554761D01*
X75344095Y-94735714D02*
X75725047Y-94469047D01*
X75344095Y-94278571D02*
X76144095Y-94278571D01*
X76144095Y-94583333D01*
X76106000Y-94659523D01*
X76067904Y-94697619D01*
X75991714Y-94735714D01*
X75877428Y-94735714D01*
X75801238Y-94697619D01*
X75763142Y-94659523D01*
X75725047Y-94583333D01*
X75725047Y-94278571D01*
X76144095Y-95002380D02*
X75344095Y-95535714D01*
X76144095Y-95535714D02*
X75344095Y-95002380D01*
X76067904Y-95802380D02*
X76106000Y-95840476D01*
X76144095Y-95916666D01*
X76144095Y-96107142D01*
X76106000Y-96183333D01*
X76067904Y-96221428D01*
X75991714Y-96259523D01*
X75915523Y-96259523D01*
X75801238Y-96221428D01*
X75344095Y-95764285D01*
X75344095Y-96259523D01*
X76632095Y-97647619D02*
X76632095Y-97190476D01*
X76632095Y-97419047D02*
X77432095Y-97419047D01*
X77317809Y-97342857D01*
X77241619Y-97266666D01*
X77203523Y-97190476D01*
X77432095Y-98333333D02*
X77432095Y-98180952D01*
X77394000Y-98104761D01*
X77355904Y-98066666D01*
X77241619Y-97990476D01*
X77089238Y-97952380D01*
X76784476Y-97952380D01*
X76708285Y-97990476D01*
X76670190Y-98028571D01*
X76632095Y-98104761D01*
X76632095Y-98257142D01*
X76670190Y-98333333D01*
X76708285Y-98371428D01*
X76784476Y-98409523D01*
X76974952Y-98409523D01*
X77051142Y-98371428D01*
X77089238Y-98333333D01*
X77127333Y-98257142D01*
X77127333Y-98104761D01*
X77089238Y-98028571D01*
X77051142Y-97990476D01*
X76974952Y-97952380D01*
X76144095Y-96809523D02*
X76144095Y-97266666D01*
X75344095Y-97038095D02*
X76144095Y-97038095D01*
X76144095Y-97457142D02*
X75344095Y-97990476D01*
X76144095Y-97990476D02*
X75344095Y-97457142D01*
X76067904Y-98257142D02*
X76106000Y-98295238D01*
X76144095Y-98371428D01*
X76144095Y-98561904D01*
X76106000Y-98638095D01*
X76067904Y-98676190D01*
X75991714Y-98714285D01*
X75915523Y-98714285D01*
X75801238Y-98676190D01*
X75344095Y-98219047D01*
X75344095Y-98714285D01*
X76582095Y-92547619D02*
X76582095Y-92090476D01*
X76582095Y-92319047D02*
X77382095Y-92319047D01*
X77267809Y-92242857D01*
X77191619Y-92166666D01*
X77153523Y-92090476D01*
X77039238Y-93004761D02*
X77077333Y-92928571D01*
X77115428Y-92890476D01*
X77191619Y-92852380D01*
X77229714Y-92852380D01*
X77305904Y-92890476D01*
X77344000Y-92928571D01*
X77382095Y-93004761D01*
X77382095Y-93157142D01*
X77344000Y-93233333D01*
X77305904Y-93271428D01*
X77229714Y-93309523D01*
X77191619Y-93309523D01*
X77115428Y-93271428D01*
X77077333Y-93233333D01*
X77039238Y-93157142D01*
X77039238Y-93004761D01*
X77001142Y-92928571D01*
X76963047Y-92890476D01*
X76886857Y-92852380D01*
X76734476Y-92852380D01*
X76658285Y-92890476D01*
X76620190Y-92928571D01*
X76582095Y-93004761D01*
X76582095Y-93157142D01*
X76620190Y-93233333D01*
X76658285Y-93271428D01*
X76734476Y-93309523D01*
X76886857Y-93309523D01*
X76963047Y-93271428D01*
X77001142Y-93233333D01*
X77039238Y-93157142D01*
X76094095Y-91709523D02*
X76094095Y-92166666D01*
X75294095Y-91938095D02*
X76094095Y-91938095D01*
X76094095Y-92357142D02*
X75294095Y-92890476D01*
X76094095Y-92890476D02*
X75294095Y-92357142D01*
X75294095Y-93614285D02*
X75294095Y-93157142D01*
X75294095Y-93385714D02*
X76094095Y-93385714D01*
X75979809Y-93309523D01*
X75903619Y-93233333D01*
X75865523Y-93157142D01*
X76582095Y-89997619D02*
X76582095Y-89540476D01*
X76582095Y-89769047D02*
X77382095Y-89769047D01*
X77267809Y-89692857D01*
X77191619Y-89616666D01*
X77153523Y-89540476D01*
X76582095Y-90378571D02*
X76582095Y-90530952D01*
X76620190Y-90607142D01*
X76658285Y-90645238D01*
X76772571Y-90721428D01*
X76924952Y-90759523D01*
X77229714Y-90759523D01*
X77305904Y-90721428D01*
X77344000Y-90683333D01*
X77382095Y-90607142D01*
X77382095Y-90454761D01*
X77344000Y-90378571D01*
X77305904Y-90340476D01*
X77229714Y-90302380D01*
X77039238Y-90302380D01*
X76963047Y-90340476D01*
X76924952Y-90378571D01*
X76886857Y-90454761D01*
X76886857Y-90607142D01*
X76924952Y-90683333D01*
X76963047Y-90721428D01*
X77039238Y-90759523D01*
X75294095Y-89635714D02*
X75675047Y-89369047D01*
X75294095Y-89178571D02*
X76094095Y-89178571D01*
X76094095Y-89483333D01*
X76056000Y-89559523D01*
X76017904Y-89597619D01*
X75941714Y-89635714D01*
X75827428Y-89635714D01*
X75751238Y-89597619D01*
X75713142Y-89559523D01*
X75675047Y-89483333D01*
X75675047Y-89178571D01*
X76094095Y-89902380D02*
X75294095Y-90435714D01*
X76094095Y-90435714D02*
X75294095Y-89902380D01*
X75294095Y-91159523D02*
X75294095Y-90702380D01*
X75294095Y-90930952D02*
X76094095Y-90930952D01*
X75979809Y-90854761D01*
X75903619Y-90778571D01*
X75865523Y-90702380D01*
X77255904Y-84490476D02*
X77294000Y-84528571D01*
X77332095Y-84604761D01*
X77332095Y-84795238D01*
X77294000Y-84871428D01*
X77255904Y-84909523D01*
X77179714Y-84947619D01*
X77103523Y-84947619D01*
X76989238Y-84909523D01*
X76532095Y-84452380D01*
X76532095Y-84947619D01*
X76532095Y-85709523D02*
X76532095Y-85252380D01*
X76532095Y-85480952D02*
X77332095Y-85480952D01*
X77217809Y-85404761D01*
X77141619Y-85328571D01*
X77103523Y-85252380D01*
X75282190Y-84147619D02*
X75244095Y-84261904D01*
X75244095Y-84452380D01*
X75282190Y-84528571D01*
X75320285Y-84566666D01*
X75396476Y-84604761D01*
X75472666Y-84604761D01*
X75548857Y-84566666D01*
X75586952Y-84528571D01*
X75625047Y-84452380D01*
X75663142Y-84300000D01*
X75701238Y-84223809D01*
X75739333Y-84185714D01*
X75815523Y-84147619D01*
X75891714Y-84147619D01*
X75967904Y-84185714D01*
X76006000Y-84223809D01*
X76044095Y-84300000D01*
X76044095Y-84490476D01*
X76006000Y-84604761D01*
X75320285Y-85404761D02*
X75282190Y-85366666D01*
X75244095Y-85252380D01*
X75244095Y-85176190D01*
X75282190Y-85061904D01*
X75358380Y-84985714D01*
X75434571Y-84947619D01*
X75586952Y-84909523D01*
X75701238Y-84909523D01*
X75853619Y-84947619D01*
X75929809Y-84985714D01*
X76006000Y-85061904D01*
X76044095Y-85176190D01*
X76044095Y-85252380D01*
X76006000Y-85366666D01*
X75967904Y-85404761D01*
X75244095Y-86128571D02*
X75244095Y-85747619D01*
X76044095Y-85747619D01*
X77305904Y-86990476D02*
X77344000Y-87028571D01*
X77382095Y-87104761D01*
X77382095Y-87295238D01*
X77344000Y-87371428D01*
X77305904Y-87409523D01*
X77229714Y-87447619D01*
X77153523Y-87447619D01*
X77039238Y-87409523D01*
X76582095Y-86952380D01*
X76582095Y-87447619D01*
X77382095Y-87942857D02*
X77382095Y-88019047D01*
X77344000Y-88095238D01*
X77305904Y-88133333D01*
X77229714Y-88171428D01*
X77077333Y-88209523D01*
X76886857Y-88209523D01*
X76734476Y-88171428D01*
X76658285Y-88133333D01*
X76620190Y-88095238D01*
X76582095Y-88019047D01*
X76582095Y-87942857D01*
X76620190Y-87866666D01*
X76658285Y-87828571D01*
X76734476Y-87790476D01*
X76886857Y-87752380D01*
X77077333Y-87752380D01*
X77229714Y-87790476D01*
X77305904Y-87828571D01*
X77344000Y-87866666D01*
X77382095Y-87942857D01*
X75332190Y-86628571D02*
X75294095Y-86742857D01*
X75294095Y-86933333D01*
X75332190Y-87009523D01*
X75370285Y-87047619D01*
X75446476Y-87085714D01*
X75522666Y-87085714D01*
X75598857Y-87047619D01*
X75636952Y-87009523D01*
X75675047Y-86933333D01*
X75713142Y-86780952D01*
X75751238Y-86704761D01*
X75789333Y-86666666D01*
X75865523Y-86628571D01*
X75941714Y-86628571D01*
X76017904Y-86666666D01*
X76056000Y-86704761D01*
X76094095Y-86780952D01*
X76094095Y-86971428D01*
X76056000Y-87085714D01*
X75294095Y-87428571D02*
X76094095Y-87428571D01*
X76094095Y-87619047D01*
X76056000Y-87733333D01*
X75979809Y-87809523D01*
X75903619Y-87847619D01*
X75751238Y-87885714D01*
X75636952Y-87885714D01*
X75484571Y-87847619D01*
X75408380Y-87809523D01*
X75332190Y-87733333D01*
X75294095Y-87619047D01*
X75294095Y-87428571D01*
X75522666Y-88190476D02*
X75522666Y-88571428D01*
X75294095Y-88114285D02*
X76094095Y-88380952D01*
X75294095Y-88647619D01*
D14*
X116735714Y-142007142D02*
X116735714Y-141107142D01*
X117335714Y-141107142D02*
X117507142Y-141107142D01*
X117592857Y-141150000D01*
X117678571Y-141235714D01*
X117721428Y-141407142D01*
X117721428Y-141707142D01*
X117678571Y-141878571D01*
X117592857Y-141964285D01*
X117507142Y-142007142D01*
X117335714Y-142007142D01*
X117250000Y-141964285D01*
X117164285Y-141878571D01*
X117121428Y-141707142D01*
X117121428Y-141407142D01*
X117164285Y-141235714D01*
X117250000Y-141150000D01*
X117335714Y-141107142D01*
X118621428Y-142007142D02*
X118321428Y-141578571D01*
X118107142Y-142007142D02*
X118107142Y-141107142D01*
X118450000Y-141107142D01*
X118535714Y-141150000D01*
X118578571Y-141192857D01*
X118621428Y-141278571D01*
X118621428Y-141407142D01*
X118578571Y-141492857D01*
X118535714Y-141535714D01*
X118450000Y-141578571D01*
X118107142Y-141578571D01*
X119007142Y-141535714D02*
X119307142Y-141535714D01*
X119435714Y-142007142D02*
X119007142Y-142007142D01*
X119007142Y-141107142D01*
X119435714Y-141107142D01*
X120121428Y-141535714D02*
X119821428Y-141535714D01*
X119821428Y-142007142D02*
X119821428Y-141107142D01*
X120250000Y-141107142D01*
X96102380Y-145302380D02*
X96102380Y-144302380D01*
X96435714Y-145016666D01*
X96769047Y-144302380D01*
X96769047Y-145302380D01*
X97388095Y-145302380D02*
X97292857Y-145254761D01*
X97245238Y-145207142D01*
X97197619Y-145111904D01*
X97197619Y-144826190D01*
X97245238Y-144730952D01*
X97292857Y-144683333D01*
X97388095Y-144635714D01*
X97530952Y-144635714D01*
X97626190Y-144683333D01*
X97673809Y-144730952D01*
X97721428Y-144826190D01*
X97721428Y-145111904D01*
X97673809Y-145207142D01*
X97626190Y-145254761D01*
X97530952Y-145302380D01*
X97388095Y-145302380D01*
X98007142Y-144635714D02*
X98388095Y-144635714D01*
X98150000Y-144302380D02*
X98150000Y-145159523D01*
X98197619Y-145254761D01*
X98292857Y-145302380D01*
X98388095Y-145302380D01*
X98864285Y-145302380D02*
X98769047Y-145254761D01*
X98721428Y-145207142D01*
X98673809Y-145111904D01*
X98673809Y-144826190D01*
X98721428Y-144730952D01*
X98769047Y-144683333D01*
X98864285Y-144635714D01*
X99007142Y-144635714D01*
X99102380Y-144683333D01*
X99150000Y-144730952D01*
X99197619Y-144826190D01*
X99197619Y-145111904D01*
X99150000Y-145207142D01*
X99102380Y-145254761D01*
X99007142Y-145302380D01*
X98864285Y-145302380D01*
X99626190Y-145302380D02*
X99626190Y-144635714D01*
X99626190Y-144826190D02*
X99673809Y-144730952D01*
X99721428Y-144683333D01*
X99816666Y-144635714D01*
X99911904Y-144635714D01*
X100959523Y-144397619D02*
X101007142Y-144350000D01*
X101102380Y-144302380D01*
X101340476Y-144302380D01*
X101435714Y-144350000D01*
X101483333Y-144397619D01*
X101530952Y-144492857D01*
X101530952Y-144588095D01*
X101483333Y-144730952D01*
X100911904Y-145302380D01*
X101530952Y-145302380D01*
X102721428Y-144778571D02*
X103054761Y-144778571D01*
X103197619Y-145302380D02*
X102721428Y-145302380D01*
X102721428Y-144302380D01*
X103197619Y-144302380D01*
X103626190Y-144635714D02*
X103626190Y-145302380D01*
X103626190Y-144730952D02*
X103673809Y-144683333D01*
X103769047Y-144635714D01*
X103911904Y-144635714D01*
X104007142Y-144683333D01*
X104054761Y-144778571D01*
X104054761Y-145302380D01*
X104959523Y-145254761D02*
X104864285Y-145302380D01*
X104673809Y-145302380D01*
X104578571Y-145254761D01*
X104530952Y-145207142D01*
X104483333Y-145111904D01*
X104483333Y-144826190D01*
X104530952Y-144730952D01*
X104578571Y-144683333D01*
X104673809Y-144635714D01*
X104864285Y-144635714D01*
X104959523Y-144683333D01*
X105530952Y-145302380D02*
X105435714Y-145254761D01*
X105388095Y-145207142D01*
X105340476Y-145111904D01*
X105340476Y-144826190D01*
X105388095Y-144730952D01*
X105435714Y-144683333D01*
X105530952Y-144635714D01*
X105673809Y-144635714D01*
X105769047Y-144683333D01*
X105816666Y-144730952D01*
X105864285Y-144826190D01*
X105864285Y-145111904D01*
X105816666Y-145207142D01*
X105769047Y-145254761D01*
X105673809Y-145302380D01*
X105530952Y-145302380D01*
X106721428Y-145302380D02*
X106721428Y-144302380D01*
X106721428Y-145254761D02*
X106626190Y-145302380D01*
X106435714Y-145302380D01*
X106340476Y-145254761D01*
X106292857Y-145207142D01*
X106245238Y-145111904D01*
X106245238Y-144826190D01*
X106292857Y-144730952D01*
X106340476Y-144683333D01*
X106435714Y-144635714D01*
X106626190Y-144635714D01*
X106721428Y-144683333D01*
X107578571Y-145254761D02*
X107483333Y-145302380D01*
X107292857Y-145302380D01*
X107197619Y-145254761D01*
X107150000Y-145159523D01*
X107150000Y-144778571D01*
X107197619Y-144683333D01*
X107292857Y-144635714D01*
X107483333Y-144635714D01*
X107578571Y-144683333D01*
X107626190Y-144778571D01*
X107626190Y-144873809D01*
X107150000Y-144969047D01*
X108054761Y-145302380D02*
X108054761Y-144635714D01*
X108054761Y-144826190D02*
X108102380Y-144730952D01*
X108150000Y-144683333D01*
X108245238Y-144635714D01*
X108340476Y-144635714D01*
X85447619Y-133302380D02*
X86447619Y-133302380D01*
X85733333Y-133635714D01*
X86447619Y-133969047D01*
X85447619Y-133969047D01*
X85447619Y-134588095D02*
X85495238Y-134492857D01*
X85542857Y-134445238D01*
X85638095Y-134397619D01*
X85923809Y-134397619D01*
X86019047Y-134445238D01*
X86066666Y-134492857D01*
X86114285Y-134588095D01*
X86114285Y-134730952D01*
X86066666Y-134826190D01*
X86019047Y-134873809D01*
X85923809Y-134921428D01*
X85638095Y-134921428D01*
X85542857Y-134873809D01*
X85495238Y-134826190D01*
X85447619Y-134730952D01*
X85447619Y-134588095D01*
X86114285Y-135207142D02*
X86114285Y-135588095D01*
X86447619Y-135350000D02*
X85590476Y-135350000D01*
X85495238Y-135397619D01*
X85447619Y-135492857D01*
X85447619Y-135588095D01*
X85447619Y-136064285D02*
X85495238Y-135969047D01*
X85542857Y-135921428D01*
X85638095Y-135873809D01*
X85923809Y-135873809D01*
X86019047Y-135921428D01*
X86066666Y-135969047D01*
X86114285Y-136064285D01*
X86114285Y-136207142D01*
X86066666Y-136302380D01*
X86019047Y-136350000D01*
X85923809Y-136397619D01*
X85638095Y-136397619D01*
X85542857Y-136350000D01*
X85495238Y-136302380D01*
X85447619Y-136207142D01*
X85447619Y-136064285D01*
X85447619Y-136826190D02*
X86114285Y-136826190D01*
X85923809Y-136826190D02*
X86019047Y-136873809D01*
X86066666Y-136921428D01*
X86114285Y-137016666D01*
X86114285Y-137111904D01*
X85447619Y-138730952D02*
X85447619Y-138159523D01*
X85447619Y-138445238D02*
X86447619Y-138445238D01*
X86304761Y-138350000D01*
X86209523Y-138254761D01*
X86161904Y-138159523D01*
X85971428Y-139921428D02*
X85971428Y-140254761D01*
X85447619Y-140397619D02*
X85447619Y-139921428D01*
X86447619Y-139921428D01*
X86447619Y-140397619D01*
X86114285Y-140826190D02*
X85447619Y-140826190D01*
X86019047Y-140826190D02*
X86066666Y-140873809D01*
X86114285Y-140969047D01*
X86114285Y-141111904D01*
X86066666Y-141207142D01*
X85971428Y-141254761D01*
X85447619Y-141254761D01*
X85495238Y-142159523D02*
X85447619Y-142064285D01*
X85447619Y-141873809D01*
X85495238Y-141778571D01*
X85542857Y-141730952D01*
X85638095Y-141683333D01*
X85923809Y-141683333D01*
X86019047Y-141730952D01*
X86066666Y-141778571D01*
X86114285Y-141873809D01*
X86114285Y-142064285D01*
X86066666Y-142159523D01*
X85447619Y-142730952D02*
X85495238Y-142635714D01*
X85542857Y-142588095D01*
X85638095Y-142540476D01*
X85923809Y-142540476D01*
X86019047Y-142588095D01*
X86066666Y-142635714D01*
X86114285Y-142730952D01*
X86114285Y-142873809D01*
X86066666Y-142969047D01*
X86019047Y-143016666D01*
X85923809Y-143064285D01*
X85638095Y-143064285D01*
X85542857Y-143016666D01*
X85495238Y-142969047D01*
X85447619Y-142873809D01*
X85447619Y-142730952D01*
X85447619Y-143921428D02*
X86447619Y-143921428D01*
X85495238Y-143921428D02*
X85447619Y-143826190D01*
X85447619Y-143635714D01*
X85495238Y-143540476D01*
X85542857Y-143492857D01*
X85638095Y-143445238D01*
X85923809Y-143445238D01*
X86019047Y-143492857D01*
X86066666Y-143540476D01*
X86114285Y-143635714D01*
X86114285Y-143826190D01*
X86066666Y-143921428D01*
X85495238Y-144778571D02*
X85447619Y-144683333D01*
X85447619Y-144492857D01*
X85495238Y-144397619D01*
X85590476Y-144350000D01*
X85971428Y-144350000D01*
X86066666Y-144397619D01*
X86114285Y-144492857D01*
X86114285Y-144683333D01*
X86066666Y-144778571D01*
X85971428Y-144826190D01*
X85876190Y-144826190D01*
X85780952Y-144350000D01*
X85447619Y-145254761D02*
X86114285Y-145254761D01*
X85923809Y-145254761D02*
X86019047Y-145302380D01*
X86066666Y-145350000D01*
X86114285Y-145445238D01*
X86114285Y-145540476D01*
D10*
X84383333Y-110766666D02*
X83816666Y-110766666D01*
X83750000Y-110800000D01*
X83716666Y-110833333D01*
X83683333Y-110900000D01*
X83683333Y-111033333D01*
X83716666Y-111100000D01*
X83750000Y-111133333D01*
X83816666Y-111166666D01*
X84383333Y-111166666D01*
X83883333Y-111466666D02*
X83883333Y-111800000D01*
X83683333Y-111400000D02*
X84383333Y-111633333D01*
X83683333Y-111866666D01*
X83683333Y-112500000D02*
X84016666Y-112266666D01*
X83683333Y-112100000D02*
X84383333Y-112100000D01*
X84383333Y-112366666D01*
X84350000Y-112433333D01*
X84316666Y-112466666D01*
X84250000Y-112500000D01*
X84150000Y-112500000D01*
X84083333Y-112466666D01*
X84050000Y-112433333D01*
X84016666Y-112366666D01*
X84016666Y-112100000D01*
X84383333Y-112700000D02*
X84383333Y-113100000D01*
X83683333Y-112900000D02*
X84383333Y-112900000D01*
X84150000Y-113766666D02*
X84150000Y-114033333D01*
X84383333Y-113866666D02*
X83783333Y-113866666D01*
X83716666Y-113900000D01*
X83683333Y-113966666D01*
X83683333Y-114033333D01*
X83683333Y-114366666D02*
X83716666Y-114300000D01*
X83750000Y-114266666D01*
X83816666Y-114233333D01*
X84016666Y-114233333D01*
X84083333Y-114266666D01*
X84116666Y-114300000D01*
X84150000Y-114366666D01*
X84150000Y-114466666D01*
X84116666Y-114533333D01*
X84083333Y-114566666D01*
X84016666Y-114600000D01*
X83816666Y-114600000D01*
X83750000Y-114566666D01*
X83716666Y-114533333D01*
X83683333Y-114466666D01*
X83683333Y-114366666D01*
X83683333Y-115833333D02*
X84016666Y-115600000D01*
X83683333Y-115433333D02*
X84383333Y-115433333D01*
X84383333Y-115700000D01*
X84350000Y-115766666D01*
X84316666Y-115800000D01*
X84250000Y-115833333D01*
X84150000Y-115833333D01*
X84083333Y-115800000D01*
X84050000Y-115766666D01*
X84016666Y-115700000D01*
X84016666Y-115433333D01*
X83716666Y-116100000D02*
X83683333Y-116200000D01*
X83683333Y-116366666D01*
X83716666Y-116433333D01*
X83750000Y-116466666D01*
X83816666Y-116500000D01*
X83883333Y-116500000D01*
X83950000Y-116466666D01*
X83983333Y-116433333D01*
X84016666Y-116366666D01*
X84050000Y-116233333D01*
X84083333Y-116166666D01*
X84116666Y-116133333D01*
X84183333Y-116100000D01*
X84250000Y-116100000D01*
X84316666Y-116133333D01*
X84350000Y-116166666D01*
X84383333Y-116233333D01*
X84383333Y-116400000D01*
X84350000Y-116500000D01*
X83950000Y-116800000D02*
X83950000Y-117333333D01*
X84150000Y-117966666D02*
X83683333Y-117966666D01*
X84416666Y-117800000D02*
X83916666Y-117633333D01*
X83916666Y-118066666D01*
X84083333Y-118433333D02*
X84116666Y-118366666D01*
X84150000Y-118333333D01*
X84216666Y-118300000D01*
X84250000Y-118300000D01*
X84316666Y-118333333D01*
X84350000Y-118366666D01*
X84383333Y-118433333D01*
X84383333Y-118566666D01*
X84350000Y-118633333D01*
X84316666Y-118666666D01*
X84250000Y-118700000D01*
X84216666Y-118700000D01*
X84150000Y-118666666D01*
X84116666Y-118633333D01*
X84083333Y-118566666D01*
X84083333Y-118433333D01*
X84050000Y-118366666D01*
X84016666Y-118333333D01*
X83950000Y-118300000D01*
X83816666Y-118300000D01*
X83750000Y-118333333D01*
X83716666Y-118366666D01*
X83683333Y-118433333D01*
X83683333Y-118566666D01*
X83716666Y-118633333D01*
X83750000Y-118666666D01*
X83816666Y-118700000D01*
X83950000Y-118700000D01*
X84016666Y-118666666D01*
X84050000Y-118633333D01*
X84083333Y-118566666D01*
X84383333Y-119333333D02*
X84383333Y-119000000D01*
X84050000Y-118966666D01*
X84083333Y-119000000D01*
X84116666Y-119066666D01*
X84116666Y-119233333D01*
X84083333Y-119300000D01*
X84050000Y-119333333D01*
X83983333Y-119366666D01*
X83816666Y-119366666D01*
X83750000Y-119333333D01*
X83716666Y-119300000D01*
X83683333Y-119233333D01*
X83683333Y-119066666D01*
X83716666Y-119000000D01*
X83750000Y-118966666D01*
D16*
X82329261Y-112084152D02*
X82329261Y-112447009D01*
X82329261Y-112265580D02*
X81694261Y-112265580D01*
X81784976Y-112326057D01*
X81845452Y-112386533D01*
X81875690Y-112447009D01*
X81694261Y-111872485D02*
X81694261Y-111449152D01*
X82329261Y-111721295D01*
X82329261Y-114090752D02*
X82329261Y-114453609D01*
X82329261Y-114272180D02*
X81694261Y-114272180D01*
X81784976Y-114332657D01*
X81845452Y-114393133D01*
X81875690Y-114453609D01*
X81694261Y-113546466D02*
X81694261Y-113667419D01*
X81724500Y-113727895D01*
X81754738Y-113758133D01*
X81845452Y-113818609D01*
X81966404Y-113848847D01*
X82208309Y-113848847D01*
X82268785Y-113818609D01*
X82299023Y-113788371D01*
X82329261Y-113727895D01*
X82329261Y-113606942D01*
X82299023Y-113546466D01*
X82268785Y-113516228D01*
X82208309Y-113485990D01*
X82057119Y-113485990D01*
X81996642Y-113516228D01*
X81966404Y-113546466D01*
X81936166Y-113606942D01*
X81936166Y-113727895D01*
X81966404Y-113788371D01*
X81996642Y-113818609D01*
X82057119Y-113848847D01*
X81724500Y-118746209D02*
X81694261Y-118806685D01*
X81694261Y-118897400D01*
X81724500Y-118988114D01*
X81784976Y-119048590D01*
X81845452Y-119078828D01*
X81966404Y-119109066D01*
X82057119Y-119109066D01*
X82178071Y-119078828D01*
X82238547Y-119048590D01*
X82299023Y-118988114D01*
X82329261Y-118897400D01*
X82329261Y-118836923D01*
X82299023Y-118746209D01*
X82268785Y-118715971D01*
X82057119Y-118715971D01*
X82057119Y-118836923D01*
X82329261Y-118443828D02*
X81694261Y-118443828D01*
X82329261Y-118080971D01*
X81694261Y-118080971D01*
X82329261Y-117778590D02*
X81694261Y-117778590D01*
X81694261Y-117627400D01*
X81724500Y-117536685D01*
X81784976Y-117476209D01*
X81845452Y-117445971D01*
X81966404Y-117415733D01*
X82057119Y-117415733D01*
X82178071Y-117445971D01*
X82238547Y-117476209D01*
X82299023Y-117536685D01*
X82329261Y-117627400D01*
X82329261Y-117778590D01*
X81694261Y-116071952D02*
X81694261Y-116374333D01*
X81996642Y-116404571D01*
X81966404Y-116374333D01*
X81936166Y-116313857D01*
X81936166Y-116162666D01*
X81966404Y-116102190D01*
X81996642Y-116071952D01*
X82057119Y-116041714D01*
X82208309Y-116041714D01*
X82268785Y-116071952D01*
X82299023Y-116102190D01*
X82329261Y-116162666D01*
X82329261Y-116313857D01*
X82299023Y-116374333D01*
X82268785Y-116404571D01*
X81694261Y-115860285D02*
X82329261Y-115648619D01*
X81694261Y-115436952D01*
X94116797Y-81641042D02*
X94207511Y-81671280D01*
X94237749Y-81701519D01*
X94267987Y-81761995D01*
X94267987Y-81852709D01*
X94237749Y-81913185D01*
X94207511Y-81943423D01*
X94147035Y-81973661D01*
X93905130Y-81973661D01*
X93905130Y-81338661D01*
X94116797Y-81338661D01*
X94177273Y-81368900D01*
X94207511Y-81399138D01*
X94237749Y-81459614D01*
X94237749Y-81520090D01*
X94207511Y-81580566D01*
X94177273Y-81610804D01*
X94116797Y-81641042D01*
X93905130Y-81641042D01*
X96394209Y-81792233D02*
X96696590Y-81792233D01*
X96333733Y-81973661D02*
X96545400Y-81338661D01*
X96757066Y-81973661D01*
X98560950Y-81368900D02*
X98500474Y-81338661D01*
X98409760Y-81338661D01*
X98319045Y-81368900D01*
X98258569Y-81429376D01*
X98228331Y-81489852D01*
X98198093Y-81610804D01*
X98198093Y-81701519D01*
X98228331Y-81822471D01*
X98258569Y-81882947D01*
X98319045Y-81943423D01*
X98409760Y-81973661D01*
X98470236Y-81973661D01*
X98560950Y-81943423D01*
X98591188Y-81913185D01*
X98591188Y-81701519D01*
X98470236Y-81701519D01*
X98863331Y-81973661D02*
X98863331Y-81338661D01*
X99226188Y-81973661D01*
X99226188Y-81338661D01*
X99528569Y-81973661D02*
X99528569Y-81338661D01*
X99679760Y-81338661D01*
X99770474Y-81368900D01*
X99830950Y-81429376D01*
X99861188Y-81489852D01*
X99891426Y-81610804D01*
X99891426Y-81701519D01*
X99861188Y-81822471D01*
X99830950Y-81882947D01*
X99770474Y-81943423D01*
X99679760Y-81973661D01*
X99528569Y-81973661D01*
X101504447Y-81338661D02*
X101202066Y-81338661D01*
X101171828Y-81641042D01*
X101202066Y-81610804D01*
X101262542Y-81580566D01*
X101413733Y-81580566D01*
X101474209Y-81610804D01*
X101504447Y-81641042D01*
X101534685Y-81701519D01*
X101534685Y-81852709D01*
X101504447Y-81913185D01*
X101474209Y-81943423D01*
X101413733Y-81973661D01*
X101262542Y-81973661D01*
X101202066Y-81943423D01*
X101171828Y-81913185D01*
X101716114Y-81338661D02*
X101927780Y-81973661D01*
X102139447Y-81338661D01*
D14*
X94112388Y-109275571D02*
X94255245Y-109323190D01*
X94302864Y-109370809D01*
X94350483Y-109466047D01*
X94350483Y-109608904D01*
X94302864Y-109704142D01*
X94255245Y-109751761D01*
X94160007Y-109799380D01*
X93779055Y-109799380D01*
X93779055Y-108799380D01*
X94112388Y-108799380D01*
X94207626Y-108847000D01*
X94255245Y-108894619D01*
X94302864Y-108989857D01*
X94302864Y-109085095D01*
X94255245Y-109180333D01*
X94207626Y-109227952D01*
X94112388Y-109275571D01*
X93779055Y-109275571D01*
X93802864Y-113018866D02*
X94279055Y-113018866D01*
X93707626Y-113304580D02*
X94040960Y-112304580D01*
X94374293Y-113304580D01*
X93279055Y-115847240D02*
X93183817Y-115799620D01*
X93040960Y-115799620D01*
X92898102Y-115847240D01*
X92802864Y-115942478D01*
X92755245Y-116037716D01*
X92707626Y-116228192D01*
X92707626Y-116371049D01*
X92755245Y-116561525D01*
X92802864Y-116656763D01*
X92898102Y-116752001D01*
X93040960Y-116799620D01*
X93136198Y-116799620D01*
X93279055Y-116752001D01*
X93326674Y-116704382D01*
X93326674Y-116371049D01*
X93136198Y-116371049D01*
X93755245Y-116799620D02*
X93755245Y-115799620D01*
X94326674Y-116799620D01*
X94326674Y-115799620D01*
X94802864Y-116799620D02*
X94802864Y-115799620D01*
X95040960Y-115799620D01*
X95183817Y-115847240D01*
X95279055Y-115942478D01*
X95326674Y-116037716D01*
X95374293Y-116228192D01*
X95374293Y-116371049D01*
X95326674Y-116561525D01*
X95279055Y-116656763D01*
X95183817Y-116752001D01*
X95040960Y-116799620D01*
X94802864Y-116799620D01*
D16*
X102853550Y-138991340D02*
X102793074Y-138961101D01*
X102702360Y-138961101D01*
X102611645Y-138991340D01*
X102551169Y-139051816D01*
X102520931Y-139112292D01*
X102490693Y-139233244D01*
X102490693Y-139323959D01*
X102520931Y-139444911D01*
X102551169Y-139505387D01*
X102611645Y-139565863D01*
X102702360Y-139596101D01*
X102762836Y-139596101D01*
X102853550Y-139565863D01*
X102883788Y-139535625D01*
X102883788Y-139323959D01*
X102762836Y-139323959D01*
X103155931Y-139596101D02*
X103155931Y-138961101D01*
X103518788Y-139596101D01*
X103518788Y-138961101D01*
X103821169Y-139596101D02*
X103821169Y-138961101D01*
X103972360Y-138961101D01*
X104063074Y-138991340D01*
X104123550Y-139051816D01*
X104153788Y-139112292D01*
X104184026Y-139233244D01*
X104184026Y-139323959D01*
X104153788Y-139444911D01*
X104123550Y-139505387D01*
X104063074Y-139565863D01*
X103972360Y-139596101D01*
X103821169Y-139596101D01*
X98243087Y-139596101D02*
X97880230Y-139596101D01*
X98061659Y-139596101D02*
X98061659Y-138961101D01*
X98001182Y-139051816D01*
X97940706Y-139112292D01*
X97880230Y-139142530D01*
X98545468Y-139596101D02*
X98666420Y-139596101D01*
X98726897Y-139565863D01*
X98757135Y-139535625D01*
X98817611Y-139444911D01*
X98847849Y-139323959D01*
X98847849Y-139082054D01*
X98817611Y-139021578D01*
X98787373Y-138991340D01*
X98726897Y-138961101D01*
X98605944Y-138961101D01*
X98545468Y-138991340D01*
X98515230Y-139021578D01*
X98484992Y-139082054D01*
X98484992Y-139233244D01*
X98515230Y-139293720D01*
X98545468Y-139323959D01*
X98605944Y-139354197D01*
X98726897Y-139354197D01*
X98787373Y-139323959D01*
X98817611Y-139293720D01*
X98847849Y-139233244D01*
X100082047Y-139414673D02*
X100384428Y-139414673D01*
X100021571Y-139596101D02*
X100233238Y-138961101D01*
X100444904Y-139596101D01*
X100989190Y-139596101D02*
X100626333Y-139596101D01*
X100807761Y-139596101D02*
X100807761Y-138961101D01*
X100747285Y-139051816D01*
X100686809Y-139112292D01*
X100626333Y-139142530D01*
X101231095Y-139021578D02*
X101261333Y-138991340D01*
X101321809Y-138961101D01*
X101473000Y-138961101D01*
X101533476Y-138991340D01*
X101563714Y-139021578D01*
X101593952Y-139082054D01*
X101593952Y-139142530D01*
X101563714Y-139233244D01*
X101200857Y-139596101D01*
X101593952Y-139596101D01*
X105797047Y-138961101D02*
X105494666Y-138961101D01*
X105464428Y-139263482D01*
X105494666Y-139233244D01*
X105555142Y-139203006D01*
X105706333Y-139203006D01*
X105766809Y-139233244D01*
X105797047Y-139263482D01*
X105827285Y-139323959D01*
X105827285Y-139475149D01*
X105797047Y-139535625D01*
X105766809Y-139565863D01*
X105706333Y-139596101D01*
X105555142Y-139596101D01*
X105494666Y-139565863D01*
X105464428Y-139535625D01*
X106008714Y-138961101D02*
X106220380Y-139596101D01*
X106432047Y-138961101D01*
X83578700Y-140155990D02*
X83608938Y-140095514D01*
X83608938Y-140004800D01*
X83578700Y-139914085D01*
X83518223Y-139853609D01*
X83457747Y-139823371D01*
X83336795Y-139793133D01*
X83246080Y-139793133D01*
X83125128Y-139823371D01*
X83064652Y-139853609D01*
X83004176Y-139914085D01*
X82973938Y-140004800D01*
X82973938Y-140065276D01*
X83004176Y-140155990D01*
X83034414Y-140186228D01*
X83246080Y-140186228D01*
X83246080Y-140065276D01*
X82973938Y-140458371D02*
X83608938Y-140458371D01*
X82973938Y-140821228D01*
X83608938Y-140821228D01*
X82973938Y-141123609D02*
X83608938Y-141123609D01*
X83608938Y-141274800D01*
X83578700Y-141365514D01*
X83518223Y-141425990D01*
X83457747Y-141456228D01*
X83336795Y-141486466D01*
X83246080Y-141486466D01*
X83125128Y-141456228D01*
X83064652Y-141425990D01*
X83004176Y-141365514D01*
X82973938Y-141274800D01*
X82973938Y-141123609D01*
X83608938Y-135454813D02*
X83608938Y-135847908D01*
X83367033Y-135636241D01*
X83367033Y-135726956D01*
X83336795Y-135787432D01*
X83306557Y-135817670D01*
X83246080Y-135847908D01*
X83094890Y-135847908D01*
X83034414Y-135817670D01*
X83004176Y-135787432D01*
X82973938Y-135726956D01*
X82973938Y-135545527D01*
X83004176Y-135485051D01*
X83034414Y-135454813D01*
X82973938Y-138019487D02*
X82973938Y-137656630D01*
X82973938Y-137838059D02*
X83608938Y-137838059D01*
X83518223Y-137777582D01*
X83457747Y-137717106D01*
X83427509Y-137656630D01*
X83608938Y-138231154D02*
X83608938Y-138624249D01*
X83367033Y-138412582D01*
X83367033Y-138503297D01*
X83336795Y-138563773D01*
X83306557Y-138594011D01*
X83246080Y-138624249D01*
X83094890Y-138624249D01*
X83034414Y-138594011D01*
X83004176Y-138563773D01*
X82973938Y-138503297D01*
X82973938Y-138321868D01*
X83004176Y-138261392D01*
X83034414Y-138231154D01*
X83608938Y-143099487D02*
X83608938Y-142797106D01*
X83306557Y-142766868D01*
X83336795Y-142797106D01*
X83367033Y-142857582D01*
X83367033Y-143008773D01*
X83336795Y-143069249D01*
X83306557Y-143099487D01*
X83246080Y-143129725D01*
X83094890Y-143129725D01*
X83034414Y-143099487D01*
X83004176Y-143069249D01*
X82973938Y-143008773D01*
X82973938Y-142857582D01*
X83004176Y-142797106D01*
X83034414Y-142766868D01*
X83608938Y-143311154D02*
X82973938Y-143522820D01*
X83608938Y-143734487D01*
X84223860Y-86236870D02*
X84254098Y-86176394D01*
X84254098Y-86085680D01*
X84223860Y-85994965D01*
X84163383Y-85934489D01*
X84102907Y-85904251D01*
X83981955Y-85874013D01*
X83891240Y-85874013D01*
X83770288Y-85904251D01*
X83709812Y-85934489D01*
X83649336Y-85994965D01*
X83619098Y-86085680D01*
X83619098Y-86146156D01*
X83649336Y-86236870D01*
X83679574Y-86267108D01*
X83891240Y-86267108D01*
X83891240Y-86146156D01*
X83619098Y-86539251D02*
X84254098Y-86539251D01*
X83619098Y-86902108D01*
X84254098Y-86902108D01*
X83619098Y-87204489D02*
X84254098Y-87204489D01*
X84254098Y-87355680D01*
X84223860Y-87446394D01*
X84163383Y-87506870D01*
X84102907Y-87537108D01*
X83981955Y-87567346D01*
X83891240Y-87567346D01*
X83770288Y-87537108D01*
X83709812Y-87506870D01*
X83649336Y-87446394D01*
X83619098Y-87355680D01*
X83619098Y-87204489D01*
X84193621Y-81565931D02*
X84223860Y-81596169D01*
X84254098Y-81656645D01*
X84254098Y-81807836D01*
X84223860Y-81868312D01*
X84193621Y-81898550D01*
X84133145Y-81928788D01*
X84072669Y-81928788D01*
X83981955Y-81898550D01*
X83619098Y-81535693D01*
X83619098Y-81928788D01*
X83619098Y-84100367D02*
X83619098Y-83737510D01*
X83619098Y-83918939D02*
X84254098Y-83918939D01*
X84163383Y-83858462D01*
X84102907Y-83797986D01*
X84072669Y-83737510D01*
X84193621Y-84342272D02*
X84223860Y-84372510D01*
X84254098Y-84432986D01*
X84254098Y-84584177D01*
X84223860Y-84644653D01*
X84193621Y-84674891D01*
X84133145Y-84705129D01*
X84072669Y-84705129D01*
X83981955Y-84674891D01*
X83619098Y-84312034D01*
X83619098Y-84705129D01*
X84254098Y-89180367D02*
X84254098Y-88877986D01*
X83951717Y-88847748D01*
X83981955Y-88877986D01*
X84012193Y-88938462D01*
X84012193Y-89089653D01*
X83981955Y-89150129D01*
X83951717Y-89180367D01*
X83891240Y-89210605D01*
X83740050Y-89210605D01*
X83679574Y-89180367D01*
X83649336Y-89150129D01*
X83619098Y-89089653D01*
X83619098Y-88938462D01*
X83649336Y-88877986D01*
X83679574Y-88847748D01*
X84254098Y-89392034D02*
X83619098Y-89603700D01*
X84254098Y-89815367D01*
X111864381Y-89310512D02*
X111864381Y-89673369D01*
X111864381Y-89491940D02*
X111229381Y-89491940D01*
X111320096Y-89552417D01*
X111380572Y-89612893D01*
X111410810Y-89673369D01*
X111501524Y-88947655D02*
X111471286Y-89008131D01*
X111441048Y-89038369D01*
X111380572Y-89068607D01*
X111350334Y-89068607D01*
X111289858Y-89038369D01*
X111259620Y-89008131D01*
X111229381Y-88947655D01*
X111229381Y-88826702D01*
X111259620Y-88766226D01*
X111289858Y-88735988D01*
X111350334Y-88705750D01*
X111380572Y-88705750D01*
X111441048Y-88735988D01*
X111471286Y-88766226D01*
X111501524Y-88826702D01*
X111501524Y-88947655D01*
X111531762Y-89008131D01*
X111562000Y-89038369D01*
X111622477Y-89068607D01*
X111743429Y-89068607D01*
X111803905Y-89038369D01*
X111834143Y-89008131D01*
X111864381Y-88947655D01*
X111864381Y-88826702D01*
X111834143Y-88766226D01*
X111803905Y-88735988D01*
X111743429Y-88705750D01*
X111622477Y-88705750D01*
X111562000Y-88735988D01*
X111531762Y-88766226D01*
X111501524Y-88826702D01*
X111682953Y-87471552D02*
X111682953Y-87169171D01*
X111864381Y-87532028D02*
X111229381Y-87320361D01*
X111864381Y-87108695D01*
X111864381Y-86564409D02*
X111864381Y-86927266D01*
X111864381Y-86745838D02*
X111229381Y-86745838D01*
X111320096Y-86806314D01*
X111380572Y-86866790D01*
X111410810Y-86927266D01*
X111441048Y-86020123D02*
X111864381Y-86020123D01*
X111199143Y-86171314D02*
X111652715Y-86322504D01*
X111652715Y-85929409D01*
X111259620Y-84700049D02*
X111229381Y-84760525D01*
X111229381Y-84851240D01*
X111259620Y-84941954D01*
X111320096Y-85002430D01*
X111380572Y-85032668D01*
X111501524Y-85062906D01*
X111592239Y-85062906D01*
X111713191Y-85032668D01*
X111773667Y-85002430D01*
X111834143Y-84941954D01*
X111864381Y-84851240D01*
X111864381Y-84790763D01*
X111834143Y-84700049D01*
X111803905Y-84669811D01*
X111592239Y-84669811D01*
X111592239Y-84790763D01*
X111864381Y-84397668D02*
X111229381Y-84397668D01*
X111864381Y-84034811D01*
X111229381Y-84034811D01*
X111864381Y-83732430D02*
X111229381Y-83732430D01*
X111229381Y-83581240D01*
X111259620Y-83490525D01*
X111320096Y-83430049D01*
X111380572Y-83399811D01*
X111501524Y-83369573D01*
X111592239Y-83369573D01*
X111713191Y-83399811D01*
X111773667Y-83430049D01*
X111834143Y-83490525D01*
X111864381Y-83581240D01*
X111864381Y-83732430D01*
X111229381Y-81756552D02*
X111229381Y-82058933D01*
X111531762Y-82089171D01*
X111501524Y-82058933D01*
X111471286Y-81998457D01*
X111471286Y-81847266D01*
X111501524Y-81786790D01*
X111531762Y-81756552D01*
X111592239Y-81726314D01*
X111743429Y-81726314D01*
X111803905Y-81756552D01*
X111834143Y-81786790D01*
X111864381Y-81847266D01*
X111864381Y-81998457D01*
X111834143Y-82058933D01*
X111803905Y-82089171D01*
X111229381Y-81544885D02*
X111864381Y-81333219D01*
X111229381Y-81121552D01*
X112732820Y-124029409D02*
X112702581Y-124089885D01*
X112702581Y-124180600D01*
X112732820Y-124271314D01*
X112793296Y-124331790D01*
X112853772Y-124362028D01*
X112974724Y-124392266D01*
X113065439Y-124392266D01*
X113186391Y-124362028D01*
X113246867Y-124331790D01*
X113307343Y-124271314D01*
X113337581Y-124180600D01*
X113337581Y-124120123D01*
X113307343Y-124029409D01*
X113277105Y-123999171D01*
X113065439Y-123999171D01*
X113065439Y-124120123D01*
X113337581Y-123727028D02*
X112702581Y-123727028D01*
X113337581Y-123364171D01*
X112702581Y-123364171D01*
X113337581Y-123061790D02*
X112702581Y-123061790D01*
X112702581Y-122910600D01*
X112732820Y-122819885D01*
X112793296Y-122759409D01*
X112853772Y-122729171D01*
X112974724Y-122698933D01*
X113065439Y-122698933D01*
X113186391Y-122729171D01*
X113246867Y-122759409D01*
X113307343Y-122819885D01*
X113337581Y-122910600D01*
X113337581Y-123061790D01*
X112702581Y-116143072D02*
X112702581Y-116445453D01*
X113004962Y-116475691D01*
X112974724Y-116445453D01*
X112944486Y-116384977D01*
X112944486Y-116233786D01*
X112974724Y-116173310D01*
X113004962Y-116143072D01*
X113065439Y-116112834D01*
X113216629Y-116112834D01*
X113277105Y-116143072D01*
X113307343Y-116173310D01*
X113337581Y-116233786D01*
X113337581Y-116384977D01*
X113307343Y-116445453D01*
X113277105Y-116475691D01*
X112702581Y-115931405D02*
X113337581Y-115719739D01*
X112702581Y-115508072D01*
X113307343Y-121786952D02*
X113337581Y-121696238D01*
X113337581Y-121545047D01*
X113307343Y-121484571D01*
X113277105Y-121454333D01*
X113216629Y-121424095D01*
X113156153Y-121424095D01*
X113095677Y-121454333D01*
X113065439Y-121484571D01*
X113035200Y-121545047D01*
X113004962Y-121666000D01*
X112974724Y-121726476D01*
X112944486Y-121756714D01*
X112884010Y-121786952D01*
X112823534Y-121786952D01*
X112763058Y-121756714D01*
X112732820Y-121726476D01*
X112702581Y-121666000D01*
X112702581Y-121514809D01*
X112732820Y-121424095D01*
X113277105Y-120789095D02*
X113307343Y-120819333D01*
X113337581Y-120910047D01*
X113337581Y-120970523D01*
X113307343Y-121061238D01*
X113246867Y-121121714D01*
X113186391Y-121151952D01*
X113065439Y-121182190D01*
X112974724Y-121182190D01*
X112853772Y-121151952D01*
X112793296Y-121121714D01*
X112732820Y-121061238D01*
X112702581Y-120970523D01*
X112702581Y-120910047D01*
X112732820Y-120819333D01*
X112763058Y-120789095D01*
X113337581Y-120214571D02*
X113337581Y-120516952D01*
X112702581Y-120516952D01*
X113307343Y-119323031D02*
X113337581Y-119232317D01*
X113337581Y-119081126D01*
X113307343Y-119020650D01*
X113277105Y-118990412D01*
X113216629Y-118960174D01*
X113156153Y-118960174D01*
X113095677Y-118990412D01*
X113065439Y-119020650D01*
X113035200Y-119081126D01*
X113004962Y-119202079D01*
X112974724Y-119262555D01*
X112944486Y-119292793D01*
X112884010Y-119323031D01*
X112823534Y-119323031D01*
X112763058Y-119292793D01*
X112732820Y-119262555D01*
X112702581Y-119202079D01*
X112702581Y-119050888D01*
X112732820Y-118960174D01*
X113337581Y-118688031D02*
X112702581Y-118688031D01*
X112702581Y-118536840D01*
X112732820Y-118446126D01*
X112793296Y-118385650D01*
X112853772Y-118355412D01*
X112974724Y-118325174D01*
X113065439Y-118325174D01*
X113186391Y-118355412D01*
X113246867Y-118385650D01*
X113307343Y-118446126D01*
X113337581Y-118536840D01*
X113337581Y-118688031D01*
X113156153Y-118083269D02*
X113156153Y-117780888D01*
X113337581Y-118143745D02*
X112702581Y-117932079D01*
X113337581Y-117720412D01*
D17*
X109122754Y-112805754D02*
X109122754Y-112043754D01*
X109413040Y-112043754D01*
X109485611Y-112080040D01*
X109521897Y-112116325D01*
X109558182Y-112188897D01*
X109558182Y-112297754D01*
X109521897Y-112370325D01*
X109485611Y-112406611D01*
X109413040Y-112442897D01*
X109122754Y-112442897D01*
X109812182Y-112043754D02*
X109993611Y-112805754D01*
X110138754Y-112261468D01*
X110283897Y-112805754D01*
X110465325Y-112043754D01*
X110755611Y-112805754D02*
X110755611Y-112043754D01*
X111009611Y-112588040D01*
X111263611Y-112043754D01*
X111263611Y-112805754D01*
X112461040Y-112406611D02*
X112569897Y-112442897D01*
X112606182Y-112479182D01*
X112642468Y-112551754D01*
X112642468Y-112660611D01*
X112606182Y-112733182D01*
X112569897Y-112769468D01*
X112497325Y-112805754D01*
X112207040Y-112805754D01*
X112207040Y-112043754D01*
X112461040Y-112043754D01*
X112533611Y-112080040D01*
X112569897Y-112116325D01*
X112606182Y-112188897D01*
X112606182Y-112261468D01*
X112569897Y-112334040D01*
X112533611Y-112370325D01*
X112461040Y-112406611D01*
X112207040Y-112406611D01*
X113077897Y-112805754D02*
X113005325Y-112769468D01*
X112969040Y-112733182D01*
X112932754Y-112660611D01*
X112932754Y-112442897D01*
X112969040Y-112370325D01*
X113005325Y-112334040D01*
X113077897Y-112297754D01*
X113186754Y-112297754D01*
X113259325Y-112334040D01*
X113295611Y-112370325D01*
X113331897Y-112442897D01*
X113331897Y-112660611D01*
X113295611Y-112733182D01*
X113259325Y-112769468D01*
X113186754Y-112805754D01*
X113077897Y-112805754D01*
X113985040Y-112805754D02*
X113985040Y-112406611D01*
X113948754Y-112334040D01*
X113876182Y-112297754D01*
X113731040Y-112297754D01*
X113658468Y-112334040D01*
X113985040Y-112769468D02*
X113912468Y-112805754D01*
X113731040Y-112805754D01*
X113658468Y-112769468D01*
X113622182Y-112696897D01*
X113622182Y-112624325D01*
X113658468Y-112551754D01*
X113731040Y-112515468D01*
X113912468Y-112515468D01*
X113985040Y-112479182D01*
X114347897Y-112805754D02*
X114347897Y-112297754D01*
X114347897Y-112442897D02*
X114384182Y-112370325D01*
X114420468Y-112334040D01*
X114493040Y-112297754D01*
X114565611Y-112297754D01*
X115146182Y-112805754D02*
X115146182Y-112043754D01*
X115146182Y-112769468D02*
X115073611Y-112805754D01*
X114928468Y-112805754D01*
X114855897Y-112769468D01*
X114819611Y-112733182D01*
X114783325Y-112660611D01*
X114783325Y-112442897D01*
X114819611Y-112370325D01*
X114855897Y-112334040D01*
X114928468Y-112297754D01*
X115073611Y-112297754D01*
X115146182Y-112334040D01*
X116089611Y-112805754D02*
X116089611Y-112043754D01*
X116416182Y-112116325D02*
X116452468Y-112080040D01*
X116525040Y-112043754D01*
X116706468Y-112043754D01*
X116779040Y-112080040D01*
X116815325Y-112116325D01*
X116851611Y-112188897D01*
X116851611Y-112261468D01*
X116815325Y-112370325D01*
X116379897Y-112805754D01*
X116851611Y-112805754D01*
X117613611Y-112733182D02*
X117577325Y-112769468D01*
X117468468Y-112805754D01*
X117395897Y-112805754D01*
X117287040Y-112769468D01*
X117214468Y-112696897D01*
X117178182Y-112624325D01*
X117141897Y-112479182D01*
X117141897Y-112370325D01*
X117178182Y-112225182D01*
X117214468Y-112152611D01*
X117287040Y-112080040D01*
X117395897Y-112043754D01*
X117468468Y-112043754D01*
X117577325Y-112080040D01*
X117613611Y-112116325D01*
D18*
X110618693Y-133977210D02*
X110618693Y-133088210D01*
X110915026Y-133723210D01*
X111211360Y-133088210D01*
X111211360Y-133977210D01*
X112100360Y-133977210D02*
X111592360Y-133977210D01*
X111846360Y-133977210D02*
X111846360Y-133088210D01*
X111761693Y-133215210D01*
X111677026Y-133299877D01*
X111592360Y-133342210D01*
X112777693Y-133511544D02*
X112904693Y-133553877D01*
X112947026Y-133596210D01*
X112989360Y-133680877D01*
X112989360Y-133807877D01*
X112947026Y-133892544D01*
X112904693Y-133934877D01*
X112820026Y-133977210D01*
X112481360Y-133977210D01*
X112481360Y-133088210D01*
X112777693Y-133088210D01*
X112862360Y-133130544D01*
X112904693Y-133172877D01*
X112947026Y-133257544D01*
X112947026Y-133342210D01*
X112904693Y-133426877D01*
X112862360Y-133469210D01*
X112777693Y-133511544D01*
X112481360Y-133511544D01*
X111126693Y-138213592D02*
X111042027Y-138171258D01*
X110915027Y-138171258D01*
X110788027Y-138213592D01*
X110703360Y-138298258D01*
X110661027Y-138382925D01*
X110618693Y-138552258D01*
X110618693Y-138679258D01*
X110661027Y-138848592D01*
X110703360Y-138933258D01*
X110788027Y-139017925D01*
X110915027Y-139060258D01*
X110999693Y-139060258D01*
X111126693Y-139017925D01*
X111169027Y-138975592D01*
X111169027Y-138679258D01*
X110999693Y-138679258D01*
X111550027Y-139060258D02*
X111550027Y-138171258D01*
X112058027Y-139060258D01*
X112058027Y-138171258D01*
X112481360Y-139060258D02*
X112481360Y-138171258D01*
X112693027Y-138171258D01*
X112820027Y-138213592D01*
X112904693Y-138298258D01*
X112947027Y-138382925D01*
X112989360Y-138552258D01*
X112989360Y-138679258D01*
X112947027Y-138848592D01*
X112904693Y-138933258D01*
X112820027Y-139017925D01*
X112693027Y-139060258D01*
X112481360Y-139060258D01*
X110618693Y-144143306D02*
X110618693Y-143254306D01*
X110915026Y-143889306D01*
X111211360Y-143254306D01*
X111211360Y-144143306D01*
X111592360Y-143338973D02*
X111634693Y-143296640D01*
X111719360Y-143254306D01*
X111931026Y-143254306D01*
X112015693Y-143296640D01*
X112058026Y-143338973D01*
X112100360Y-143423640D01*
X112100360Y-143508306D01*
X112058026Y-143635306D01*
X111550026Y-144143306D01*
X112100360Y-144143306D01*
X112777693Y-143677640D02*
X112904693Y-143719973D01*
X112947026Y-143762306D01*
X112989360Y-143846973D01*
X112989360Y-143973973D01*
X112947026Y-144058640D01*
X112904693Y-144100973D01*
X112820026Y-144143306D01*
X112481360Y-144143306D01*
X112481360Y-143254306D01*
X112777693Y-143254306D01*
X112862360Y-143296640D01*
X112904693Y-143338973D01*
X112947026Y-143423640D01*
X112947026Y-143508306D01*
X112904693Y-143592973D01*
X112862360Y-143635306D01*
X112777693Y-143677640D01*
X112481360Y-143677640D01*
X110745693Y-131435686D02*
X110745693Y-130546686D01*
X111042026Y-131181686D01*
X111338360Y-130546686D01*
X111338360Y-131435686D01*
X112227360Y-131435686D02*
X111719360Y-131435686D01*
X111973360Y-131435686D02*
X111973360Y-130546686D01*
X111888693Y-130673686D01*
X111804026Y-130758353D01*
X111719360Y-130800686D01*
X112566026Y-131181686D02*
X112989360Y-131181686D01*
X112481360Y-131435686D02*
X112777693Y-130546686D01*
X113074026Y-131435686D01*
X112185026Y-135629734D02*
X111761693Y-135629734D01*
X111719360Y-136053068D01*
X111761693Y-136010734D01*
X111846360Y-135968401D01*
X112058026Y-135968401D01*
X112142693Y-136010734D01*
X112185026Y-136053068D01*
X112227360Y-136137734D01*
X112227360Y-136349401D01*
X112185026Y-136434068D01*
X112142693Y-136476401D01*
X112058026Y-136518734D01*
X111846360Y-136518734D01*
X111761693Y-136476401D01*
X111719360Y-136434068D01*
X112481360Y-135629734D02*
X112777693Y-136518734D01*
X113074026Y-135629734D01*
X110745693Y-141601782D02*
X110745693Y-140712782D01*
X111042026Y-141347782D01*
X111338360Y-140712782D01*
X111338360Y-141601782D01*
X111719360Y-140797449D02*
X111761693Y-140755116D01*
X111846360Y-140712782D01*
X112058026Y-140712782D01*
X112142693Y-140755116D01*
X112185026Y-140797449D01*
X112227360Y-140882116D01*
X112227360Y-140966782D01*
X112185026Y-141093782D01*
X111677026Y-141601782D01*
X112227360Y-141601782D01*
X112566026Y-141347782D02*
X112989360Y-141347782D01*
X112481360Y-141601782D02*
X112777693Y-140712782D01*
X113074026Y-141601782D01*
X110621233Y-109032886D02*
X110621233Y-108143886D01*
X110917566Y-108778886D01*
X111213900Y-108143886D01*
X111213900Y-109032886D01*
X111594900Y-108228553D02*
X111637233Y-108186220D01*
X111721900Y-108143886D01*
X111933566Y-108143886D01*
X112018233Y-108186220D01*
X112060566Y-108228553D01*
X112102900Y-108313220D01*
X112102900Y-108397886D01*
X112060566Y-108524886D01*
X111552566Y-109032886D01*
X112102900Y-109032886D01*
X112780233Y-108567220D02*
X112907233Y-108609553D01*
X112949566Y-108651886D01*
X112991900Y-108736553D01*
X112991900Y-108863553D01*
X112949566Y-108948220D01*
X112907233Y-108990553D01*
X112822566Y-109032886D01*
X112483900Y-109032886D01*
X112483900Y-108143886D01*
X112780233Y-108143886D01*
X112864900Y-108186220D01*
X112907233Y-108228553D01*
X112949566Y-108313220D01*
X112949566Y-108397886D01*
X112907233Y-108482553D01*
X112864900Y-108524886D01*
X112780233Y-108567220D01*
X112483900Y-108567220D01*
X110748233Y-106491362D02*
X110748233Y-105602362D01*
X111044566Y-106237362D01*
X111340900Y-105602362D01*
X111340900Y-106491362D01*
X111721900Y-105687029D02*
X111764233Y-105644696D01*
X111848900Y-105602362D01*
X112060566Y-105602362D01*
X112145233Y-105644696D01*
X112187566Y-105687029D01*
X112229900Y-105771696D01*
X112229900Y-105856362D01*
X112187566Y-105983362D01*
X111679566Y-106491362D01*
X112229900Y-106491362D01*
X112568566Y-106237362D02*
X112991900Y-106237362D01*
X112483900Y-106491362D02*
X112780233Y-105602362D01*
X113076566Y-106491362D01*
X110621233Y-98866790D02*
X110621233Y-97977790D01*
X110917566Y-98612790D01*
X111213900Y-97977790D01*
X111213900Y-98866790D01*
X112102900Y-98866790D02*
X111594900Y-98866790D01*
X111848900Y-98866790D02*
X111848900Y-97977790D01*
X111764233Y-98104790D01*
X111679566Y-98189457D01*
X111594900Y-98231790D01*
X112780233Y-98401124D02*
X112907233Y-98443457D01*
X112949566Y-98485790D01*
X112991900Y-98570457D01*
X112991900Y-98697457D01*
X112949566Y-98782124D01*
X112907233Y-98824457D01*
X112822566Y-98866790D01*
X112483900Y-98866790D01*
X112483900Y-97977790D01*
X112780233Y-97977790D01*
X112864900Y-98020124D01*
X112907233Y-98062457D01*
X112949566Y-98147124D01*
X112949566Y-98231790D01*
X112907233Y-98316457D01*
X112864900Y-98358790D01*
X112780233Y-98401124D01*
X112483900Y-98401124D01*
X110748233Y-96325266D02*
X110748233Y-95436266D01*
X111044566Y-96071266D01*
X111340900Y-95436266D01*
X111340900Y-96325266D01*
X112229900Y-96325266D02*
X111721900Y-96325266D01*
X111975900Y-96325266D02*
X111975900Y-95436266D01*
X111891233Y-95563266D01*
X111806566Y-95647933D01*
X111721900Y-95690266D01*
X112568566Y-96071266D02*
X112991900Y-96071266D01*
X112483900Y-96325266D02*
X112780233Y-95436266D01*
X113076566Y-96325266D01*
X112187566Y-100519314D02*
X111764233Y-100519314D01*
X111721900Y-100942648D01*
X111764233Y-100900314D01*
X111848900Y-100857981D01*
X112060566Y-100857981D01*
X112145233Y-100900314D01*
X112187566Y-100942648D01*
X112229900Y-101027314D01*
X112229900Y-101238981D01*
X112187566Y-101323648D01*
X112145233Y-101365981D01*
X112060566Y-101408314D01*
X111848900Y-101408314D01*
X111764233Y-101365981D01*
X111721900Y-101323648D01*
X112483900Y-100519314D02*
X112780233Y-101408314D01*
X113076566Y-100519314D01*
X111129233Y-103103172D02*
X111044567Y-103060838D01*
X110917567Y-103060838D01*
X110790567Y-103103172D01*
X110705900Y-103187838D01*
X110663567Y-103272505D01*
X110621233Y-103441838D01*
X110621233Y-103568838D01*
X110663567Y-103738172D01*
X110705900Y-103822838D01*
X110790567Y-103907505D01*
X110917567Y-103949838D01*
X111002233Y-103949838D01*
X111129233Y-103907505D01*
X111171567Y-103865172D01*
X111171567Y-103568838D01*
X111002233Y-103568838D01*
X111552567Y-103949838D02*
X111552567Y-103060838D01*
X112060567Y-103949838D01*
X112060567Y-103060838D01*
X112483900Y-103949838D02*
X112483900Y-103060838D01*
X112695567Y-103060838D01*
X112822567Y-103103172D01*
X112907233Y-103187838D01*
X112949567Y-103272505D01*
X112991900Y-103441838D01*
X112991900Y-103568838D01*
X112949567Y-103738172D01*
X112907233Y-103822838D01*
X112822567Y-103907505D01*
X112695567Y-103949838D01*
X112483900Y-103949838D01*
D14*
X110099100Y-142387935D02*
X109099100Y-142387935D01*
X109813386Y-142054601D01*
X109099100Y-141721268D01*
X110099100Y-141721268D01*
X110099100Y-141102220D02*
X110051481Y-141197459D01*
X110003862Y-141245078D01*
X109908624Y-141292697D01*
X109622910Y-141292697D01*
X109527672Y-141245078D01*
X109480053Y-141197459D01*
X109432434Y-141102220D01*
X109432434Y-140959363D01*
X109480053Y-140864125D01*
X109527672Y-140816506D01*
X109622910Y-140768887D01*
X109908624Y-140768887D01*
X110003862Y-140816506D01*
X110051481Y-140864125D01*
X110099100Y-140959363D01*
X110099100Y-141102220D01*
X109432434Y-140483173D02*
X109432434Y-140102220D01*
X109099100Y-140340316D02*
X109956243Y-140340316D01*
X110051481Y-140292697D01*
X110099100Y-140197459D01*
X110099100Y-140102220D01*
X110099100Y-139626030D02*
X110051481Y-139721268D01*
X110003862Y-139768887D01*
X109908624Y-139816506D01*
X109622910Y-139816506D01*
X109527672Y-139768887D01*
X109480053Y-139721268D01*
X109432434Y-139626030D01*
X109432434Y-139483173D01*
X109480053Y-139387935D01*
X109527672Y-139340316D01*
X109622910Y-139292697D01*
X109908624Y-139292697D01*
X110003862Y-139340316D01*
X110051481Y-139387935D01*
X110099100Y-139483173D01*
X110099100Y-139626030D01*
X110099100Y-138864125D02*
X109432434Y-138864125D01*
X109622910Y-138864125D02*
X109527672Y-138816506D01*
X109480053Y-138768887D01*
X109432434Y-138673649D01*
X109432434Y-138578411D01*
X110099100Y-137483173D02*
X109099100Y-137483173D01*
X109099100Y-137245078D01*
X109146720Y-137102220D01*
X109241958Y-137006982D01*
X109337196Y-136959363D01*
X109527672Y-136911744D01*
X109670529Y-136911744D01*
X109861005Y-136959363D01*
X109956243Y-137006982D01*
X110051481Y-137102220D01*
X110099100Y-137245078D01*
X110099100Y-137483173D01*
X110099100Y-136483173D02*
X109432434Y-136483173D01*
X109622910Y-136483173D02*
X109527672Y-136435554D01*
X109480053Y-136387935D01*
X109432434Y-136292697D01*
X109432434Y-136197459D01*
X110099100Y-135864125D02*
X109432434Y-135864125D01*
X109099100Y-135864125D02*
X109146720Y-135911744D01*
X109194339Y-135864125D01*
X109146720Y-135816506D01*
X109099100Y-135864125D01*
X109194339Y-135864125D01*
X109432434Y-135483173D02*
X110099100Y-135245078D01*
X109432434Y-135006982D01*
X110051481Y-134245078D02*
X110099100Y-134340316D01*
X110099100Y-134530792D01*
X110051481Y-134626030D01*
X109956243Y-134673649D01*
X109575291Y-134673649D01*
X109480053Y-134626030D01*
X109432434Y-134530792D01*
X109432434Y-134340316D01*
X109480053Y-134245078D01*
X109575291Y-134197459D01*
X109670529Y-134197459D01*
X109765767Y-134673649D01*
X110099100Y-133768887D02*
X109432434Y-133768887D01*
X109622910Y-133768887D02*
X109527672Y-133721268D01*
X109480053Y-133673649D01*
X109432434Y-133578411D01*
X109432434Y-133483173D01*
X110099100Y-131864125D02*
X110099100Y-132435554D01*
X110099100Y-132149840D02*
X109099100Y-132149840D01*
X109241958Y-132245078D01*
X109337196Y-132340316D01*
X109384815Y-132435554D01*
X109761280Y-107612795D02*
X108761280Y-107612795D01*
X109475566Y-107279461D01*
X108761280Y-106946128D01*
X109761280Y-106946128D01*
X109761280Y-106327080D02*
X109713661Y-106422319D01*
X109666042Y-106469938D01*
X109570804Y-106517557D01*
X109285090Y-106517557D01*
X109189852Y-106469938D01*
X109142233Y-106422319D01*
X109094614Y-106327080D01*
X109094614Y-106184223D01*
X109142233Y-106088985D01*
X109189852Y-106041366D01*
X109285090Y-105993747D01*
X109570804Y-105993747D01*
X109666042Y-106041366D01*
X109713661Y-106088985D01*
X109761280Y-106184223D01*
X109761280Y-106327080D01*
X109094614Y-105708033D02*
X109094614Y-105327080D01*
X108761280Y-105565176D02*
X109618423Y-105565176D01*
X109713661Y-105517557D01*
X109761280Y-105422319D01*
X109761280Y-105327080D01*
X109761280Y-104850890D02*
X109713661Y-104946128D01*
X109666042Y-104993747D01*
X109570804Y-105041366D01*
X109285090Y-105041366D01*
X109189852Y-104993747D01*
X109142233Y-104946128D01*
X109094614Y-104850890D01*
X109094614Y-104708033D01*
X109142233Y-104612795D01*
X109189852Y-104565176D01*
X109285090Y-104517557D01*
X109570804Y-104517557D01*
X109666042Y-104565176D01*
X109713661Y-104612795D01*
X109761280Y-104708033D01*
X109761280Y-104850890D01*
X109761280Y-104088985D02*
X109094614Y-104088985D01*
X109285090Y-104088985D02*
X109189852Y-104041366D01*
X109142233Y-103993747D01*
X109094614Y-103898509D01*
X109094614Y-103803271D01*
X109761280Y-102708033D02*
X108761280Y-102708033D01*
X108761280Y-102469938D01*
X108808900Y-102327080D01*
X108904138Y-102231842D01*
X108999376Y-102184223D01*
X109189852Y-102136604D01*
X109332709Y-102136604D01*
X109523185Y-102184223D01*
X109618423Y-102231842D01*
X109713661Y-102327080D01*
X109761280Y-102469938D01*
X109761280Y-102708033D01*
X109761280Y-101708033D02*
X109094614Y-101708033D01*
X109285090Y-101708033D02*
X109189852Y-101660414D01*
X109142233Y-101612795D01*
X109094614Y-101517557D01*
X109094614Y-101422319D01*
X109761280Y-101088985D02*
X109094614Y-101088985D01*
X108761280Y-101088985D02*
X108808900Y-101136604D01*
X108856519Y-101088985D01*
X108808900Y-101041366D01*
X108761280Y-101088985D01*
X108856519Y-101088985D01*
X109094614Y-100708033D02*
X109761280Y-100469938D01*
X109094614Y-100231842D01*
X109713661Y-99469938D02*
X109761280Y-99565176D01*
X109761280Y-99755652D01*
X109713661Y-99850890D01*
X109618423Y-99898509D01*
X109237471Y-99898509D01*
X109142233Y-99850890D01*
X109094614Y-99755652D01*
X109094614Y-99565176D01*
X109142233Y-99469938D01*
X109237471Y-99422319D01*
X109332709Y-99422319D01*
X109427947Y-99898509D01*
X109761280Y-98993747D02*
X109094614Y-98993747D01*
X109285090Y-98993747D02*
X109189852Y-98946128D01*
X109142233Y-98898509D01*
X109094614Y-98803271D01*
X109094614Y-98708033D01*
X108856519Y-97660414D02*
X108808900Y-97612795D01*
X108761280Y-97517557D01*
X108761280Y-97279461D01*
X108808900Y-97184223D01*
X108856519Y-97136604D01*
X108951757Y-97088985D01*
X109046995Y-97088985D01*
X109189852Y-97136604D01*
X109761280Y-97708033D01*
X109761280Y-97088985D01*
X117092857Y-139457142D02*
X116792857Y-139028571D01*
X116578571Y-139457142D02*
X116578571Y-138557142D01*
X116921428Y-138557142D01*
X117007142Y-138600000D01*
X117050000Y-138642857D01*
X117092857Y-138728571D01*
X117092857Y-138857142D01*
X117050000Y-138942857D01*
X117007142Y-138985714D01*
X116921428Y-139028571D01*
X116578571Y-139028571D01*
X117478571Y-138985714D02*
X117778571Y-138985714D01*
X117907142Y-139457142D02*
X117478571Y-139457142D01*
X117478571Y-138557142D01*
X117907142Y-138557142D01*
X118250000Y-139414285D02*
X118378571Y-139457142D01*
X118592857Y-139457142D01*
X118678571Y-139414285D01*
X118721428Y-139371428D01*
X118764285Y-139285714D01*
X118764285Y-139200000D01*
X118721428Y-139114285D01*
X118678571Y-139071428D01*
X118592857Y-139028571D01*
X118421428Y-138985714D01*
X118335714Y-138942857D01*
X118292857Y-138900000D01*
X118250000Y-138814285D01*
X118250000Y-138728571D01*
X118292857Y-138642857D01*
X118335714Y-138600000D01*
X118421428Y-138557142D01*
X118635714Y-138557142D01*
X118764285Y-138600000D01*
X119150000Y-138985714D02*
X119450000Y-138985714D01*
X119578571Y-139457142D02*
X119150000Y-139457142D01*
X119150000Y-138557142D01*
X119578571Y-138557142D01*
X119835714Y-138557142D02*
X120350000Y-138557142D01*
X120092857Y-139457142D02*
X120092857Y-138557142D01*
X117323809Y-136002380D02*
X117942857Y-136002380D01*
X117609523Y-136383333D01*
X117752380Y-136383333D01*
X117847619Y-136430952D01*
X117895238Y-136478571D01*
X117942857Y-136573809D01*
X117942857Y-136811904D01*
X117895238Y-136907142D01*
X117847619Y-136954761D01*
X117752380Y-137002380D01*
X117466666Y-137002380D01*
X117371428Y-136954761D01*
X117323809Y-136907142D01*
X118371428Y-136907142D02*
X118419047Y-136954761D01*
X118371428Y-137002380D01*
X118323809Y-136954761D01*
X118371428Y-136907142D01*
X118371428Y-137002380D01*
X118752380Y-136002380D02*
X119371428Y-136002380D01*
X119038095Y-136383333D01*
X119180952Y-136383333D01*
X119276190Y-136430952D01*
X119323809Y-136478571D01*
X119371428Y-136573809D01*
X119371428Y-136811904D01*
X119323809Y-136907142D01*
X119276190Y-136954761D01*
X119180952Y-137002380D01*
X118895238Y-137002380D01*
X118800000Y-136954761D01*
X118752380Y-136907142D01*
X119657142Y-136002380D02*
X119990476Y-137002380D01*
X120323809Y-136002380D01*
X119259523Y-133452380D02*
X118783333Y-133452380D01*
X118735714Y-133928571D01*
X118783333Y-133880952D01*
X118878571Y-133833333D01*
X119116666Y-133833333D01*
X119211904Y-133880952D01*
X119259523Y-133928571D01*
X119307142Y-134023809D01*
X119307142Y-134261904D01*
X119259523Y-134357142D01*
X119211904Y-134404761D01*
X119116666Y-134452380D01*
X118878571Y-134452380D01*
X118783333Y-134404761D01*
X118735714Y-134357142D01*
X119592857Y-133452380D02*
X119926190Y-134452380D01*
X120259523Y-133452380D01*
X118224395Y-131002150D02*
X118129157Y-130954530D01*
X117986300Y-130954530D01*
X117843442Y-131002150D01*
X117748204Y-131097388D01*
X117700585Y-131192626D01*
X117652966Y-131383102D01*
X117652966Y-131525959D01*
X117700585Y-131716435D01*
X117748204Y-131811673D01*
X117843442Y-131906911D01*
X117986300Y-131954530D01*
X118081538Y-131954530D01*
X118224395Y-131906911D01*
X118272014Y-131859292D01*
X118272014Y-131525959D01*
X118081538Y-131525959D01*
X118700585Y-131954530D02*
X118700585Y-130954530D01*
X119272014Y-131954530D01*
X119272014Y-130954530D01*
X119748204Y-131954530D02*
X119748204Y-130954530D01*
X119986300Y-130954530D01*
X120129157Y-131002150D01*
X120224395Y-131097388D01*
X120272014Y-131192626D01*
X120319633Y-131383102D01*
X120319633Y-131525959D01*
X120272014Y-131716435D01*
X120224395Y-131811673D01*
X120129157Y-131906911D01*
X119986300Y-131954530D01*
X119748204Y-131954530D01*
X118224395Y-128430400D02*
X118129157Y-128382780D01*
X117986300Y-128382780D01*
X117843442Y-128430400D01*
X117748204Y-128525638D01*
X117700585Y-128620876D01*
X117652966Y-128811352D01*
X117652966Y-128954209D01*
X117700585Y-129144685D01*
X117748204Y-129239923D01*
X117843442Y-129335161D01*
X117986300Y-129382780D01*
X118081538Y-129382780D01*
X118224395Y-129335161D01*
X118272014Y-129287542D01*
X118272014Y-128954209D01*
X118081538Y-128954209D01*
X118700585Y-129382780D02*
X118700585Y-128382780D01*
X119272014Y-129382780D01*
X119272014Y-128382780D01*
X119748204Y-129382780D02*
X119748204Y-128382780D01*
X119986300Y-128382780D01*
X120129157Y-128430400D01*
X120224395Y-128525638D01*
X120272014Y-128620876D01*
X120319633Y-128811352D01*
X120319633Y-128954209D01*
X120272014Y-129144685D01*
X120224395Y-129239923D01*
X120129157Y-129335161D01*
X119986300Y-129382780D01*
X119748204Y-129382780D01*
X118224395Y-125811030D02*
X118557729Y-126811030D01*
X118891062Y-125811030D01*
X119224395Y-126811030D02*
X119224395Y-125811030D01*
X119700586Y-126811030D02*
X119700586Y-125811030D01*
X120272014Y-126811030D01*
X120272014Y-125811030D01*
X118792714Y-119024150D02*
X119268904Y-119024150D01*
X118697476Y-119309864D02*
X119030809Y-118309864D01*
X119364142Y-119309864D01*
X120221285Y-119309864D02*
X119649857Y-119309864D01*
X119935571Y-119309864D02*
X119935571Y-118309864D01*
X119840333Y-118452722D01*
X119745095Y-118547960D01*
X119649857Y-118595579D01*
X118792714Y-103697066D02*
X119268904Y-103697066D01*
X118697476Y-103982780D02*
X119030809Y-102982780D01*
X119364142Y-103982780D01*
X119602238Y-102982780D02*
X120268904Y-102982780D01*
X119840333Y-103982780D01*
X118792714Y-108806094D02*
X119268904Y-108806094D01*
X118697476Y-109091808D02*
X119030809Y-108091808D01*
X119364142Y-109091808D01*
X120173666Y-108091808D02*
X119697476Y-108091808D01*
X119649857Y-108567999D01*
X119697476Y-108520380D01*
X119792714Y-108472761D01*
X120030809Y-108472761D01*
X120126047Y-108520380D01*
X120173666Y-108567999D01*
X120221285Y-108663237D01*
X120221285Y-108901332D01*
X120173666Y-108996570D01*
X120126047Y-109044189D01*
X120030809Y-109091808D01*
X119792714Y-109091808D01*
X119697476Y-109044189D01*
X119649857Y-108996570D01*
X118792714Y-111360608D02*
X119268904Y-111360608D01*
X118697476Y-111646322D02*
X119030809Y-110646322D01*
X119364142Y-111646322D01*
X120126047Y-110979656D02*
X120126047Y-111646322D01*
X119887952Y-110598703D02*
X119649857Y-111312989D01*
X120268904Y-111312989D01*
X118792714Y-116469636D02*
X119268904Y-116469636D01*
X118697476Y-116755350D02*
X119030809Y-115755350D01*
X119364142Y-116755350D01*
X119649857Y-115850589D02*
X119697476Y-115802970D01*
X119792714Y-115755350D01*
X120030809Y-115755350D01*
X120126047Y-115802970D01*
X120173666Y-115850589D01*
X120221285Y-115945827D01*
X120221285Y-116041065D01*
X120173666Y-116183922D01*
X119602238Y-116755350D01*
X120221285Y-116755350D01*
X118792714Y-113915122D02*
X119268904Y-113915122D01*
X118697476Y-114200836D02*
X119030809Y-113200836D01*
X119364142Y-114200836D01*
X119602238Y-113200836D02*
X120221285Y-113200836D01*
X119887952Y-113581789D01*
X120030809Y-113581789D01*
X120126047Y-113629408D01*
X120173666Y-113677027D01*
X120221285Y-113772265D01*
X120221285Y-114010360D01*
X120173666Y-114105598D01*
X120126047Y-114153217D01*
X120030809Y-114200836D01*
X119745095Y-114200836D01*
X119649857Y-114153217D01*
X119602238Y-114105598D01*
X118792714Y-121578666D02*
X119268904Y-121578666D01*
X118697476Y-121864380D02*
X119030809Y-120864380D01*
X119364142Y-121864380D01*
X119887952Y-120864380D02*
X119983190Y-120864380D01*
X120078428Y-120912000D01*
X120126047Y-120959619D01*
X120173666Y-121054857D01*
X120221285Y-121245333D01*
X120221285Y-121483428D01*
X120173666Y-121673904D01*
X120126047Y-121769142D01*
X120078428Y-121816761D01*
X119983190Y-121864380D01*
X119887952Y-121864380D01*
X119792714Y-121816761D01*
X119745095Y-121769142D01*
X119697476Y-121673904D01*
X119649857Y-121483428D01*
X119649857Y-121245333D01*
X119697476Y-121054857D01*
X119745095Y-120959619D01*
X119792714Y-120912000D01*
X119887952Y-120864380D01*
X118792714Y-106251580D02*
X119268904Y-106251580D01*
X118697476Y-106537294D02*
X119030809Y-105537294D01*
X119364142Y-106537294D01*
X120126047Y-105537294D02*
X119935571Y-105537294D01*
X119840333Y-105584914D01*
X119792714Y-105632533D01*
X119697476Y-105775390D01*
X119649857Y-105965866D01*
X119649857Y-106346818D01*
X119697476Y-106442056D01*
X119745095Y-106489675D01*
X119840333Y-106537294D01*
X120030809Y-106537294D01*
X120126047Y-106489675D01*
X120173666Y-106442056D01*
X120221285Y-106346818D01*
X120221285Y-106108723D01*
X120173666Y-106013485D01*
X120126047Y-105965866D01*
X120030809Y-105918247D01*
X119840333Y-105918247D01*
X119745095Y-105965866D01*
X119697476Y-106013485D01*
X119649857Y-106108723D01*
X118684705Y-98718666D02*
X119160895Y-98718666D01*
X118589467Y-99004380D02*
X118922800Y-98004380D01*
X119256133Y-99004380D01*
X119732324Y-98432952D02*
X119637086Y-98385333D01*
X119589467Y-98337714D01*
X119541848Y-98242476D01*
X119541848Y-98194857D01*
X119589467Y-98099619D01*
X119637086Y-98052000D01*
X119732324Y-98004380D01*
X119922800Y-98004380D01*
X120018038Y-98052000D01*
X120065657Y-98099619D01*
X120113276Y-98194857D01*
X120113276Y-98242476D01*
X120065657Y-98337714D01*
X120018038Y-98385333D01*
X119922800Y-98432952D01*
X119732324Y-98432952D01*
X119637086Y-98480571D01*
X119589467Y-98528190D01*
X119541848Y-98623428D01*
X119541848Y-98813904D01*
X119589467Y-98909142D01*
X119637086Y-98956761D01*
X119732324Y-99004380D01*
X119922800Y-99004380D01*
X120018038Y-98956761D01*
X120065657Y-98909142D01*
X120113276Y-98813904D01*
X120113276Y-98623428D01*
X120065657Y-98528190D01*
X120018038Y-98480571D01*
X119922800Y-98432952D01*
X118684705Y-96164150D02*
X119160895Y-96164150D01*
X118589467Y-96449864D02*
X118922800Y-95449864D01*
X119256133Y-96449864D01*
X119637086Y-96449864D02*
X119827562Y-96449864D01*
X119922800Y-96402245D01*
X119970419Y-96354626D01*
X120065657Y-96211769D01*
X120113276Y-96021293D01*
X120113276Y-95640341D01*
X120065657Y-95545103D01*
X120018038Y-95497484D01*
X119922800Y-95449864D01*
X119732324Y-95449864D01*
X119637086Y-95497484D01*
X119589467Y-95545103D01*
X119541848Y-95640341D01*
X119541848Y-95878436D01*
X119589467Y-95973674D01*
X119637086Y-96021293D01*
X119732324Y-96068912D01*
X119922800Y-96068912D01*
X120018038Y-96021293D01*
X120065657Y-95973674D01*
X120113276Y-95878436D01*
X117732323Y-88500608D02*
X118208514Y-88500608D01*
X117637085Y-88786322D02*
X117970419Y-87786322D01*
X118303752Y-88786322D01*
X119160895Y-88786322D02*
X118589466Y-88786322D01*
X118875180Y-88786322D02*
X118875180Y-87786322D01*
X118779942Y-87929180D01*
X118684704Y-88024418D01*
X118589466Y-88072037D01*
X119541847Y-87881561D02*
X119589466Y-87833942D01*
X119684704Y-87786322D01*
X119922800Y-87786322D01*
X120018038Y-87833942D01*
X120065657Y-87881561D01*
X120113276Y-87976799D01*
X120113276Y-88072037D01*
X120065657Y-88214894D01*
X119494228Y-88786322D01*
X120113276Y-88786322D01*
X117732323Y-93609636D02*
X118208514Y-93609636D01*
X117637085Y-93895350D02*
X117970419Y-92895350D01*
X118303752Y-93895350D01*
X119160895Y-93895350D02*
X118589466Y-93895350D01*
X118875180Y-93895350D02*
X118875180Y-92895350D01*
X118779942Y-93038208D01*
X118684704Y-93133446D01*
X118589466Y-93181065D01*
X119779942Y-92895350D02*
X119875180Y-92895350D01*
X119970419Y-92942970D01*
X120018038Y-92990589D01*
X120065657Y-93085827D01*
X120113276Y-93276303D01*
X120113276Y-93514398D01*
X120065657Y-93704874D01*
X120018038Y-93800112D01*
X119970419Y-93847731D01*
X119875180Y-93895350D01*
X119779942Y-93895350D01*
X119684704Y-93847731D01*
X119637085Y-93800112D01*
X119589466Y-93704874D01*
X119541847Y-93514398D01*
X119541847Y-93276303D01*
X119589466Y-93085827D01*
X119637085Y-92990589D01*
X119684704Y-92942970D01*
X119779942Y-92895350D01*
X117732323Y-91055122D02*
X118208514Y-91055122D01*
X117637085Y-91340836D02*
X117970419Y-90340836D01*
X118303752Y-91340836D01*
X119160895Y-91340836D02*
X118589466Y-91340836D01*
X118875180Y-91340836D02*
X118875180Y-90340836D01*
X118779942Y-90483694D01*
X118684704Y-90578932D01*
X118589466Y-90626551D01*
X120113276Y-91340836D02*
X119541847Y-91340836D01*
X119827561Y-91340836D02*
X119827561Y-90340836D01*
X119732323Y-90483694D01*
X119637085Y-90578932D01*
X119541847Y-90626551D01*
X117732323Y-85946094D02*
X118208514Y-85946094D01*
X117637085Y-86231808D02*
X117970419Y-85231808D01*
X118303752Y-86231808D01*
X119160895Y-86231808D02*
X118589466Y-86231808D01*
X118875180Y-86231808D02*
X118875180Y-85231808D01*
X118779942Y-85374666D01*
X118684704Y-85469904D01*
X118589466Y-85517523D01*
X119494228Y-85231808D02*
X120113276Y-85231808D01*
X119779942Y-85612761D01*
X119922800Y-85612761D01*
X120018038Y-85660380D01*
X120065657Y-85707999D01*
X120113276Y-85803237D01*
X120113276Y-86041332D01*
X120065657Y-86136570D01*
X120018038Y-86184189D01*
X119922800Y-86231808D01*
X119637085Y-86231808D01*
X119541847Y-86184189D01*
X119494228Y-86136570D01*
X117732323Y-80837066D02*
X118208514Y-80837066D01*
X117637085Y-81122780D02*
X117970419Y-80122780D01*
X118303752Y-81122780D01*
X119160895Y-81122780D02*
X118589466Y-81122780D01*
X118875180Y-81122780D02*
X118875180Y-80122780D01*
X118779942Y-80265638D01*
X118684704Y-80360876D01*
X118589466Y-80408495D01*
X120065657Y-80122780D02*
X119589466Y-80122780D01*
X119541847Y-80598971D01*
X119589466Y-80551352D01*
X119684704Y-80503733D01*
X119922800Y-80503733D01*
X120018038Y-80551352D01*
X120065657Y-80598971D01*
X120113276Y-80694209D01*
X120113276Y-80932304D01*
X120065657Y-81027542D01*
X120018038Y-81075161D01*
X119922800Y-81122780D01*
X119684704Y-81122780D01*
X119589466Y-81075161D01*
X119541847Y-81027542D01*
X117732323Y-83391580D02*
X118208514Y-83391580D01*
X117637085Y-83677294D02*
X117970419Y-82677294D01*
X118303752Y-83677294D01*
X119160895Y-83677294D02*
X118589466Y-83677294D01*
X118875180Y-83677294D02*
X118875180Y-82677294D01*
X118779942Y-82820152D01*
X118684704Y-82915390D01*
X118589466Y-82963009D01*
X120018038Y-83010628D02*
X120018038Y-83677294D01*
X119779942Y-82629675D02*
X119541847Y-83343961D01*
X120160895Y-83343961D01*
X109329480Y-91467819D02*
X108329480Y-91467819D01*
X109043766Y-91134485D01*
X108329480Y-90801152D01*
X109329480Y-90801152D01*
X109329480Y-90182104D02*
X109281861Y-90277342D01*
X109234242Y-90324961D01*
X109139004Y-90372580D01*
X108853290Y-90372580D01*
X108758052Y-90324961D01*
X108710433Y-90277342D01*
X108662814Y-90182104D01*
X108662814Y-90039247D01*
X108710433Y-89944009D01*
X108758052Y-89896390D01*
X108853290Y-89848771D01*
X109139004Y-89848771D01*
X109234242Y-89896390D01*
X109281861Y-89944009D01*
X109329480Y-90039247D01*
X109329480Y-90182104D01*
X108662814Y-89563057D02*
X108662814Y-89182104D01*
X108329480Y-89420200D02*
X109186623Y-89420200D01*
X109281861Y-89372580D01*
X109329480Y-89277342D01*
X109329480Y-89182104D01*
X109329480Y-88705914D02*
X109281861Y-88801152D01*
X109234242Y-88848771D01*
X109139004Y-88896390D01*
X108853290Y-88896390D01*
X108758052Y-88848771D01*
X108710433Y-88801152D01*
X108662814Y-88705914D01*
X108662814Y-88563057D01*
X108710433Y-88467819D01*
X108758052Y-88420200D01*
X108853290Y-88372580D01*
X109139004Y-88372580D01*
X109234242Y-88420200D01*
X109281861Y-88467819D01*
X109329480Y-88563057D01*
X109329480Y-88705914D01*
X109329480Y-87944009D02*
X108662814Y-87944009D01*
X108853290Y-87944009D02*
X108758052Y-87896390D01*
X108710433Y-87848771D01*
X108662814Y-87753533D01*
X108662814Y-87658295D01*
X108329480Y-86658295D02*
X108329480Y-86039247D01*
X108710433Y-86372580D01*
X108710433Y-86229723D01*
X108758052Y-86134485D01*
X108805671Y-86086866D01*
X108900909Y-86039247D01*
X109139004Y-86039247D01*
X109234242Y-86086866D01*
X109281861Y-86134485D01*
X109329480Y-86229723D01*
X109329480Y-86515438D01*
X109281861Y-86610676D01*
X109234242Y-86658295D01*
X108805671Y-84848771D02*
X108805671Y-84515438D01*
X109329480Y-84372580D02*
X109329480Y-84848771D01*
X108329480Y-84848771D01*
X108329480Y-84372580D01*
X108662814Y-83944009D02*
X109329480Y-83944009D01*
X108758052Y-83944009D02*
X108710433Y-83896390D01*
X108662814Y-83801152D01*
X108662814Y-83658295D01*
X108710433Y-83563057D01*
X108805671Y-83515438D01*
X109329480Y-83515438D01*
X109281861Y-82610676D02*
X109329480Y-82705914D01*
X109329480Y-82896390D01*
X109281861Y-82991628D01*
X109234242Y-83039247D01*
X109139004Y-83086866D01*
X108853290Y-83086866D01*
X108758052Y-83039247D01*
X108710433Y-82991628D01*
X108662814Y-82896390D01*
X108662814Y-82705914D01*
X108710433Y-82610676D01*
X109329480Y-82039247D02*
X109281861Y-82134485D01*
X109234242Y-82182104D01*
X109139004Y-82229723D01*
X108853290Y-82229723D01*
X108758052Y-82182104D01*
X108710433Y-82134485D01*
X108662814Y-82039247D01*
X108662814Y-81896390D01*
X108710433Y-81801152D01*
X108758052Y-81753533D01*
X108853290Y-81705914D01*
X109139004Y-81705914D01*
X109234242Y-81753533D01*
X109281861Y-81801152D01*
X109329480Y-81896390D01*
X109329480Y-82039247D01*
X109329480Y-80848771D02*
X108329480Y-80848771D01*
X109281861Y-80848771D02*
X109329480Y-80944009D01*
X109329480Y-81134485D01*
X109281861Y-81229723D01*
X109234242Y-81277342D01*
X109139004Y-81324961D01*
X108853290Y-81324961D01*
X108758052Y-81277342D01*
X108710433Y-81229723D01*
X108662814Y-81134485D01*
X108662814Y-80944009D01*
X108710433Y-80848771D01*
X109281861Y-79991628D02*
X109329480Y-80086866D01*
X109329480Y-80277342D01*
X109281861Y-80372580D01*
X109186623Y-80420200D01*
X108805671Y-80420200D01*
X108710433Y-80372580D01*
X108662814Y-80277342D01*
X108662814Y-80086866D01*
X108710433Y-79991628D01*
X108805671Y-79944009D01*
X108900909Y-79944009D01*
X108996147Y-80420200D01*
X109329480Y-79515438D02*
X108662814Y-79515438D01*
X108853290Y-79515438D02*
X108758052Y-79467819D01*
X108710433Y-79420200D01*
X108662814Y-79324961D01*
X108662814Y-79229723D01*
X86901280Y-91544019D02*
X85901280Y-91544019D01*
X86615566Y-91210685D01*
X85901280Y-90877352D01*
X86901280Y-90877352D01*
X86901280Y-90258304D02*
X86853661Y-90353542D01*
X86806042Y-90401161D01*
X86710804Y-90448780D01*
X86425090Y-90448780D01*
X86329852Y-90401161D01*
X86282233Y-90353542D01*
X86234614Y-90258304D01*
X86234614Y-90115447D01*
X86282233Y-90020209D01*
X86329852Y-89972590D01*
X86425090Y-89924971D01*
X86710804Y-89924971D01*
X86806042Y-89972590D01*
X86853661Y-90020209D01*
X86901280Y-90115447D01*
X86901280Y-90258304D01*
X86234614Y-89639257D02*
X86234614Y-89258304D01*
X85901280Y-89496400D02*
X86758423Y-89496400D01*
X86853661Y-89448780D01*
X86901280Y-89353542D01*
X86901280Y-89258304D01*
X86901280Y-88782114D02*
X86853661Y-88877352D01*
X86806042Y-88924971D01*
X86710804Y-88972590D01*
X86425090Y-88972590D01*
X86329852Y-88924971D01*
X86282233Y-88877352D01*
X86234614Y-88782114D01*
X86234614Y-88639257D01*
X86282233Y-88544019D01*
X86329852Y-88496400D01*
X86425090Y-88448780D01*
X86710804Y-88448780D01*
X86806042Y-88496400D01*
X86853661Y-88544019D01*
X86901280Y-88639257D01*
X86901280Y-88782114D01*
X86901280Y-88020209D02*
X86234614Y-88020209D01*
X86425090Y-88020209D02*
X86329852Y-87972590D01*
X86282233Y-87924971D01*
X86234614Y-87829733D01*
X86234614Y-87734495D01*
X86234614Y-86210685D02*
X86901280Y-86210685D01*
X85853661Y-86448780D02*
X86567947Y-86686876D01*
X86567947Y-86067828D01*
X86377471Y-84924971D02*
X86377471Y-84591638D01*
X86901280Y-84448780D02*
X86901280Y-84924971D01*
X85901280Y-84924971D01*
X85901280Y-84448780D01*
X86234614Y-84020209D02*
X86901280Y-84020209D01*
X86329852Y-84020209D02*
X86282233Y-83972590D01*
X86234614Y-83877352D01*
X86234614Y-83734495D01*
X86282233Y-83639257D01*
X86377471Y-83591638D01*
X86901280Y-83591638D01*
X86853661Y-82686876D02*
X86901280Y-82782114D01*
X86901280Y-82972590D01*
X86853661Y-83067828D01*
X86806042Y-83115447D01*
X86710804Y-83163066D01*
X86425090Y-83163066D01*
X86329852Y-83115447D01*
X86282233Y-83067828D01*
X86234614Y-82972590D01*
X86234614Y-82782114D01*
X86282233Y-82686876D01*
X86901280Y-82115447D02*
X86853661Y-82210685D01*
X86806042Y-82258304D01*
X86710804Y-82305923D01*
X86425090Y-82305923D01*
X86329852Y-82258304D01*
X86282233Y-82210685D01*
X86234614Y-82115447D01*
X86234614Y-81972590D01*
X86282233Y-81877352D01*
X86329852Y-81829733D01*
X86425090Y-81782114D01*
X86710804Y-81782114D01*
X86806042Y-81829733D01*
X86853661Y-81877352D01*
X86901280Y-81972590D01*
X86901280Y-82115447D01*
X86901280Y-80924971D02*
X85901280Y-80924971D01*
X86853661Y-80924971D02*
X86901280Y-81020209D01*
X86901280Y-81210685D01*
X86853661Y-81305923D01*
X86806042Y-81353542D01*
X86710804Y-81401161D01*
X86425090Y-81401161D01*
X86329852Y-81353542D01*
X86282233Y-81305923D01*
X86234614Y-81210685D01*
X86234614Y-81020209D01*
X86282233Y-80924971D01*
X86853661Y-80067828D02*
X86901280Y-80163066D01*
X86901280Y-80353542D01*
X86853661Y-80448780D01*
X86758423Y-80496400D01*
X86377471Y-80496400D01*
X86282233Y-80448780D01*
X86234614Y-80353542D01*
X86234614Y-80163066D01*
X86282233Y-80067828D01*
X86377471Y-80020209D01*
X86472709Y-80020209D01*
X86567947Y-80496400D01*
X86901280Y-79591638D02*
X86234614Y-79591638D01*
X86425090Y-79591638D02*
X86329852Y-79544019D01*
X86282233Y-79496400D01*
X86234614Y-79401161D01*
X86234614Y-79305923D01*
X89986861Y-87637880D02*
X89653528Y-87161690D01*
X89415433Y-87637880D02*
X89415433Y-86637880D01*
X89796385Y-86637880D01*
X89891623Y-86685500D01*
X89939242Y-86733119D01*
X89986861Y-86828357D01*
X89986861Y-86971214D01*
X89939242Y-87066452D01*
X89891623Y-87114071D01*
X89796385Y-87161690D01*
X89415433Y-87161690D01*
X90367814Y-87590261D02*
X90510671Y-87637880D01*
X90748766Y-87637880D01*
X90844004Y-87590261D01*
X90891623Y-87542642D01*
X90939242Y-87447404D01*
X90939242Y-87352166D01*
X90891623Y-87256928D01*
X90844004Y-87209309D01*
X90748766Y-87161690D01*
X90558290Y-87114071D01*
X90463052Y-87066452D01*
X90415433Y-87018833D01*
X90367814Y-86923595D01*
X90367814Y-86828357D01*
X90415433Y-86733119D01*
X90463052Y-86685500D01*
X90558290Y-86637880D01*
X90796385Y-86637880D01*
X90939242Y-86685500D01*
X91367814Y-87256928D02*
X92129719Y-87256928D01*
X93034480Y-86971214D02*
X93034480Y-87637880D01*
X92796385Y-86590261D02*
X92558290Y-87304547D01*
X93177338Y-87304547D01*
X93701147Y-87066452D02*
X93605909Y-87018833D01*
X93558290Y-86971214D01*
X93510671Y-86875976D01*
X93510671Y-86828357D01*
X93558290Y-86733119D01*
X93605909Y-86685500D01*
X93701147Y-86637880D01*
X93891623Y-86637880D01*
X93986861Y-86685500D01*
X94034480Y-86733119D01*
X94082100Y-86828357D01*
X94082100Y-86875976D01*
X94034480Y-86971214D01*
X93986861Y-87018833D01*
X93891623Y-87066452D01*
X93701147Y-87066452D01*
X93605909Y-87114071D01*
X93558290Y-87161690D01*
X93510671Y-87256928D01*
X93510671Y-87447404D01*
X93558290Y-87542642D01*
X93605909Y-87590261D01*
X93701147Y-87637880D01*
X93891623Y-87637880D01*
X93986861Y-87590261D01*
X94034480Y-87542642D01*
X94082100Y-87447404D01*
X94082100Y-87256928D01*
X94034480Y-87161690D01*
X93986861Y-87114071D01*
X93891623Y-87066452D01*
X94986861Y-86637880D02*
X94510671Y-86637880D01*
X94463052Y-87114071D01*
X94510671Y-87066452D01*
X94605909Y-87018833D01*
X94844004Y-87018833D01*
X94939242Y-87066452D01*
X94986861Y-87114071D01*
X95034480Y-87209309D01*
X95034480Y-87447404D01*
X94986861Y-87542642D01*
X94939242Y-87590261D01*
X94844004Y-87637880D01*
X94605909Y-87637880D01*
X94510671Y-87590261D01*
X94463052Y-87542642D01*
X96558290Y-87114071D02*
X96701147Y-87161690D01*
X96748766Y-87209309D01*
X96796385Y-87304547D01*
X96796385Y-87447404D01*
X96748766Y-87542642D01*
X96701147Y-87590261D01*
X96605909Y-87637880D01*
X96224957Y-87637880D01*
X96224957Y-86637880D01*
X96558290Y-86637880D01*
X96653528Y-86685500D01*
X96701147Y-86733119D01*
X96748766Y-86828357D01*
X96748766Y-86923595D01*
X96701147Y-87018833D01*
X96653528Y-87066452D01*
X96558290Y-87114071D01*
X96224957Y-87114071D01*
X97653528Y-86971214D02*
X97653528Y-87637880D01*
X97224957Y-86971214D02*
X97224957Y-87495023D01*
X97272576Y-87590261D01*
X97367814Y-87637880D01*
X97510671Y-87637880D01*
X97605909Y-87590261D01*
X97653528Y-87542642D01*
X98082100Y-87590261D02*
X98177338Y-87637880D01*
X98367814Y-87637880D01*
X98463052Y-87590261D01*
X98510671Y-87495023D01*
X98510671Y-87447404D01*
X98463052Y-87352166D01*
X98367814Y-87304547D01*
X98224957Y-87304547D01*
X98129719Y-87256928D01*
X98082100Y-87161690D01*
X98082100Y-87114071D01*
X98129719Y-87018833D01*
X98224957Y-86971214D01*
X98367814Y-86971214D01*
X98463052Y-87018833D01*
X100272576Y-87542642D02*
X100224957Y-87590261D01*
X100082100Y-87637880D01*
X99986861Y-87637880D01*
X99844004Y-87590261D01*
X99748766Y-87495023D01*
X99701147Y-87399785D01*
X99653528Y-87209309D01*
X99653528Y-87066452D01*
X99701147Y-86875976D01*
X99748766Y-86780738D01*
X99844004Y-86685500D01*
X99986861Y-86637880D01*
X100082100Y-86637880D01*
X100224957Y-86685500D01*
X100272576Y-86733119D01*
X100844004Y-87637880D02*
X100748766Y-87590261D01*
X100701147Y-87542642D01*
X100653528Y-87447404D01*
X100653528Y-87161690D01*
X100701147Y-87066452D01*
X100748766Y-87018833D01*
X100844004Y-86971214D01*
X100986861Y-86971214D01*
X101082100Y-87018833D01*
X101129719Y-87066452D01*
X101177338Y-87161690D01*
X101177338Y-87447404D01*
X101129719Y-87542642D01*
X101082100Y-87590261D01*
X100986861Y-87637880D01*
X100844004Y-87637880D01*
X101605909Y-86971214D02*
X101605909Y-87637880D01*
X101605909Y-87066452D02*
X101653528Y-87018833D01*
X101748766Y-86971214D01*
X101891623Y-86971214D01*
X101986861Y-87018833D01*
X102034480Y-87114071D01*
X102034480Y-87637880D01*
X102510671Y-86971214D02*
X102510671Y-87637880D01*
X102510671Y-87066452D02*
X102558290Y-87018833D01*
X102653528Y-86971214D01*
X102796385Y-86971214D01*
X102891623Y-87018833D01*
X102939242Y-87114071D01*
X102939242Y-87637880D01*
X103796385Y-87590261D02*
X103701147Y-87637880D01*
X103510671Y-87637880D01*
X103415433Y-87590261D01*
X103367814Y-87495023D01*
X103367814Y-87114071D01*
X103415433Y-87018833D01*
X103510671Y-86971214D01*
X103701147Y-86971214D01*
X103796385Y-87018833D01*
X103844004Y-87114071D01*
X103844004Y-87209309D01*
X103367814Y-87304547D01*
X104701147Y-87590261D02*
X104605909Y-87637880D01*
X104415433Y-87637880D01*
X104320195Y-87590261D01*
X104272576Y-87542642D01*
X104224957Y-87447404D01*
X104224957Y-87161690D01*
X104272576Y-87066452D01*
X104320195Y-87018833D01*
X104415433Y-86971214D01*
X104605909Y-86971214D01*
X104701147Y-87018833D01*
X104986861Y-86971214D02*
X105367814Y-86971214D01*
X105129719Y-86637880D02*
X105129719Y-87495023D01*
X105177338Y-87590261D01*
X105272576Y-87637880D01*
X105367814Y-87637880D01*
X105844004Y-87637880D02*
X105748766Y-87590261D01*
X105701147Y-87542642D01*
X105653528Y-87447404D01*
X105653528Y-87161690D01*
X105701147Y-87066452D01*
X105748766Y-87018833D01*
X105844004Y-86971214D01*
X105986861Y-86971214D01*
X106082100Y-87018833D01*
X106129719Y-87066452D01*
X106177338Y-87161690D01*
X106177338Y-87447404D01*
X106129719Y-87542642D01*
X106082100Y-87590261D01*
X105986861Y-87637880D01*
X105844004Y-87637880D01*
X106605909Y-87637880D02*
X106605909Y-86971214D01*
X106605909Y-87161690D02*
X106653528Y-87066452D01*
X106701147Y-87018833D01*
X106796385Y-86971214D01*
X106891623Y-86971214D01*
D19*
X84357619Y-93011904D02*
X85357619Y-93011904D01*
X84357619Y-93583333D01*
X85357619Y-93583333D01*
X84405238Y-94440476D02*
X84357619Y-94345238D01*
X84357619Y-94154761D01*
X84405238Y-94059523D01*
X84500476Y-94011904D01*
X84881428Y-94011904D01*
X84976666Y-94059523D01*
X85024285Y-94154761D01*
X85024285Y-94345238D01*
X84976666Y-94440476D01*
X84881428Y-94488095D01*
X84786190Y-94488095D01*
X84690952Y-94011904D01*
X84357619Y-94821428D02*
X85024285Y-95345238D01*
X85024285Y-94821428D02*
X84357619Y-95345238D01*
X85024285Y-96154761D02*
X84357619Y-96154761D01*
X85024285Y-95726190D02*
X84500476Y-95726190D01*
X84405238Y-95773809D01*
X84357619Y-95869047D01*
X84357619Y-96011904D01*
X84405238Y-96107142D01*
X84452857Y-96154761D01*
X84405238Y-96583333D02*
X84357619Y-96678571D01*
X84357619Y-96869047D01*
X84405238Y-96964285D01*
X84500476Y-97011904D01*
X84548095Y-97011904D01*
X84643333Y-96964285D01*
X84690952Y-96869047D01*
X84690952Y-96726190D01*
X84738571Y-96630952D01*
X84833809Y-96583333D01*
X84881428Y-96583333D01*
X84976666Y-96630952D01*
X85024285Y-96726190D01*
X85024285Y-96869047D01*
X84976666Y-96964285D01*
X85024285Y-98630952D02*
X84357619Y-98630952D01*
X85405238Y-98392857D02*
X84690952Y-98154761D01*
X84690952Y-98773809D01*
X85357619Y-99059523D02*
X84357619Y-99297619D01*
X85071904Y-99488095D01*
X84357619Y-99678571D01*
X85357619Y-99916666D01*
X84357619Y-100297619D02*
X85357619Y-100297619D01*
X85357619Y-100535714D01*
X85310000Y-100678571D01*
X85214761Y-100773809D01*
X85119523Y-100821428D01*
X84929047Y-100869047D01*
X84786190Y-100869047D01*
X84595714Y-100821428D01*
X84500476Y-100773809D01*
X84405238Y-100678571D01*
X84357619Y-100535714D01*
X84357619Y-100297619D01*
X84357619Y-102059523D02*
X85357619Y-102059523D01*
X84643333Y-102392857D01*
X85357619Y-102726190D01*
X84357619Y-102726190D01*
X84405238Y-103583333D02*
X84357619Y-103488095D01*
X84357619Y-103297619D01*
X84405238Y-103202380D01*
X84500476Y-103154761D01*
X84881428Y-103154761D01*
X84976666Y-103202380D01*
X85024285Y-103297619D01*
X85024285Y-103488095D01*
X84976666Y-103583333D01*
X84881428Y-103630952D01*
X84786190Y-103630952D01*
X84690952Y-103154761D01*
X84405238Y-104488095D02*
X84357619Y-104392857D01*
X84357619Y-104202380D01*
X84405238Y-104107142D01*
X84452857Y-104059523D01*
X84548095Y-104011904D01*
X84833809Y-104011904D01*
X84929047Y-104059523D01*
X84976666Y-104107142D01*
X85024285Y-104202380D01*
X85024285Y-104392857D01*
X84976666Y-104488095D01*
X84357619Y-105345238D02*
X84881428Y-105345238D01*
X84976666Y-105297619D01*
X85024285Y-105202380D01*
X85024285Y-105011904D01*
X84976666Y-104916666D01*
X84405238Y-105345238D02*
X84357619Y-105250000D01*
X84357619Y-105011904D01*
X84405238Y-104916666D01*
X84500476Y-104869047D01*
X84595714Y-104869047D01*
X84690952Y-104916666D01*
X84738571Y-105011904D01*
X84738571Y-105250000D01*
X84786190Y-105345238D01*
X85024285Y-105821428D02*
X84357619Y-105821428D01*
X84929047Y-105821428D02*
X84976666Y-105869047D01*
X85024285Y-105964285D01*
X85024285Y-106107142D01*
X84976666Y-106202380D01*
X84881428Y-106250000D01*
X84357619Y-106250000D01*
X85024285Y-107154761D02*
X84357619Y-107154761D01*
X85024285Y-106726190D02*
X84500476Y-106726190D01*
X84405238Y-106773809D01*
X84357619Y-106869047D01*
X84357619Y-107011904D01*
X84405238Y-107107142D01*
X84452857Y-107154761D01*
X84357619Y-107630952D02*
X85024285Y-107630952D01*
X84929047Y-107630952D02*
X84976666Y-107678571D01*
X85024285Y-107773809D01*
X85024285Y-107916666D01*
X84976666Y-108011904D01*
X84881428Y-108059523D01*
X84357619Y-108059523D01*
X84881428Y-108059523D02*
X84976666Y-108107142D01*
X85024285Y-108202380D01*
X85024285Y-108345238D01*
X84976666Y-108440476D01*
X84881428Y-108488095D01*
X84357619Y-108488095D01*
X81423333Y-93178571D02*
X81423333Y-93654761D01*
X81137619Y-93083333D02*
X82137619Y-93416666D01*
X81137619Y-93750000D01*
X81137619Y-94083333D02*
X81804285Y-94083333D01*
X81613809Y-94083333D02*
X81709047Y-94130952D01*
X81756666Y-94178571D01*
X81804285Y-94273809D01*
X81804285Y-94369047D01*
X81137619Y-95130952D02*
X82137619Y-95130952D01*
X81185238Y-95130952D02*
X81137619Y-95035714D01*
X81137619Y-94845238D01*
X81185238Y-94750000D01*
X81232857Y-94702380D01*
X81328095Y-94654761D01*
X81613809Y-94654761D01*
X81709047Y-94702380D01*
X81756666Y-94750000D01*
X81804285Y-94845238D01*
X81804285Y-95035714D01*
X81756666Y-95130952D01*
X81804285Y-96035714D02*
X81137619Y-96035714D01*
X81804285Y-95607142D02*
X81280476Y-95607142D01*
X81185238Y-95654761D01*
X81137619Y-95750000D01*
X81137619Y-95892857D01*
X81185238Y-95988095D01*
X81232857Y-96035714D01*
X81137619Y-96511904D02*
X81804285Y-96511904D01*
X82137619Y-96511904D02*
X82090000Y-96464285D01*
X82042380Y-96511904D01*
X82090000Y-96559523D01*
X82137619Y-96511904D01*
X82042380Y-96511904D01*
X81804285Y-96988095D02*
X81137619Y-96988095D01*
X81709047Y-96988095D02*
X81756666Y-97035714D01*
X81804285Y-97130952D01*
X81804285Y-97273809D01*
X81756666Y-97369047D01*
X81661428Y-97416666D01*
X81137619Y-97416666D01*
X81137619Y-98035714D02*
X81185238Y-97940476D01*
X81232857Y-97892857D01*
X81328095Y-97845238D01*
X81613809Y-97845238D01*
X81709047Y-97892857D01*
X81756666Y-97940476D01*
X81804285Y-98035714D01*
X81804285Y-98178571D01*
X81756666Y-98273809D01*
X81709047Y-98321428D01*
X81613809Y-98369047D01*
X81328095Y-98369047D01*
X81232857Y-98321428D01*
X81185238Y-98273809D01*
X81137619Y-98178571D01*
X81137619Y-98035714D01*
X81137619Y-99559523D02*
X82137619Y-99559523D01*
X81423333Y-99892857D01*
X82137619Y-100226190D01*
X81137619Y-100226190D01*
X81185238Y-101083333D02*
X81137619Y-100988095D01*
X81137619Y-100797619D01*
X81185238Y-100702380D01*
X81280476Y-100654761D01*
X81661428Y-100654761D01*
X81756666Y-100702380D01*
X81804285Y-100797619D01*
X81804285Y-100988095D01*
X81756666Y-101083333D01*
X81661428Y-101130952D01*
X81566190Y-101130952D01*
X81470952Y-100654761D01*
X81804285Y-101988095D02*
X80994761Y-101988095D01*
X80899523Y-101940476D01*
X80851904Y-101892857D01*
X80804285Y-101797619D01*
X80804285Y-101654761D01*
X80851904Y-101559523D01*
X81185238Y-101988095D02*
X81137619Y-101892857D01*
X81137619Y-101702380D01*
X81185238Y-101607142D01*
X81232857Y-101559523D01*
X81328095Y-101511904D01*
X81613809Y-101511904D01*
X81709047Y-101559523D01*
X81756666Y-101607142D01*
X81804285Y-101702380D01*
X81804285Y-101892857D01*
X81756666Y-101988095D01*
X81137619Y-102892857D02*
X81661428Y-102892857D01*
X81756666Y-102845238D01*
X81804285Y-102750000D01*
X81804285Y-102559523D01*
X81756666Y-102464285D01*
X81185238Y-102892857D02*
X81137619Y-102797619D01*
X81137619Y-102559523D01*
X81185238Y-102464285D01*
X81280476Y-102416666D01*
X81375714Y-102416666D01*
X81470952Y-102464285D01*
X81518571Y-102559523D01*
X81518571Y-102797619D01*
X81566190Y-102892857D01*
X81185238Y-104083333D02*
X81137619Y-104226190D01*
X81137619Y-104464285D01*
X81185238Y-104559523D01*
X81232857Y-104607142D01*
X81328095Y-104654761D01*
X81423333Y-104654761D01*
X81518571Y-104607142D01*
X81566190Y-104559523D01*
X81613809Y-104464285D01*
X81661428Y-104273809D01*
X81709047Y-104178571D01*
X81756666Y-104130952D01*
X81851904Y-104083333D01*
X81947142Y-104083333D01*
X82042380Y-104130952D01*
X82090000Y-104178571D01*
X82137619Y-104273809D01*
X82137619Y-104511904D01*
X82090000Y-104654761D01*
X81137619Y-105083333D02*
X82137619Y-105083333D01*
X81137619Y-105511904D02*
X81661428Y-105511904D01*
X81756666Y-105464285D01*
X81804285Y-105369047D01*
X81804285Y-105226190D01*
X81756666Y-105130952D01*
X81709047Y-105083333D01*
X81137619Y-105988095D02*
X81804285Y-105988095D01*
X82137619Y-105988095D02*
X82090000Y-105940476D01*
X82042380Y-105988095D01*
X82090000Y-106035714D01*
X82137619Y-105988095D01*
X82042380Y-105988095D01*
X81185238Y-106845238D02*
X81137619Y-106750000D01*
X81137619Y-106559523D01*
X81185238Y-106464285D01*
X81280476Y-106416666D01*
X81661428Y-106416666D01*
X81756666Y-106464285D01*
X81804285Y-106559523D01*
X81804285Y-106750000D01*
X81756666Y-106845238D01*
X81661428Y-106892857D01*
X81566190Y-106892857D01*
X81470952Y-106416666D01*
X81137619Y-107464285D02*
X81185238Y-107369047D01*
X81280476Y-107321428D01*
X82137619Y-107321428D01*
X81137619Y-108273809D02*
X82137619Y-108273809D01*
X81185238Y-108273809D02*
X81137619Y-108178571D01*
X81137619Y-107988095D01*
X81185238Y-107892857D01*
X81232857Y-107845238D01*
X81328095Y-107797619D01*
X81613809Y-107797619D01*
X81709047Y-107845238D01*
X81756666Y-107892857D01*
X81804285Y-107988095D01*
X81804285Y-108178571D01*
X81756666Y-108273809D01*
D20*
X95235714Y-124292500D02*
X95092857Y-124221071D01*
X94878571Y-124221071D01*
X94664285Y-124292500D01*
X94521428Y-124435357D01*
X94450000Y-124578214D01*
X94378571Y-124863928D01*
X94378571Y-125078214D01*
X94450000Y-125363928D01*
X94521428Y-125506785D01*
X94664285Y-125649642D01*
X94878571Y-125721071D01*
X95021428Y-125721071D01*
X95235714Y-125649642D01*
X95307142Y-125578214D01*
X95307142Y-125078214D01*
X95021428Y-125078214D01*
X95950000Y-125721071D02*
X95950000Y-124721071D01*
X95950000Y-125006785D02*
X96021428Y-124863928D01*
X96092857Y-124792500D01*
X96235714Y-124721071D01*
X96378571Y-124721071D01*
X97092857Y-125721071D02*
X96950000Y-125649642D01*
X96878571Y-125578214D01*
X96807142Y-125435357D01*
X96807142Y-125006785D01*
X96878571Y-124863928D01*
X96950000Y-124792500D01*
X97092857Y-124721071D01*
X97307142Y-124721071D01*
X97450000Y-124792500D01*
X97521428Y-124863928D01*
X97592857Y-125006785D01*
X97592857Y-125435357D01*
X97521428Y-125578214D01*
X97450000Y-125649642D01*
X97307142Y-125721071D01*
X97092857Y-125721071D01*
X98092857Y-124721071D02*
X98450000Y-125721071D01*
X98807142Y-124721071D01*
X99950000Y-125649642D02*
X99807142Y-125721071D01*
X99521428Y-125721071D01*
X99378571Y-125649642D01*
X99307142Y-125506785D01*
X99307142Y-124935357D01*
X99378571Y-124792500D01*
X99521428Y-124721071D01*
X99807142Y-124721071D01*
X99950000Y-124792500D01*
X100021428Y-124935357D01*
X100021428Y-125078214D01*
X99307142Y-125221071D01*
X93878571Y-128136071D02*
X93378571Y-127421785D01*
X93021428Y-128136071D02*
X93021428Y-126636071D01*
X93592857Y-126636071D01*
X93735714Y-126707500D01*
X93807142Y-126778928D01*
X93878571Y-126921785D01*
X93878571Y-127136071D01*
X93807142Y-127278928D01*
X93735714Y-127350357D01*
X93592857Y-127421785D01*
X93021428Y-127421785D01*
X94450000Y-128064642D02*
X94664285Y-128136071D01*
X95021428Y-128136071D01*
X95164285Y-128064642D01*
X95235714Y-127993214D01*
X95307142Y-127850357D01*
X95307142Y-127707500D01*
X95235714Y-127564642D01*
X95164285Y-127493214D01*
X95021428Y-127421785D01*
X94735714Y-127350357D01*
X94592857Y-127278928D01*
X94521428Y-127207500D01*
X94450000Y-127064642D01*
X94450000Y-126921785D01*
X94521428Y-126778928D01*
X94592857Y-126707500D01*
X94735714Y-126636071D01*
X95092857Y-126636071D01*
X95307142Y-126707500D01*
X95950000Y-127564642D02*
X97092857Y-127564642D01*
X98450000Y-127136071D02*
X98450000Y-128136071D01*
X98092857Y-126564642D02*
X97735714Y-127636071D01*
X98664285Y-127636071D01*
X99450000Y-127278928D02*
X99307142Y-127207500D01*
X99235714Y-127136071D01*
X99164285Y-126993214D01*
X99164285Y-126921785D01*
X99235714Y-126778928D01*
X99307142Y-126707500D01*
X99450000Y-126636071D01*
X99735714Y-126636071D01*
X99878571Y-126707500D01*
X99950000Y-126778928D01*
X100021428Y-126921785D01*
X100021428Y-126993214D01*
X99950000Y-127136071D01*
X99878571Y-127207500D01*
X99735714Y-127278928D01*
X99450000Y-127278928D01*
X99307142Y-127350357D01*
X99235714Y-127421785D01*
X99164285Y-127564642D01*
X99164285Y-127850357D01*
X99235714Y-127993214D01*
X99307142Y-128064642D01*
X99450000Y-128136071D01*
X99735714Y-128136071D01*
X99878571Y-128064642D01*
X99950000Y-127993214D01*
X100021428Y-127850357D01*
X100021428Y-127564642D01*
X99950000Y-127421785D01*
X99878571Y-127350357D01*
X99735714Y-127278928D01*
X101378571Y-126636071D02*
X100664285Y-126636071D01*
X100592857Y-127350357D01*
X100664285Y-127278928D01*
X100807142Y-127207500D01*
X101164285Y-127207500D01*
X101307142Y-127278928D01*
X101378571Y-127350357D01*
X101450000Y-127493214D01*
X101450000Y-127850357D01*
X101378571Y-127993214D01*
X101307142Y-128064642D01*
X101164285Y-128136071D01*
X100807142Y-128136071D01*
X100664285Y-128064642D01*
X100592857Y-127993214D01*
X85281314Y-156061171D02*
X85281314Y-154561171D01*
X85638457Y-154561171D01*
X85852742Y-154632600D01*
X85995599Y-154775457D01*
X86067028Y-154918314D01*
X86138457Y-155204028D01*
X86138457Y-155418314D01*
X86067028Y-155704028D01*
X85995599Y-155846885D01*
X85852742Y-155989742D01*
X85638457Y-156061171D01*
X85281314Y-156061171D01*
X87638457Y-155918314D02*
X87567028Y-155989742D01*
X87352742Y-156061171D01*
X87209885Y-156061171D01*
X86995599Y-155989742D01*
X86852742Y-155846885D01*
X86781314Y-155704028D01*
X86709885Y-155418314D01*
X86709885Y-155204028D01*
X86781314Y-154918314D01*
X86852742Y-154775457D01*
X86995599Y-154632600D01*
X87209885Y-154561171D01*
X87352742Y-154561171D01*
X87567028Y-154632600D01*
X87638457Y-154704028D01*
X88281314Y-155489742D02*
X89424171Y-155489742D01*
X90138457Y-156061171D02*
X90138457Y-154561171D01*
X90495599Y-154561171D01*
X90709885Y-154632600D01*
X90852742Y-154775457D01*
X90924171Y-154918314D01*
X90995599Y-155204028D01*
X90995599Y-155418314D01*
X90924171Y-155704028D01*
X90852742Y-155846885D01*
X90709885Y-155989742D01*
X90495599Y-156061171D01*
X90138457Y-156061171D01*
X92495599Y-155918314D02*
X92424171Y-155989742D01*
X92209885Y-156061171D01*
X92067028Y-156061171D01*
X91852742Y-155989742D01*
X91709885Y-155846885D01*
X91638457Y-155704028D01*
X91567028Y-155418314D01*
X91567028Y-155204028D01*
X91638457Y-154918314D01*
X91709885Y-154775457D01*
X91852742Y-154632600D01*
X92067028Y-154561171D01*
X92209885Y-154561171D01*
X92424171Y-154632600D01*
X92495599Y-154704028D01*
X94781314Y-155275457D02*
X94995599Y-155346885D01*
X95067028Y-155418314D01*
X95138457Y-155561171D01*
X95138457Y-155775457D01*
X95067028Y-155918314D01*
X94995599Y-155989742D01*
X94852742Y-156061171D01*
X94281314Y-156061171D01*
X94281314Y-154561171D01*
X94781314Y-154561171D01*
X94924171Y-154632600D01*
X94995599Y-154704028D01*
X95067028Y-154846885D01*
X95067028Y-154989742D01*
X94995599Y-155132600D01*
X94924171Y-155204028D01*
X94781314Y-155275457D01*
X94281314Y-155275457D01*
X96424171Y-155061171D02*
X96424171Y-156061171D01*
X95781314Y-155061171D02*
X95781314Y-155846885D01*
X95852742Y-155989742D01*
X95995599Y-156061171D01*
X96209885Y-156061171D01*
X96352742Y-155989742D01*
X96424171Y-155918314D01*
X97781314Y-155989742D02*
X97638457Y-156061171D01*
X97352742Y-156061171D01*
X97209885Y-155989742D01*
X97138457Y-155918314D01*
X97067028Y-155775457D01*
X97067028Y-155346885D01*
X97138457Y-155204028D01*
X97209885Y-155132600D01*
X97352742Y-155061171D01*
X97638457Y-155061171D01*
X97781314Y-155132600D01*
X98424171Y-156061171D02*
X98424171Y-154561171D01*
X98567028Y-155489742D02*
X98995599Y-156061171D01*
X98995599Y-155061171D02*
X98424171Y-155632600D01*
X101638457Y-155918314D02*
X101567028Y-155989742D01*
X101352742Y-156061171D01*
X101209885Y-156061171D01*
X100995599Y-155989742D01*
X100852742Y-155846885D01*
X100781314Y-155704028D01*
X100709885Y-155418314D01*
X100709885Y-155204028D01*
X100781314Y-154918314D01*
X100852742Y-154775457D01*
X100995599Y-154632600D01*
X101209885Y-154561171D01*
X101352742Y-154561171D01*
X101567028Y-154632600D01*
X101638457Y-154704028D01*
X102495599Y-156061171D02*
X102352742Y-155989742D01*
X102281314Y-155918314D01*
X102209885Y-155775457D01*
X102209885Y-155346885D01*
X102281314Y-155204028D01*
X102352742Y-155132600D01*
X102495599Y-155061171D01*
X102709885Y-155061171D01*
X102852742Y-155132600D01*
X102924171Y-155204028D01*
X102995599Y-155346885D01*
X102995599Y-155775457D01*
X102924171Y-155918314D01*
X102852742Y-155989742D01*
X102709885Y-156061171D01*
X102495599Y-156061171D01*
X103638457Y-155061171D02*
X103638457Y-156061171D01*
X103638457Y-155204028D02*
X103709885Y-155132600D01*
X103852742Y-155061171D01*
X104067028Y-155061171D01*
X104209885Y-155132600D01*
X104281314Y-155275457D01*
X104281314Y-156061171D01*
X104852742Y-155061171D02*
X105209885Y-156061171D01*
X105567028Y-155061171D01*
X106709885Y-155989742D02*
X106567028Y-156061171D01*
X106281314Y-156061171D01*
X106138457Y-155989742D01*
X106067028Y-155846885D01*
X106067028Y-155275457D01*
X106138457Y-155132600D01*
X106281314Y-155061171D01*
X106567028Y-155061171D01*
X106709885Y-155132600D01*
X106781314Y-155275457D01*
X106781314Y-155418314D01*
X106067028Y-155561171D01*
X107424171Y-156061171D02*
X107424171Y-155061171D01*
X107424171Y-155346885D02*
X107495600Y-155204028D01*
X107567028Y-155132600D01*
X107709885Y-155061171D01*
X107852742Y-155061171D01*
X108138457Y-155061171D02*
X108709885Y-155061171D01*
X108352742Y-154561171D02*
X108352742Y-155846885D01*
X108424171Y-155989742D01*
X108567028Y-156061171D01*
X108709885Y-156061171D01*
X109781314Y-155989742D02*
X109638457Y-156061171D01*
X109352742Y-156061171D01*
X109209885Y-155989742D01*
X109138457Y-155846885D01*
X109138457Y-155275457D01*
X109209885Y-155132600D01*
X109352742Y-155061171D01*
X109638457Y-155061171D01*
X109781314Y-155132600D01*
X109852742Y-155275457D01*
X109852742Y-155418314D01*
X109138457Y-155561171D01*
X110495600Y-156061171D02*
X110495600Y-155061171D01*
X110495600Y-155346885D02*
X110567028Y-155204028D01*
X110638457Y-155132600D01*
X110781314Y-155061171D01*
X110924171Y-155061171D01*
X91459885Y-161462600D02*
X91388457Y-161391171D01*
X91245600Y-161176885D01*
X91174171Y-161034028D01*
X91102742Y-160819742D01*
X91031314Y-160462600D01*
X91031314Y-160176885D01*
X91102742Y-159819742D01*
X91174171Y-159605457D01*
X91245600Y-159462600D01*
X91388457Y-159248314D01*
X91459885Y-159176885D01*
X92817028Y-160891171D02*
X91959885Y-160891171D01*
X92388457Y-160891171D02*
X92388457Y-159391171D01*
X92245600Y-159605457D01*
X92102742Y-159748314D01*
X91959885Y-159819742D01*
X93388457Y-159534028D02*
X93459885Y-159462600D01*
X93602742Y-159391171D01*
X93959885Y-159391171D01*
X94102742Y-159462600D01*
X94174171Y-159534028D01*
X94245600Y-159676885D01*
X94245600Y-159819742D01*
X94174171Y-160034028D01*
X93317028Y-160891171D01*
X94245600Y-160891171D01*
X94674171Y-159391171D02*
X95174171Y-160891171D01*
X95674171Y-159391171D01*
X97602742Y-159391171D02*
X97888457Y-159391171D01*
X98031314Y-159462600D01*
X98174171Y-159605457D01*
X98245600Y-159891171D01*
X98245600Y-160391171D01*
X98174171Y-160676885D01*
X98031314Y-160819742D01*
X97888457Y-160891171D01*
X97602742Y-160891171D01*
X97459885Y-160819742D01*
X97317028Y-160676885D01*
X97245600Y-160391171D01*
X97245600Y-159891171D01*
X97317028Y-159605457D01*
X97459885Y-159462600D01*
X97602742Y-159391171D01*
X99531314Y-159891171D02*
X99531314Y-160891171D01*
X98888457Y-159891171D02*
X98888457Y-160676885D01*
X98959885Y-160819742D01*
X99102742Y-160891171D01*
X99317028Y-160891171D01*
X99459885Y-160819742D01*
X99531314Y-160748314D01*
X100031314Y-159891171D02*
X100602742Y-159891171D01*
X100245600Y-159391171D02*
X100245600Y-160676885D01*
X100317028Y-160819742D01*
X100459885Y-160891171D01*
X100602742Y-160891171D01*
X101102742Y-159891171D02*
X101102742Y-161391171D01*
X101102742Y-159962600D02*
X101245600Y-159891171D01*
X101531314Y-159891171D01*
X101674171Y-159962600D01*
X101745600Y-160034028D01*
X101817028Y-160176885D01*
X101817028Y-160605457D01*
X101745600Y-160748314D01*
X101674171Y-160819742D01*
X101531314Y-160891171D01*
X101245600Y-160891171D01*
X101102742Y-160819742D01*
X103102742Y-159891171D02*
X103102742Y-160891171D01*
X102459885Y-159891171D02*
X102459885Y-160676885D01*
X102531314Y-160819742D01*
X102674171Y-160891171D01*
X102888457Y-160891171D01*
X103031314Y-160819742D01*
X103102742Y-160748314D01*
X103602742Y-159891171D02*
X104174171Y-159891171D01*
X103817028Y-159391171D02*
X103817028Y-160676885D01*
X103888457Y-160819742D01*
X104031314Y-160891171D01*
X104174171Y-160891171D01*
X104531314Y-161462600D02*
X104602742Y-161391171D01*
X104745600Y-161176885D01*
X104817028Y-161034028D01*
X104888457Y-160819742D01*
X104959885Y-160462600D01*
X104959885Y-160176885D01*
X104888457Y-159819742D01*
X104817028Y-159605457D01*
X104745600Y-159462600D01*
X104602742Y-159248314D01*
X104531314Y-159176885D01*
D21*
X87200000Y-106650000D02*
X87200000Y-120550000D01*
X87200000Y-93600000D02*
X87200000Y-100650000D01*
X107200000Y-106650000D02*
X107200000Y-120550000D01*
X107200000Y-93600000D02*
X107200000Y-100650000D01*
X107200000Y-106649999D02*
G75*
G02X107200000Y-100650001I0J2999999D01*
G01*
X87200000Y-100650000D02*
G75*
G02X87200000Y-106650000I0J-3000000D01*
G01*
X107200000Y-126550000D02*
X107200000Y-133670000D01*
X87200000Y-126550000D02*
X87200000Y-133670000D01*
X87200000Y-126550000D02*
G75*
G02X87200000Y-120550000I0J3000000D01*
G01*
X107200000Y-120550000D02*
G75*
G02X107200000Y-126550000I0J-3000000D01*
G01*
X87200000Y-93600000D02*
X94200000Y-93600000D01*
X100200000Y-93600000D02*
X107200000Y-93600000D01*
X94200000Y-93600000D02*
G75*
G02X100200000Y-93600000I3000000J0D01*
G01*
X87200000Y-133670000D02*
X107200000Y-133670000D01*
D22*
X76445600Y-168137600D02*
X76445600Y-147182600D01*
X119625600Y-168137600D02*
X76445600Y-168137600D01*
X119625600Y-147182600D02*
X119625600Y-168137600D01*
X76445600Y-147182600D02*
X119625600Y-147182600D01*
D10*
X113380000Y-109950000D02*
X116040000Y-109950000D01*
X113380000Y-97190000D02*
X113380000Y-109950000D01*
X116040000Y-97190000D02*
X116040000Y-109950000D01*
X113380000Y-97190000D02*
X116040000Y-97190000D01*
X113380000Y-95920000D02*
X113380000Y-94590000D01*
X113380000Y-94590000D02*
X114710000Y-94590000D01*
X79540000Y-91760000D02*
X85510000Y-91760000D01*
X85510000Y-91760000D02*
X85510000Y-79140000D01*
X85510000Y-79140000D02*
X79540000Y-79140000D01*
X79540000Y-79140000D02*
X79540000Y-91760000D01*
X79550000Y-88450000D02*
X80300000Y-88450000D01*
X80300000Y-88450000D02*
X80300000Y-82450000D01*
X80300000Y-82450000D02*
X79550000Y-82450000D01*
X79550000Y-82450000D02*
X79550000Y-88450000D01*
X79550000Y-91750000D02*
X80300000Y-91750000D01*
X80300000Y-91750000D02*
X80300000Y-89950000D01*
X80300000Y-89950000D02*
X79550000Y-89950000D01*
X79550000Y-89950000D02*
X79550000Y-91750000D01*
X79550000Y-80950000D02*
X80300000Y-80950000D01*
X80300000Y-80950000D02*
X80300000Y-79150000D01*
X80300000Y-79150000D02*
X79550000Y-79150000D01*
X79550000Y-79150000D02*
X79550000Y-80950000D01*
X81800000Y-91750000D02*
X81800000Y-91000000D01*
X81800000Y-91000000D02*
X83140000Y-91000000D01*
X84750000Y-85450000D02*
X84750000Y-89940000D01*
X81800000Y-79150000D02*
X81800000Y-79900000D01*
X81800000Y-79900000D02*
X84750000Y-79900000D01*
X84750000Y-79900000D02*
X84750000Y-85450000D01*
X79250000Y-90800000D02*
X79250000Y-92050000D01*
X79250000Y-92050000D02*
X80500000Y-92050000D01*
X117670000Y-113197550D02*
X116420000Y-113197550D01*
X117670000Y-114447550D02*
X117670000Y-113197550D01*
X112170000Y-125347550D02*
X112170000Y-119797550D01*
X115120000Y-125347550D02*
X112170000Y-125347550D01*
X115120000Y-126097550D02*
X115120000Y-125347550D01*
X112170000Y-119797550D02*
X112170000Y-115307550D01*
X115120000Y-114247550D02*
X113780000Y-114247550D01*
X115120000Y-113497550D02*
X115120000Y-114247550D01*
X117370000Y-126097550D02*
X117370000Y-124297550D01*
X116620000Y-126097550D02*
X117370000Y-126097550D01*
X116620000Y-124297550D02*
X116620000Y-126097550D01*
X117370000Y-124297550D02*
X116620000Y-124297550D01*
X117370000Y-115297550D02*
X117370000Y-113497550D01*
X116620000Y-115297550D02*
X117370000Y-115297550D01*
X116620000Y-113497550D02*
X116620000Y-115297550D01*
X117370000Y-113497550D02*
X116620000Y-113497550D01*
X117370000Y-122797550D02*
X117370000Y-116797550D01*
X116620000Y-122797550D02*
X117370000Y-122797550D01*
X116620000Y-116797550D02*
X116620000Y-122797550D01*
X117370000Y-116797550D02*
X116620000Y-116797550D01*
X117380000Y-126107550D02*
X117380000Y-113487550D01*
X111410000Y-126107550D02*
X117380000Y-126107550D01*
X111410000Y-113487550D02*
X111410000Y-126107550D01*
X117380000Y-113487550D02*
X111410000Y-113487550D01*
X92280000Y-115020000D02*
X92280000Y-116350000D01*
X90950000Y-115020000D02*
X92280000Y-115020000D01*
X89680000Y-115020000D02*
X89680000Y-117680000D01*
X89680000Y-117680000D02*
X89620000Y-117680000D01*
X89680000Y-115020000D02*
X89620000Y-115020000D01*
X89620000Y-115020000D02*
X89620000Y-117680000D01*
X92287400Y-108017000D02*
X92287400Y-109347000D01*
X90957400Y-108017000D02*
X92287400Y-108017000D01*
X89687400Y-108017000D02*
X89687400Y-110677000D01*
X89687400Y-110677000D02*
X89627400Y-110677000D01*
X89687400Y-108017000D02*
X89627400Y-108017000D01*
X89627400Y-108017000D02*
X89627400Y-110677000D01*
X92287400Y-111522200D02*
X92287400Y-112852200D01*
X90957400Y-111522200D02*
X92287400Y-111522200D01*
X89687400Y-111522200D02*
X89687400Y-114182200D01*
X89687400Y-114182200D02*
X89627400Y-114182200D01*
X89687400Y-111522200D02*
X89627400Y-111522200D01*
X89627400Y-111522200D02*
X89627400Y-114182200D01*
X67400000Y-160600000D02*
X67400000Y-161000000D01*
X68040000Y-160600000D02*
X67400000Y-160600000D01*
X71259000Y-165005000D02*
X71131000Y-164876000D01*
X73475000Y-167220000D02*
X73381000Y-167126000D01*
X71019000Y-165175000D02*
X70926000Y-165081000D01*
X73269000Y-167425000D02*
X73141000Y-167296000D01*
X75360000Y-167960000D02*
X67640000Y-167960000D01*
X75360000Y-160840000D02*
X67640000Y-160840000D01*
X67640000Y-160840000D02*
X67640000Y-167960000D01*
X75360000Y-160840000D02*
X75360000Y-167960000D01*
X69200000Y-160840000D02*
X69200000Y-167960000D01*
X68100000Y-160840000D02*
X68100000Y-167960000D01*
X73880000Y-166150000D02*
G75*
G03X73880000Y-166150000I-1680000J0D01*
G01*
X70519901Y-162678674D02*
G75*
G02X70760000Y-161784000I1680099J28674D01*
G01*
X71310106Y-161224642D02*
G75*
G02X73066000Y-161210000I889894J-1425358D01*
G01*
X73625358Y-161760106D02*
G75*
G02X73640000Y-163516000I-1425358J-889894D01*
G01*
X73090193Y-164075505D02*
G75*
G02X71309000Y-164075000I-890193J1425505D01*
G01*
X70775279Y-163540264D02*
G75*
G02X70520000Y-162650000I1424721J890264D01*
G01*
X128170000Y-168550000D02*
X128170000Y-167050000D01*
X126430000Y-168550000D02*
X128170000Y-168550000D01*
X120810000Y-160490000D02*
X127930000Y-160490000D01*
X120810000Y-168310000D02*
X127930000Y-168310000D01*
X127930000Y-168310000D02*
X127930000Y-160490000D01*
X120810000Y-168310000D02*
X120810000Y-160490000D01*
X126370000Y-168310000D02*
X126370000Y-160490000D01*
X125825000Y-162650000D02*
G75*
G03X125825000Y-162650000I-1555000J0D01*
G01*
X125825492Y-166122989D02*
G75*
G02X125702000Y-166758000I-1555492J-27011D01*
G01*
X124877742Y-167582109D02*
G75*
G02X123662000Y-167582000I-607742J1432109D01*
G01*
X122837891Y-166757742D02*
G75*
G02X122838000Y-165542000I1432109J607742D01*
G01*
X123662258Y-164717891D02*
G75*
G02X124878000Y-164718000I607742J-1432109D01*
G01*
X125701385Y-165542413D02*
G75*
G02X125825000Y-166150000I-1431385J-607587D01*
G01*
X127991700Y-78340800D02*
X127991700Y-76840800D01*
X126251700Y-78340800D02*
X127991700Y-78340800D01*
X120631700Y-70280800D02*
X127751700Y-70280800D01*
X120631700Y-78100800D02*
X127751700Y-78100800D01*
X127751700Y-78100800D02*
X127751700Y-70280800D01*
X120631700Y-78100800D02*
X120631700Y-70280800D01*
X126191700Y-78100800D02*
X126191700Y-70280800D01*
X125646700Y-72440800D02*
G75*
G03X125646700Y-72440800I-1555000J0D01*
G01*
X125647192Y-75913789D02*
G75*
G02X125523700Y-76548800I-1555492J-27011D01*
G01*
X124699442Y-77372909D02*
G75*
G02X123483700Y-77372800I-607742J1432109D01*
G01*
X122659591Y-76548542D02*
G75*
G02X122659700Y-75332800I1432109J607742D01*
G01*
X123483958Y-74508691D02*
G75*
G02X124699700Y-74508800I607742J-1432109D01*
G01*
X125523085Y-75333213D02*
G75*
G02X125646700Y-75940800I-1431385J-607587D01*
G01*
X104183500Y-86216500D02*
X104183500Y-80246500D01*
X104183500Y-80246500D02*
X91563500Y-80246500D01*
X91563500Y-80246500D02*
X91563500Y-86216500D01*
X91563500Y-86216500D02*
X104183500Y-86216500D01*
X100873500Y-86206500D02*
X100873500Y-85456500D01*
X100873500Y-85456500D02*
X94873500Y-85456500D01*
X94873500Y-85456500D02*
X94873500Y-86206500D01*
X94873500Y-86206500D02*
X100873500Y-86206500D01*
X104173500Y-86206500D02*
X104173500Y-85456500D01*
X104173500Y-85456500D02*
X102373500Y-85456500D01*
X102373500Y-85456500D02*
X102373500Y-86206500D01*
X102373500Y-86206500D02*
X104173500Y-86206500D01*
X93373500Y-86206500D02*
X93373500Y-85456500D01*
X93373500Y-85456500D02*
X91573500Y-85456500D01*
X91573500Y-85456500D02*
X91573500Y-86206500D01*
X91573500Y-86206500D02*
X93373500Y-86206500D01*
X104173500Y-83956500D02*
X103423500Y-83956500D01*
X103423500Y-83956500D02*
X103423500Y-82616500D01*
X97873500Y-81006500D02*
X102363500Y-81006500D01*
X91573500Y-83956500D02*
X92323500Y-83956500D01*
X92323500Y-83956500D02*
X92323500Y-81006500D01*
X92323500Y-81006500D02*
X97873500Y-81006500D01*
X103223500Y-86506500D02*
X104473500Y-86506500D01*
X104473500Y-86506500D02*
X104473500Y-85256500D01*
X78560000Y-120030000D02*
X83280000Y-120030000D01*
X83280000Y-120030000D02*
X83280000Y-109910000D01*
X83280000Y-109910000D02*
X78560000Y-109910000D01*
X78560000Y-109910000D02*
X78560000Y-120030000D01*
X78560000Y-118270000D02*
X78360000Y-118270000D01*
X78360000Y-118270000D02*
X78360000Y-118570000D01*
X78360000Y-118570000D02*
X78560000Y-118570000D01*
X78460000Y-118270000D02*
X78460000Y-118570000D01*
X78560000Y-117470000D02*
X79170000Y-117470000D01*
X79170000Y-117470000D02*
X79170000Y-119420000D01*
X79170000Y-119420000D02*
X82670000Y-119420000D01*
X82670000Y-119420000D02*
X82670000Y-110520000D01*
X82670000Y-110520000D02*
X79170000Y-110520000D01*
X79170000Y-110520000D02*
X79170000Y-112470000D01*
X79170000Y-112470000D02*
X78560000Y-112470000D01*
X79870000Y-120030000D02*
X79870000Y-119420000D01*
X81170000Y-120030000D02*
X81170000Y-119420000D01*
X79870000Y-109910000D02*
X79870000Y-110520000D01*
X81170000Y-109910000D02*
X81170000Y-110520000D01*
X82670000Y-117070000D02*
X82170000Y-117070000D01*
X82170000Y-117070000D02*
X82170000Y-116870000D01*
X82170000Y-116870000D02*
X82670000Y-116870000D01*
X82670000Y-116970000D02*
X82170000Y-116970000D01*
X82670000Y-115070000D02*
X82170000Y-115070000D01*
X82170000Y-115070000D02*
X82170000Y-114870000D01*
X82170000Y-114870000D02*
X82670000Y-114870000D01*
X82670000Y-114970000D02*
X82170000Y-114970000D01*
X82670000Y-113070000D02*
X82170000Y-113070000D01*
X82170000Y-113070000D02*
X82170000Y-112870000D01*
X82170000Y-112870000D02*
X82670000Y-112870000D01*
X82670000Y-112970000D02*
X82170000Y-112970000D01*
X78260000Y-119080000D02*
X78260000Y-120330000D01*
X78260000Y-120330000D02*
X79510000Y-120330000D01*
X116898600Y-167689600D02*
X119558600Y-167689600D01*
X116898600Y-167629600D02*
X116898600Y-167689600D01*
X119558600Y-167629600D02*
X119558600Y-167689600D01*
X116898600Y-167629600D02*
X119558600Y-167629600D01*
X116898600Y-166359600D02*
X116898600Y-165029600D01*
X116898600Y-165029600D02*
X118228600Y-165029600D01*
X116898600Y-149909600D02*
X119558600Y-149909600D01*
X116898600Y-149849600D02*
X116898600Y-149909600D01*
X119558600Y-149849600D02*
X119558600Y-149909600D01*
X116898600Y-149849600D02*
X119558600Y-149849600D01*
X116898600Y-148579600D02*
X116898600Y-147249600D01*
X116898600Y-147249600D02*
X118228600Y-147249600D01*
X76639600Y-167943600D02*
X79299600Y-167943600D01*
X76639600Y-167883600D02*
X76639600Y-167943600D01*
X79299600Y-167883600D02*
X79299600Y-167943600D01*
X76639600Y-167883600D02*
X79299600Y-167883600D01*
X76639600Y-166613600D02*
X76639600Y-165283600D01*
X76639600Y-165283600D02*
X77969600Y-165283600D01*
X76639600Y-149909600D02*
X79299600Y-149909600D01*
X76639600Y-149849600D02*
X76639600Y-149909600D01*
X79299600Y-149849600D02*
X79299600Y-149909600D01*
X76639600Y-149849600D02*
X79299600Y-149849600D01*
X76639600Y-148579600D02*
X76639600Y-147249600D01*
X76639600Y-147249600D02*
X77969600Y-147249600D01*
X72330000Y-127060000D02*
X74990000Y-127060000D01*
X72330000Y-109220000D02*
X72330000Y-127060000D01*
X74990000Y-109220000D02*
X74990000Y-127060000D01*
X72330000Y-109220000D02*
X74990000Y-109220000D01*
X72330000Y-107950000D02*
X72330000Y-106620000D01*
X72330000Y-106620000D02*
X73660000Y-106620000D01*
X72330000Y-153984000D02*
X74990000Y-153984000D01*
X72330000Y-131064000D02*
X72330000Y-153984000D01*
X74990000Y-131064000D02*
X74990000Y-153984000D01*
X72330000Y-131064000D02*
X74990000Y-131064000D01*
X72330000Y-129794000D02*
X72330000Y-128464000D01*
X72330000Y-128464000D02*
X73660000Y-128464000D01*
X123250000Y-125035000D02*
X120590000Y-125035000D01*
X123250000Y-142875000D02*
X123250000Y-125035000D01*
X120590000Y-142875000D02*
X120590000Y-125035000D01*
X123250000Y-142875000D02*
X120590000Y-142875000D01*
X123250000Y-144145000D02*
X123250000Y-145475000D01*
X123250000Y-145475000D02*
X121920000Y-145475000D01*
X113380000Y-145005100D02*
X116040000Y-145005100D01*
X113380000Y-132245100D02*
X113380000Y-145005100D01*
X116040000Y-132245100D02*
X116040000Y-145005100D01*
X113380000Y-132245100D02*
X116040000Y-132245100D01*
X113380000Y-130975100D02*
X113380000Y-129645100D01*
X113380000Y-129645100D02*
X114710000Y-129645100D01*
X115871000Y-79140000D02*
X109901000Y-79140000D01*
X109901000Y-79140000D02*
X109901000Y-91760000D01*
X109901000Y-91760000D02*
X115871000Y-91760000D01*
X115871000Y-91760000D02*
X115871000Y-79140000D01*
X115861000Y-82450000D02*
X115111000Y-82450000D01*
X115111000Y-82450000D02*
X115111000Y-88450000D01*
X115111000Y-88450000D02*
X115861000Y-88450000D01*
X115861000Y-88450000D02*
X115861000Y-82450000D01*
X115861000Y-79150000D02*
X115111000Y-79150000D01*
X115111000Y-79150000D02*
X115111000Y-80950000D01*
X115111000Y-80950000D02*
X115861000Y-80950000D01*
X115861000Y-80950000D02*
X115861000Y-79150000D01*
X115861000Y-89950000D02*
X115111000Y-89950000D01*
X115111000Y-89950000D02*
X115111000Y-91750000D01*
X115111000Y-91750000D02*
X115861000Y-91750000D01*
X115861000Y-91750000D02*
X115861000Y-89950000D01*
X113611000Y-79150000D02*
X113611000Y-79900000D01*
X113611000Y-79900000D02*
X112271000Y-79900000D01*
X110661000Y-85450000D02*
X110661000Y-80960000D01*
X113611000Y-91750000D02*
X113611000Y-91000000D01*
X113611000Y-91000000D02*
X110661000Y-91000000D01*
X110661000Y-91000000D02*
X110661000Y-85450000D01*
X116161000Y-80100000D02*
X116161000Y-78850000D01*
X116161000Y-78850000D02*
X114911000Y-78850000D01*
X108427200Y-143595100D02*
X108427200Y-137625100D01*
X108427200Y-137625100D02*
X95807200Y-137625100D01*
X95807200Y-137625100D02*
X95807200Y-143595100D01*
X95807200Y-143595100D02*
X108427200Y-143595100D01*
X105117200Y-143585100D02*
X105117200Y-142835100D01*
X105117200Y-142835100D02*
X99117200Y-142835100D01*
X99117200Y-142835100D02*
X99117200Y-143585100D01*
X99117200Y-143585100D02*
X105117200Y-143585100D01*
X108417200Y-143585100D02*
X108417200Y-142835100D01*
X108417200Y-142835100D02*
X106617200Y-142835100D01*
X106617200Y-142835100D02*
X106617200Y-143585100D01*
X106617200Y-143585100D02*
X108417200Y-143585100D01*
X97617200Y-143585100D02*
X97617200Y-142835100D01*
X97617200Y-142835100D02*
X95817200Y-142835100D01*
X95817200Y-142835100D02*
X95817200Y-143585100D01*
X95817200Y-143585100D02*
X97617200Y-143585100D01*
X108417200Y-141335100D02*
X107667200Y-141335100D01*
X107667200Y-141335100D02*
X107667200Y-139995100D01*
X102117200Y-138385100D02*
X106607200Y-138385100D01*
X95817200Y-141335100D02*
X96567200Y-141335100D01*
X96567200Y-141335100D02*
X96567200Y-138385100D01*
X96567200Y-138385100D02*
X102117200Y-138385100D01*
X107467200Y-143885100D02*
X108717200Y-143885100D01*
X108717200Y-143885100D02*
X108717200Y-142635100D01*
X78940000Y-145690000D02*
X84910000Y-145690000D01*
X84910000Y-145690000D02*
X84910000Y-133070000D01*
X84910000Y-133070000D02*
X78940000Y-133070000D01*
X78940000Y-133070000D02*
X78940000Y-145690000D01*
X78950000Y-142380000D02*
X79700000Y-142380000D01*
X79700000Y-142380000D02*
X79700000Y-136380000D01*
X79700000Y-136380000D02*
X78950000Y-136380000D01*
X78950000Y-136380000D02*
X78950000Y-142380000D01*
X78950000Y-145680000D02*
X79700000Y-145680000D01*
X79700000Y-145680000D02*
X79700000Y-143880000D01*
X79700000Y-143880000D02*
X78950000Y-143880000D01*
X78950000Y-143880000D02*
X78950000Y-145680000D01*
X78950000Y-134880000D02*
X79700000Y-134880000D01*
X79700000Y-134880000D02*
X79700000Y-133080000D01*
X79700000Y-133080000D02*
X78950000Y-133080000D01*
X78950000Y-133080000D02*
X78950000Y-134880000D01*
X81200000Y-145680000D02*
X81200000Y-144930000D01*
X81200000Y-144930000D02*
X82540000Y-144930000D01*
X84150000Y-139380000D02*
X84150000Y-143870000D01*
X81200000Y-133080000D02*
X81200000Y-133830000D01*
X81200000Y-133830000D02*
X84150000Y-133830000D01*
X84150000Y-133830000D02*
X84150000Y-139380000D01*
X78650000Y-144730000D02*
X78650000Y-145980000D01*
X78650000Y-145980000D02*
X79900000Y-145980000D01*
X72330000Y-104200000D02*
X74990000Y-104200000D01*
X72330000Y-86360000D02*
X72330000Y-104200000D01*
X74990000Y-86360000D02*
X74990000Y-104200000D01*
X72330000Y-86360000D02*
X74990000Y-86360000D01*
X72330000Y-85090000D02*
X72330000Y-83760000D01*
X72330000Y-83760000D02*
X73660000Y-83760000D01*
X123250000Y-79315000D02*
X120590000Y-79315000D01*
X123250000Y-97155000D02*
X123250000Y-79315000D01*
X120590000Y-97155000D02*
X120590000Y-79315000D01*
X123250000Y-97155000D02*
X120590000Y-97155000D01*
X123250000Y-98425000D02*
X123250000Y-99755000D01*
X123250000Y-99755000D02*
X121920000Y-99755000D01*
X123250000Y-102175000D02*
X120590000Y-102175000D01*
X123250000Y-120015000D02*
X123250000Y-102175000D01*
X120590000Y-120015000D02*
X120590000Y-102175000D01*
X123250000Y-120015000D02*
X120590000Y-120015000D01*
X123250000Y-121285000D02*
X123250000Y-122615000D01*
X123250000Y-122615000D02*
X121920000Y-122615000D01*
D14*
X102069409Y-166949980D02*
X102069409Y-165949980D01*
X102450361Y-165949980D01*
X102545600Y-165997600D01*
X102593219Y-166045219D01*
X102640838Y-166140457D01*
X102640838Y-166283314D01*
X102593219Y-166378552D01*
X102545600Y-166426171D01*
X102450361Y-166473790D01*
X102069409Y-166473790D01*
X102974171Y-165949980D02*
X103212266Y-166949980D01*
X103402742Y-166235695D01*
X103593219Y-166949980D01*
X103831314Y-165949980D01*
X104783695Y-166949980D02*
X104450361Y-166473790D01*
X104212266Y-166949980D02*
X104212266Y-165949980D01*
X104593219Y-165949980D01*
X104688457Y-165997600D01*
X104736076Y-166045219D01*
X104783695Y-166140457D01*
X104783695Y-166283314D01*
X104736076Y-166378552D01*
X104688457Y-166426171D01*
X104593219Y-166473790D01*
X104212266Y-166473790D01*
X104974171Y-167045219D02*
X105736076Y-167045219D01*
X106545600Y-166854742D02*
X106497980Y-166902361D01*
X106355123Y-166949980D01*
X106259885Y-166949980D01*
X106117028Y-166902361D01*
X106021790Y-166807123D01*
X105974171Y-166711885D01*
X105926552Y-166521409D01*
X105926552Y-166378552D01*
X105974171Y-166188076D01*
X106021790Y-166092838D01*
X106117028Y-165997600D01*
X106259885Y-165949980D01*
X106355123Y-165949980D01*
X106497980Y-165997600D01*
X106545600Y-166045219D01*
X107164647Y-165949980D02*
X107355123Y-165949980D01*
X107450361Y-165997600D01*
X107545600Y-166092838D01*
X107593219Y-166283314D01*
X107593219Y-166616647D01*
X107545600Y-166807123D01*
X107450361Y-166902361D01*
X107355123Y-166949980D01*
X107164647Y-166949980D01*
X107069409Y-166902361D01*
X106974171Y-166807123D01*
X106926552Y-166616647D01*
X106926552Y-166283314D01*
X106974171Y-166092838D01*
X107069409Y-165997600D01*
X107164647Y-165949980D01*
X108021790Y-166949980D02*
X108021790Y-165949980D01*
X108593219Y-166949980D01*
X108593219Y-165949980D01*
X108926552Y-165949980D02*
X109259885Y-166949980D01*
X109593219Y-165949980D01*
X109688457Y-167045219D02*
X110450361Y-167045219D01*
X110878933Y-165949980D02*
X111069409Y-165949980D01*
X111164647Y-165997600D01*
X111259885Y-166092838D01*
X111307504Y-166283314D01*
X111307504Y-166616647D01*
X111259885Y-166807123D01*
X111164647Y-166902361D01*
X111069409Y-166949980D01*
X110878933Y-166949980D01*
X110783695Y-166902361D01*
X110688457Y-166807123D01*
X110640838Y-166616647D01*
X110640838Y-166283314D01*
X110688457Y-166092838D01*
X110783695Y-165997600D01*
X110878933Y-165949980D01*
X111736076Y-165949980D02*
X111736076Y-166759504D01*
X111783695Y-166854742D01*
X111831314Y-166902361D01*
X111926552Y-166949980D01*
X112117028Y-166949980D01*
X112212266Y-166902361D01*
X112259885Y-166854742D01*
X112307504Y-166759504D01*
X112307504Y-165949980D01*
X112640838Y-165949980D02*
X113212266Y-165949980D01*
X112926552Y-166949980D02*
X112926552Y-165949980D01*
X113307504Y-167045219D02*
X114069409Y-167045219D01*
X114307504Y-166569028D02*
X115069409Y-166569028D01*
X116069409Y-166949980D02*
X115497980Y-166949980D01*
X115783695Y-166949980D02*
X115783695Y-165949980D01*
X115688457Y-166092838D01*
X115593219Y-166188076D01*
X115497980Y-166235695D01*
X102069409Y-149149980D02*
X102069409Y-148149980D01*
X102450361Y-148149980D01*
X102545600Y-148197600D01*
X102593219Y-148245219D01*
X102640838Y-148340457D01*
X102640838Y-148483314D01*
X102593219Y-148578552D01*
X102545600Y-148626171D01*
X102450361Y-148673790D01*
X102069409Y-148673790D01*
X102974171Y-148149980D02*
X103212266Y-149149980D01*
X103402742Y-148435695D01*
X103593219Y-149149980D01*
X103831314Y-148149980D01*
X104783695Y-149149980D02*
X104450361Y-148673790D01*
X104212266Y-149149980D02*
X104212266Y-148149980D01*
X104593219Y-148149980D01*
X104688457Y-148197600D01*
X104736076Y-148245219D01*
X104783695Y-148340457D01*
X104783695Y-148483314D01*
X104736076Y-148578552D01*
X104688457Y-148626171D01*
X104593219Y-148673790D01*
X104212266Y-148673790D01*
X104974171Y-149245219D02*
X105736076Y-149245219D01*
X106545600Y-149054742D02*
X106497980Y-149102361D01*
X106355123Y-149149980D01*
X106259885Y-149149980D01*
X106117028Y-149102361D01*
X106021790Y-149007123D01*
X105974171Y-148911885D01*
X105926552Y-148721409D01*
X105926552Y-148578552D01*
X105974171Y-148388076D01*
X106021790Y-148292838D01*
X106117028Y-148197600D01*
X106259885Y-148149980D01*
X106355123Y-148149980D01*
X106497980Y-148197600D01*
X106545600Y-148245219D01*
X107164647Y-148149980D02*
X107355123Y-148149980D01*
X107450361Y-148197600D01*
X107545600Y-148292838D01*
X107593219Y-148483314D01*
X107593219Y-148816647D01*
X107545600Y-149007123D01*
X107450361Y-149102361D01*
X107355123Y-149149980D01*
X107164647Y-149149980D01*
X107069409Y-149102361D01*
X106974171Y-149007123D01*
X106926552Y-148816647D01*
X106926552Y-148483314D01*
X106974171Y-148292838D01*
X107069409Y-148197600D01*
X107164647Y-148149980D01*
X108021790Y-149149980D02*
X108021790Y-148149980D01*
X108593219Y-149149980D01*
X108593219Y-148149980D01*
X108926552Y-148149980D02*
X109259885Y-149149980D01*
X109593219Y-148149980D01*
X109688457Y-149245219D02*
X110450361Y-149245219D01*
X110878933Y-148149980D02*
X111069409Y-148149980D01*
X111164647Y-148197600D01*
X111259885Y-148292838D01*
X111307504Y-148483314D01*
X111307504Y-148816647D01*
X111259885Y-149007123D01*
X111164647Y-149102361D01*
X111069409Y-149149980D01*
X110878933Y-149149980D01*
X110783695Y-149102361D01*
X110688457Y-149007123D01*
X110640838Y-148816647D01*
X110640838Y-148483314D01*
X110688457Y-148292838D01*
X110783695Y-148197600D01*
X110878933Y-148149980D01*
X111736076Y-148149980D02*
X111736076Y-148959504D01*
X111783695Y-149054742D01*
X111831314Y-149102361D01*
X111926552Y-149149980D01*
X112117028Y-149149980D01*
X112212266Y-149102361D01*
X112259885Y-149054742D01*
X112307504Y-148959504D01*
X112307504Y-148149980D01*
X112640838Y-148149980D02*
X113212266Y-148149980D01*
X112926552Y-149149980D02*
X112926552Y-148149980D01*
X113307504Y-149245219D02*
X114069409Y-149245219D01*
X114307504Y-148769028D02*
X115069409Y-148769028D01*
X114688457Y-149149980D02*
X114688457Y-148388076D01*
X116069409Y-149149980D02*
X115497980Y-149149980D01*
X115783695Y-149149980D02*
X115783695Y-148149980D01*
X115688457Y-148292838D01*
X115593219Y-148388076D01*
X115497980Y-148435695D01*
X80186076Y-167049980D02*
X80186076Y-166049980D01*
X80567028Y-166049980D01*
X80662266Y-166097600D01*
X80709885Y-166145219D01*
X80757504Y-166240457D01*
X80757504Y-166383314D01*
X80709885Y-166478552D01*
X80662266Y-166526171D01*
X80567028Y-166573790D01*
X80186076Y-166573790D01*
X81090838Y-166049980D02*
X81328933Y-167049980D01*
X81519409Y-166335695D01*
X81709885Y-167049980D01*
X81947980Y-166049980D01*
X82900361Y-167049980D02*
X82567028Y-166573790D01*
X82328933Y-167049980D02*
X82328933Y-166049980D01*
X82709885Y-166049980D01*
X82805123Y-166097600D01*
X82852742Y-166145219D01*
X82900361Y-166240457D01*
X82900361Y-166383314D01*
X82852742Y-166478552D01*
X82805123Y-166526171D01*
X82709885Y-166573790D01*
X82328933Y-166573790D01*
X83090838Y-167145219D02*
X83852742Y-167145219D01*
X84662266Y-166954742D02*
X84614647Y-167002361D01*
X84471790Y-167049980D01*
X84376552Y-167049980D01*
X84233695Y-167002361D01*
X84138457Y-166907123D01*
X84090838Y-166811885D01*
X84043219Y-166621409D01*
X84043219Y-166478552D01*
X84090838Y-166288076D01*
X84138457Y-166192838D01*
X84233695Y-166097600D01*
X84376552Y-166049980D01*
X84471790Y-166049980D01*
X84614647Y-166097600D01*
X84662266Y-166145219D01*
X85281314Y-166049980D02*
X85471790Y-166049980D01*
X85567028Y-166097600D01*
X85662266Y-166192838D01*
X85709885Y-166383314D01*
X85709885Y-166716647D01*
X85662266Y-166907123D01*
X85567028Y-167002361D01*
X85471790Y-167049980D01*
X85281314Y-167049980D01*
X85186076Y-167002361D01*
X85090838Y-166907123D01*
X85043219Y-166716647D01*
X85043219Y-166383314D01*
X85090838Y-166192838D01*
X85186076Y-166097600D01*
X85281314Y-166049980D01*
X86138457Y-167049980D02*
X86138457Y-166049980D01*
X86709885Y-167049980D01*
X86709885Y-166049980D01*
X87043219Y-166049980D02*
X87376552Y-167049980D01*
X87709885Y-166049980D01*
X87805123Y-167145219D02*
X88567028Y-167145219D01*
X88805123Y-167049980D02*
X88805123Y-166049980D01*
X89281314Y-167049980D02*
X89281314Y-166049980D01*
X89852742Y-167049980D01*
X89852742Y-166049980D01*
X90090838Y-167145219D02*
X90852742Y-167145219D01*
X91090838Y-166669028D02*
X91852742Y-166669028D01*
X92852742Y-167049980D02*
X92281314Y-167049980D01*
X92567028Y-167049980D02*
X92567028Y-166049980D01*
X92471790Y-166192838D01*
X92376552Y-166288076D01*
X92281314Y-166335695D01*
X80136076Y-148949980D02*
X80136076Y-147949980D01*
X80517028Y-147949980D01*
X80612266Y-147997600D01*
X80659885Y-148045219D01*
X80707504Y-148140457D01*
X80707504Y-148283314D01*
X80659885Y-148378552D01*
X80612266Y-148426171D01*
X80517028Y-148473790D01*
X80136076Y-148473790D01*
X81040838Y-147949980D02*
X81278933Y-148949980D01*
X81469409Y-148235695D01*
X81659885Y-148949980D01*
X81897980Y-147949980D01*
X82850361Y-148949980D02*
X82517028Y-148473790D01*
X82278933Y-148949980D02*
X82278933Y-147949980D01*
X82659885Y-147949980D01*
X82755123Y-147997600D01*
X82802742Y-148045219D01*
X82850361Y-148140457D01*
X82850361Y-148283314D01*
X82802742Y-148378552D01*
X82755123Y-148426171D01*
X82659885Y-148473790D01*
X82278933Y-148473790D01*
X83040838Y-149045219D02*
X83802742Y-149045219D01*
X84612266Y-148854742D02*
X84564647Y-148902361D01*
X84421790Y-148949980D01*
X84326552Y-148949980D01*
X84183695Y-148902361D01*
X84088457Y-148807123D01*
X84040838Y-148711885D01*
X83993219Y-148521409D01*
X83993219Y-148378552D01*
X84040838Y-148188076D01*
X84088457Y-148092838D01*
X84183695Y-147997600D01*
X84326552Y-147949980D01*
X84421790Y-147949980D01*
X84564647Y-147997600D01*
X84612266Y-148045219D01*
X85231314Y-147949980D02*
X85421790Y-147949980D01*
X85517028Y-147997600D01*
X85612266Y-148092838D01*
X85659885Y-148283314D01*
X85659885Y-148616647D01*
X85612266Y-148807123D01*
X85517028Y-148902361D01*
X85421790Y-148949980D01*
X85231314Y-148949980D01*
X85136076Y-148902361D01*
X85040838Y-148807123D01*
X84993219Y-148616647D01*
X84993219Y-148283314D01*
X85040838Y-148092838D01*
X85136076Y-147997600D01*
X85231314Y-147949980D01*
X86088457Y-148949980D02*
X86088457Y-147949980D01*
X86659885Y-148949980D01*
X86659885Y-147949980D01*
X86993219Y-147949980D02*
X87326552Y-148949980D01*
X87659885Y-147949980D01*
X87755123Y-149045219D02*
X88517028Y-149045219D01*
X88755123Y-148949980D02*
X88755123Y-147949980D01*
X89231314Y-148949980D02*
X89231314Y-147949980D01*
X89802742Y-148949980D01*
X89802742Y-147949980D01*
X90040838Y-149045219D02*
X90802742Y-149045219D01*
X91040838Y-148569028D02*
X91802742Y-148569028D01*
X91421790Y-148949980D02*
X91421790Y-148188076D01*
X92802742Y-148949980D02*
X92231314Y-148949980D01*
X92517028Y-148949980D02*
X92517028Y-147949980D01*
X92421790Y-148092838D01*
X92326552Y-148188076D01*
X92231314Y-148235695D01*
M02*
