G04 #@! TF.GenerationSoftware,KiCad,Pcbnew,5.99.0-unknown-c3175b4~86~ubuntu16.04.1*
G04 #@! TF.CreationDate,2020-08-02T18:07:16+02:00*
G04 #@! TF.ProjectId,nexus_arduino_cytron,6e657875-735f-4617-9264-75696e6f5f63,rev?*
G04 #@! TF.SameCoordinates,Original*
G04 #@! TF.FileFunction,Copper,L1,Top*
G04 #@! TF.FilePolarity,Positive*
%FSLAX46Y46*%
G04 Gerber Fmt 4.6, Leading zero omitted, Abs format (unit mm)*
G04 Created by KiCad (PCBNEW 5.99.0-unknown-c3175b4~86~ubuntu16.04.1) date 2020-08-02 18:07:16*
%MOMM*%
%LPD*%
G04 APERTURE LIST*
%ADD10C,3.800000*%
%ADD11O,1.700000X1.700000*%
%ADD12R,1.700000X1.700000*%
%ADD13O,1.950000X1.700000*%
%ADD14C,0.100000*%
%ADD15C,1.700000*%
%ADD16C,2.400000*%
%ADD17R,2.400000X2.400000*%
%ADD18O,1.700000X1.950000*%
%ADD19O,1.750000X1.200000*%
%ADD20C,1.200000*%
%ADD21C,0.800000*%
%ADD22C,0.250000*%
%ADD23C,1.000000*%
%ADD24C,0.254000*%
G04 APERTURE END LIST*
D10*
X107150000Y-123550000D03*
X87200000Y-123600000D03*
X97200000Y-93600000D03*
D11*
X114710000Y-108620000D03*
X114710000Y-106080000D03*
X114710000Y-103540000D03*
X114710000Y-101000000D03*
X114710000Y-98460000D03*
D12*
X114710000Y-95920000D03*
D13*
X82000000Y-81700000D03*
X82000000Y-84200000D03*
X82000000Y-86700000D03*
D14*
G36*
X82820671Y-88369030D02*
G01*
X82901777Y-88423223D01*
X82955970Y-88504329D01*
X82975000Y-88600000D01*
X82975000Y-89800000D01*
X82955970Y-89895671D01*
X82901777Y-89976777D01*
X82820671Y-90030970D01*
X82725000Y-90050000D01*
X81275000Y-90050000D01*
X81179329Y-90030970D01*
X81098223Y-89976777D01*
X81044030Y-89895671D01*
X81025000Y-89800000D01*
X81025000Y-88600000D01*
X81044030Y-88504329D01*
X81098223Y-88423223D01*
X81179329Y-88369030D01*
X81275000Y-88350000D01*
X82725000Y-88350000D01*
X82820671Y-88369030D01*
X82820671Y-88369030D01*
G37*
D15*
X82000000Y-89200000D03*
D13*
X114920000Y-123547550D03*
X114920000Y-121047550D03*
X114920000Y-118547550D03*
D14*
G36*
X115740671Y-115216580D02*
G01*
X115821777Y-115270773D01*
X115875970Y-115351879D01*
X115895000Y-115447550D01*
X115895000Y-116647550D01*
X115875970Y-116743221D01*
X115821777Y-116824327D01*
X115740671Y-116878520D01*
X115645000Y-116897550D01*
X114195000Y-116897550D01*
X114099329Y-116878520D01*
X114018223Y-116824327D01*
X113964030Y-116743221D01*
X113945000Y-116647550D01*
X113945000Y-115447550D01*
X113964030Y-115351879D01*
X114018223Y-115270773D01*
X114099329Y-115216580D01*
X114195000Y-115197550D01*
X115645000Y-115197550D01*
X115740671Y-115216580D01*
X115740671Y-115216580D01*
G37*
D15*
X114920000Y-116047550D03*
D12*
X90950000Y-116350000D03*
X90957400Y-109347000D03*
X90957400Y-112852200D03*
D16*
X72200000Y-166150000D03*
D17*
X72200000Y-162650000D03*
D16*
X124270000Y-162650000D03*
D17*
X124270000Y-166150000D03*
D16*
X124091700Y-72440800D03*
D17*
X124091700Y-75940800D03*
D18*
X94123500Y-83756500D03*
X96623500Y-83756500D03*
X99123500Y-83756500D03*
D14*
G36*
X102319171Y-82800530D02*
G01*
X102400277Y-82854723D01*
X102454470Y-82935829D01*
X102473500Y-83031500D01*
X102473500Y-84481500D01*
X102454470Y-84577171D01*
X102400277Y-84658277D01*
X102319171Y-84712470D01*
X102223500Y-84731500D01*
X101023500Y-84731500D01*
X100927829Y-84712470D01*
X100846723Y-84658277D01*
X100792530Y-84577171D01*
X100773500Y-84481500D01*
X100773500Y-83031500D01*
X100792530Y-82935829D01*
X100846723Y-82854723D01*
X100927829Y-82800530D01*
X101023500Y-82781500D01*
X102223500Y-82781500D01*
X102319171Y-82800530D01*
X102319171Y-82800530D01*
G37*
D15*
X101623500Y-83756500D03*
D19*
X80370000Y-111970000D03*
X80370000Y-113970000D03*
X80370000Y-115970000D03*
D14*
G36*
X81090671Y-117389030D02*
G01*
X81171777Y-117443223D01*
X81225970Y-117524329D01*
X81245000Y-117619999D01*
X81245000Y-118320001D01*
X81225970Y-118415671D01*
X81171777Y-118496777D01*
X81090671Y-118550970D01*
X80995001Y-118570000D01*
X79744999Y-118570000D01*
X79649329Y-118550970D01*
X79568223Y-118496777D01*
X79514030Y-118415671D01*
X79495000Y-118320001D01*
X79495000Y-117619999D01*
X79514030Y-117524329D01*
X79568223Y-117443223D01*
X79649329Y-117389030D01*
X79744999Y-117370000D01*
X80995001Y-117370000D01*
X81090671Y-117389030D01*
X81090671Y-117389030D01*
G37*
D20*
X80370000Y-117970000D03*
D12*
X118228600Y-166359600D03*
X118228600Y-148579600D03*
X77969600Y-166613600D03*
X77969600Y-148579600D03*
D11*
X73660000Y-125730000D03*
X73660000Y-123190000D03*
X73660000Y-120650000D03*
X73660000Y-118110000D03*
X73660000Y-115570000D03*
X73660000Y-113030000D03*
X73660000Y-110490000D03*
D12*
X73660000Y-107950000D03*
D11*
X73660000Y-152654000D03*
X73660000Y-150114000D03*
X73660000Y-147574000D03*
X73660000Y-145034000D03*
X73660000Y-142494000D03*
X73660000Y-139954000D03*
X73660000Y-137414000D03*
X73660000Y-134874000D03*
X73660000Y-132334000D03*
D12*
X73660000Y-129794000D03*
D11*
X121920000Y-126365000D03*
X121920000Y-128905000D03*
X121920000Y-131445000D03*
X121920000Y-133985000D03*
X121920000Y-136525000D03*
X121920000Y-139065000D03*
X121920000Y-141605000D03*
D12*
X121920000Y-144145000D03*
D11*
X114710000Y-143675100D03*
X114710000Y-141135100D03*
X114710000Y-138595100D03*
X114710000Y-136055100D03*
X114710000Y-133515100D03*
D12*
X114710000Y-130975100D03*
D13*
X113411000Y-89200000D03*
X113411000Y-86700000D03*
X113411000Y-84200000D03*
D14*
G36*
X114231671Y-80869030D02*
G01*
X114312777Y-80923223D01*
X114366970Y-81004329D01*
X114386000Y-81100000D01*
X114386000Y-82300000D01*
X114366970Y-82395671D01*
X114312777Y-82476777D01*
X114231671Y-82530970D01*
X114136000Y-82550000D01*
X112686000Y-82550000D01*
X112590329Y-82530970D01*
X112509223Y-82476777D01*
X112455030Y-82395671D01*
X112436000Y-82300000D01*
X112436000Y-81100000D01*
X112455030Y-81004329D01*
X112509223Y-80923223D01*
X112590329Y-80869030D01*
X112686000Y-80850000D01*
X114136000Y-80850000D01*
X114231671Y-80869030D01*
X114231671Y-80869030D01*
G37*
D15*
X113411000Y-81700000D03*
D18*
X98367200Y-141135100D03*
X100867200Y-141135100D03*
X103367200Y-141135100D03*
D14*
G36*
X106562871Y-140179130D02*
G01*
X106643977Y-140233323D01*
X106698170Y-140314429D01*
X106717200Y-140410100D01*
X106717200Y-141860100D01*
X106698170Y-141955771D01*
X106643977Y-142036877D01*
X106562871Y-142091070D01*
X106467200Y-142110100D01*
X105267200Y-142110100D01*
X105171529Y-142091070D01*
X105090423Y-142036877D01*
X105036230Y-141955771D01*
X105017200Y-141860100D01*
X105017200Y-140410100D01*
X105036230Y-140314429D01*
X105090423Y-140233323D01*
X105171529Y-140179130D01*
X105267200Y-140160100D01*
X106467200Y-140160100D01*
X106562871Y-140179130D01*
X106562871Y-140179130D01*
G37*
D15*
X105867200Y-141135100D03*
D13*
X81400000Y-135630000D03*
X81400000Y-138130000D03*
X81400000Y-140630000D03*
D14*
G36*
X82220671Y-142299030D02*
G01*
X82301777Y-142353223D01*
X82355970Y-142434329D01*
X82375000Y-142530000D01*
X82375000Y-143730000D01*
X82355970Y-143825671D01*
X82301777Y-143906777D01*
X82220671Y-143960970D01*
X82125000Y-143980000D01*
X80675000Y-143980000D01*
X80579329Y-143960970D01*
X80498223Y-143906777D01*
X80444030Y-143825671D01*
X80425000Y-143730000D01*
X80425000Y-142530000D01*
X80444030Y-142434329D01*
X80498223Y-142353223D01*
X80579329Y-142299030D01*
X80675000Y-142280000D01*
X82125000Y-142280000D01*
X82220671Y-142299030D01*
X82220671Y-142299030D01*
G37*
D15*
X81400000Y-143130000D03*
D11*
X73660000Y-102870000D03*
X73660000Y-100330000D03*
X73660000Y-97790000D03*
X73660000Y-95250000D03*
X73660000Y-92710000D03*
X73660000Y-90170000D03*
X73660000Y-87630000D03*
D12*
X73660000Y-85090000D03*
D11*
X121920000Y-80645000D03*
X121920000Y-83185000D03*
X121920000Y-85725000D03*
X121920000Y-88265000D03*
X121920000Y-90805000D03*
X121920000Y-93345000D03*
X121920000Y-95885000D03*
D12*
X121920000Y-98425000D03*
D11*
X121920000Y-103505000D03*
X121920000Y-106045000D03*
X121920000Y-108585000D03*
X121920000Y-111125000D03*
X121920000Y-113665000D03*
X121920000Y-116205000D03*
X121920000Y-118745000D03*
D12*
X121920000Y-121285000D03*
D21*
X104876600Y-135128000D03*
X100220000Y-117750000D03*
D22*
X103720900Y-133972300D02*
X104876600Y-135128000D01*
X103657400Y-133972300D02*
X103720900Y-133972300D01*
X103251000Y-133972300D02*
X103657400Y-133972300D01*
X79641700Y-133972300D02*
X103251000Y-133972300D01*
X73660000Y-139954000D02*
X79641700Y-133972300D01*
X95745300Y-91274900D02*
X116370100Y-91274900D01*
X116370100Y-91274900D02*
X121920000Y-85725000D01*
X95059500Y-91960700D02*
X95745300Y-91274900D01*
X82267110Y-91960700D02*
X95059500Y-91960700D01*
X80429100Y-90122690D02*
X82267110Y-91960700D01*
X80429100Y-85645900D02*
X80429100Y-90122690D01*
X82000000Y-84200000D02*
X81875000Y-84200000D01*
X81875000Y-84200000D02*
X80429100Y-85645900D01*
X101560000Y-131600000D02*
X101158100Y-131600000D01*
X101158100Y-131600000D02*
X79530000Y-131600000D01*
X114710000Y-143675100D02*
X102634900Y-131600000D01*
X102634900Y-131600000D02*
X101158100Y-131600000D01*
X101614600Y-129500000D02*
X79970000Y-129500000D01*
X114710000Y-141135100D02*
X113507919Y-141135100D01*
X113507919Y-141135100D02*
X101872819Y-129500000D01*
X101872819Y-129500000D02*
X101614600Y-129500000D01*
X102892950Y-113222950D02*
X74760000Y-85090000D01*
X114960399Y-113664999D02*
X114518350Y-113222950D01*
X114518350Y-113222950D02*
X102892950Y-113222950D01*
X114964999Y-113664999D02*
X114960399Y-113664999D01*
X104577550Y-118547550D02*
X104559100Y-118529100D01*
X104559100Y-118529100D02*
X73660000Y-87630000D01*
X114920000Y-118547550D02*
X104577550Y-118547550D01*
X114920000Y-121047550D02*
X115045000Y-121047550D01*
X115045000Y-121047550D02*
X116220010Y-119872540D01*
X116220010Y-119872540D02*
X116220010Y-114920010D01*
X114710000Y-133515100D02*
X113507919Y-133515100D01*
X113507919Y-133515100D02*
X100770000Y-120777181D01*
X100770000Y-120777181D02*
X100770000Y-120650000D01*
D23*
X123330001Y-145695001D02*
X119342501Y-145695001D01*
X118160800Y-142045900D02*
X114710000Y-138595100D01*
X119342501Y-145695001D02*
X118160800Y-144513300D01*
X118160800Y-144513300D02*
X118160800Y-142045900D01*
X119697500Y-133985000D02*
X117627400Y-136055100D01*
X117627400Y-136055100D02*
X114710000Y-136055100D01*
X121920000Y-133985000D02*
X119697500Y-133985000D01*
X101612600Y-139255500D02*
X84749500Y-139255500D01*
X84749500Y-139255500D02*
X83375000Y-140630000D01*
X83375000Y-140630000D02*
X81400000Y-140630000D01*
X103367200Y-141135100D02*
X103367200Y-141010100D01*
X103367200Y-141010100D02*
X101612600Y-139255500D01*
X103032290Y-144945010D02*
X105867200Y-142110100D01*
X85539012Y-144945010D02*
X103032290Y-144945010D01*
X83724002Y-143130000D02*
X85539012Y-144945010D01*
X81400000Y-143130000D02*
X83724002Y-143130000D01*
X105867200Y-142110100D02*
X105867200Y-141135100D01*
X124270000Y-166150000D02*
X118438200Y-166150000D01*
X118438200Y-166150000D02*
X118228600Y-166359600D01*
X124270000Y-162650000D02*
X124270000Y-160933200D01*
X124270000Y-160933200D02*
X124325600Y-160877600D01*
X72200000Y-162650000D02*
X72200000Y-158733200D01*
X72200000Y-158733200D02*
X77969600Y-152963600D01*
X77969600Y-152963600D02*
X77969600Y-150429600D01*
X77969600Y-150429600D02*
X77969600Y-148579600D01*
X72200000Y-166150000D02*
X77506000Y-166150000D01*
X77506000Y-166150000D02*
X77969600Y-166613600D01*
D22*
X79970000Y-129500000D02*
X73660000Y-123190000D01*
X79530000Y-131600000D02*
X73660000Y-125730000D01*
D23*
X118228600Y-154780600D02*
X118228600Y-148579600D01*
X124325600Y-160877600D02*
X118228600Y-154780600D01*
D22*
X75811000Y-142494000D02*
X73660000Y-142494000D01*
X80175000Y-138130000D02*
X75811000Y-142494000D01*
X81400000Y-138130000D02*
X80175000Y-138130000D01*
X79723002Y-135630000D02*
X74153002Y-141200000D01*
X81400000Y-135630000D02*
X79723002Y-135630000D01*
X72484999Y-116745001D02*
X72810001Y-116419999D01*
X72484999Y-140518001D02*
X72484999Y-116745001D01*
X72810001Y-116419999D02*
X73660000Y-115570000D01*
X73166998Y-141200000D02*
X72484999Y-140518001D01*
X74153002Y-141200000D02*
X73166998Y-141200000D01*
X73660000Y-91909002D02*
X72200000Y-90449002D01*
X73660000Y-92710000D02*
X73660000Y-91909002D01*
X72200000Y-84264998D02*
X76784998Y-79680000D01*
X72200000Y-90449002D02*
X72200000Y-84264998D01*
X112186000Y-89200000D02*
X113411000Y-89200000D01*
X102666000Y-79680000D02*
X112186000Y-89200000D01*
X76784998Y-79680000D02*
X102666000Y-79680000D01*
X118405000Y-86700000D02*
X121920000Y-83185000D01*
X113411000Y-86700000D02*
X118405000Y-86700000D01*
X80370000Y-101960000D02*
X73660000Y-95250000D01*
X80370000Y-111970000D02*
X80370000Y-101960000D01*
X79169990Y-113894990D02*
X79245000Y-113970000D01*
X79169990Y-111174988D02*
X79169990Y-113894990D01*
X72484999Y-104489997D02*
X79169990Y-111174988D01*
X79245000Y-113970000D02*
X80370000Y-113970000D01*
X72484999Y-98965001D02*
X72484999Y-104489997D01*
X73660000Y-97790000D02*
X72484999Y-98965001D01*
X73660000Y-118110000D02*
X74509999Y-118959999D01*
X73660000Y-120650000D02*
X100770000Y-120650000D01*
X100220000Y-117750000D02*
X97644999Y-115174999D01*
X97644999Y-115174999D02*
X90989997Y-115174999D01*
X80820010Y-97330010D02*
X73660000Y-90170000D01*
X90989997Y-115174999D02*
X80820010Y-105005012D01*
X80820010Y-105005012D02*
X80820010Y-97330010D01*
D23*
X117045019Y-103335019D02*
X117045019Y-129245019D01*
X114710000Y-101000000D02*
X117045019Y-103335019D01*
X117180019Y-129245019D02*
X117045019Y-129245019D01*
X121920000Y-133985000D02*
X117180019Y-129245019D01*
X79425000Y-140630000D02*
X81400000Y-140630000D01*
X79266081Y-140630000D02*
X79425000Y-140630000D01*
X74862081Y-145034000D02*
X79266081Y-140630000D01*
X73660000Y-145034000D02*
X74862081Y-145034000D01*
X122769999Y-132294999D02*
X121920000Y-131445000D01*
X123470001Y-132995001D02*
X122769999Y-132294999D01*
X123470001Y-145555001D02*
X123470001Y-132995001D01*
X123330001Y-145695001D02*
X123470001Y-145555001D01*
X121920000Y-131445000D02*
X121920000Y-128905000D01*
X121920000Y-128905000D02*
X123470001Y-127354999D01*
X115386000Y-84200000D02*
X113411000Y-84200000D01*
X121412000Y-78174000D02*
X115386000Y-84200000D01*
X121294999Y-100760001D02*
X123470001Y-100760001D01*
X116260001Y-95725003D02*
X121294999Y-100760001D01*
X116260001Y-94509999D02*
X116260001Y-95725003D01*
X114419998Y-93250000D02*
X115000002Y-93250000D01*
X113159999Y-94509999D02*
X114419998Y-93250000D01*
X115000002Y-93250000D02*
X116260001Y-94509999D01*
X113159999Y-101989999D02*
X113159999Y-94509999D01*
X114710000Y-103540000D02*
X113159999Y-101989999D01*
X123470001Y-127354999D02*
X123470001Y-100760001D01*
X98155000Y-86700000D02*
X99123500Y-85731500D01*
X99123500Y-85731500D02*
X99123500Y-83756500D01*
X82000000Y-86700000D02*
X98155000Y-86700000D01*
X89330000Y-117970000D02*
X90950000Y-116350000D01*
X80370000Y-117970000D02*
X89330000Y-117970000D01*
D22*
X73660000Y-125730000D02*
X74509999Y-126579999D01*
X74760000Y-85090000D02*
X73660000Y-85090000D01*
X116220010Y-114920010D02*
X114964999Y-113664999D01*
D23*
X124270000Y-166150000D02*
X126170001Y-164249999D01*
X126320000Y-164189998D02*
X126320000Y-160250000D01*
X123330001Y-157260001D02*
X123330001Y-145695001D01*
X126320000Y-160250000D02*
X123330001Y-157260001D01*
X123470001Y-76562499D02*
X124091700Y-75940800D01*
X123470001Y-100760001D02*
X123470001Y-76562499D01*
X121412000Y-76420500D02*
X121412000Y-78174000D01*
X121891700Y-75940800D02*
X121412000Y-76420500D01*
X124091700Y-75940800D02*
X121891700Y-75940800D01*
D24*
G36*
X127547101Y-78179323D02*
G01*
X124093307Y-80914069D01*
X124044874Y-80944628D01*
X123992183Y-81004288D01*
X123937435Y-81062027D01*
X123932220Y-81072185D01*
X123924657Y-81080748D01*
X123890825Y-81152808D01*
X123854487Y-81223583D01*
X123852333Y-81234792D01*
X123847311Y-81245489D01*
X123836932Y-81314943D01*
X123820218Y-81401921D01*
X123826000Y-81462835D01*
X123826001Y-157257825D01*
X123819526Y-157306636D01*
X123832848Y-157393256D01*
X123845240Y-157479783D01*
X123846620Y-157482816D01*
X123847127Y-157486119D01*
X123884197Y-157565456D01*
X123920403Y-157645087D01*
X123922591Y-157647627D01*
X123924176Y-157651018D01*
X123965093Y-157696953D01*
X124038947Y-157782664D01*
X124083545Y-157811571D01*
X127547101Y-160697946D01*
X127547100Y-170816000D01*
X68034000Y-170816000D01*
X68034000Y-161438976D01*
X70358163Y-161438976D01*
X70358163Y-163866588D01*
X70438795Y-164167512D01*
X70586185Y-164343165D01*
X70779814Y-164454956D01*
X70988976Y-164491837D01*
X71412558Y-164491837D01*
X71353513Y-164516961D01*
X71116238Y-164663791D01*
X70903903Y-164844823D01*
X70721393Y-165055889D01*
X70572911Y-165292134D01*
X70461871Y-165548118D01*
X70390828Y-165817955D01*
X70361420Y-166095432D01*
X70374321Y-166374165D01*
X70429234Y-166647740D01*
X70524897Y-166909861D01*
X70659109Y-167154495D01*
X70828779Y-167376013D01*
X71030003Y-167569318D01*
X71258153Y-167729963D01*
X71507977Y-167854248D01*
X71773725Y-167939314D01*
X72049283Y-167983205D01*
X72328310Y-167984909D01*
X72604383Y-167944388D01*
X72871150Y-167862575D01*
X73122474Y-167741351D01*
X73352569Y-167583506D01*
X73556140Y-167392674D01*
X73641505Y-167284000D01*
X76477763Y-167284000D01*
X76477763Y-167480188D01*
X76558395Y-167781112D01*
X76705785Y-167956765D01*
X76899414Y-168068556D01*
X77108576Y-168105437D01*
X78836188Y-168105437D01*
X79137112Y-168024805D01*
X79312765Y-167877415D01*
X79424556Y-167683786D01*
X79461437Y-167474624D01*
X79461437Y-166487600D01*
X116736763Y-166487600D01*
X116736763Y-167226188D01*
X116817395Y-167527112D01*
X116964785Y-167702765D01*
X117158414Y-167814556D01*
X117367576Y-167851437D01*
X118100600Y-167851437D01*
X118100600Y-166487600D01*
X118356600Y-166487600D01*
X118356600Y-167851437D01*
X119095188Y-167851437D01*
X119396112Y-167770805D01*
X119571765Y-167623415D01*
X119683556Y-167429786D01*
X119720437Y-167220624D01*
X119720437Y-166487600D01*
X118356600Y-166487600D01*
X118100600Y-166487600D01*
X116736763Y-166487600D01*
X79461437Y-166487600D01*
X79461437Y-166278000D01*
X122428163Y-166278000D01*
X122428163Y-167366588D01*
X122508795Y-167667512D01*
X122656185Y-167843165D01*
X122849814Y-167954956D01*
X123058976Y-167991837D01*
X124142000Y-167991837D01*
X124142000Y-166278000D01*
X124398000Y-166278000D01*
X124398000Y-167991837D01*
X125486588Y-167991837D01*
X125787512Y-167911205D01*
X125963165Y-167763815D01*
X126074956Y-167570186D01*
X126111837Y-167361024D01*
X126111837Y-166278000D01*
X124398000Y-166278000D01*
X124142000Y-166278000D01*
X122428163Y-166278000D01*
X79461437Y-166278000D01*
X79461437Y-165747012D01*
X79394869Y-165498576D01*
X116736763Y-165498576D01*
X116736763Y-166231600D01*
X118100600Y-166231600D01*
X118100600Y-164867763D01*
X118356600Y-164867763D01*
X118356600Y-166231600D01*
X119720437Y-166231600D01*
X119720437Y-165493012D01*
X119639805Y-165192089D01*
X119492415Y-165016435D01*
X119298786Y-164904644D01*
X119089624Y-164867763D01*
X118356600Y-164867763D01*
X118100600Y-164867763D01*
X117362012Y-164867763D01*
X117061089Y-164948395D01*
X116885435Y-165095785D01*
X116773644Y-165289414D01*
X116736763Y-165498576D01*
X79394869Y-165498576D01*
X79380805Y-165446089D01*
X79233415Y-165270435D01*
X79039786Y-165158644D01*
X78830624Y-165121763D01*
X77990648Y-165121763D01*
X77945614Y-165104205D01*
X77847600Y-165059950D01*
X77818071Y-165054478D01*
X77789772Y-165043445D01*
X77691693Y-165031055D01*
X77577726Y-165009932D01*
X77472497Y-165016000D01*
X73645530Y-165016000D01*
X73627453Y-164989942D01*
X73435556Y-164787371D01*
X73215227Y-164616159D01*
X72992322Y-164491837D01*
X73416588Y-164491837D01*
X73717512Y-164411205D01*
X73893165Y-164263815D01*
X74004956Y-164070186D01*
X74041837Y-163861024D01*
X74041837Y-161433412D01*
X73961205Y-161132489D01*
X73813815Y-160956835D01*
X73620186Y-160845044D01*
X73411024Y-160808163D01*
X73334000Y-160808163D01*
X73334000Y-159202917D01*
X78743648Y-153793269D01*
X78818510Y-153727962D01*
X78880346Y-153639979D01*
X78946703Y-153555353D01*
X78959064Y-153527976D01*
X78976332Y-153503406D01*
X79015390Y-153403226D01*
X79059650Y-153305200D01*
X79065122Y-153275671D01*
X79076155Y-153247372D01*
X79088545Y-153149294D01*
X79109668Y-153035327D01*
X79103600Y-152930093D01*
X79103600Y-149999785D01*
X79137112Y-149990805D01*
X79312765Y-149843415D01*
X79424556Y-149649786D01*
X79461437Y-149440624D01*
X79461437Y-147718576D01*
X116736763Y-147718576D01*
X116736763Y-149446188D01*
X116817395Y-149747112D01*
X116964785Y-149922765D01*
X117094601Y-149997713D01*
X117094600Y-154741292D01*
X117087845Y-154840384D01*
X117106331Y-154946304D01*
X117119251Y-155053081D01*
X117129871Y-155081186D01*
X117135034Y-155110766D01*
X117178251Y-155209221D01*
X117216270Y-155309832D01*
X117233283Y-155334587D01*
X117245490Y-155362395D01*
X117306081Y-155440509D01*
X117371732Y-155536031D01*
X117450451Y-155606168D01*
X123090067Y-161245784D01*
X122973903Y-161344823D01*
X122791393Y-161555889D01*
X122642911Y-161792134D01*
X122531871Y-162048118D01*
X122460828Y-162317955D01*
X122431420Y-162595432D01*
X122444321Y-162874165D01*
X122499234Y-163147740D01*
X122594897Y-163409861D01*
X122729109Y-163654495D01*
X122898779Y-163876013D01*
X123100003Y-164069318D01*
X123328153Y-164229963D01*
X123485342Y-164308163D01*
X123053412Y-164308163D01*
X122752489Y-164388795D01*
X122576835Y-164536185D01*
X122465044Y-164729814D01*
X122428163Y-164938976D01*
X122428163Y-166022000D01*
X126111837Y-166022000D01*
X126111837Y-164933412D01*
X126031205Y-164632489D01*
X125883815Y-164456835D01*
X125690186Y-164345044D01*
X125481024Y-164308163D01*
X125053958Y-164308163D01*
X125192474Y-164241351D01*
X125422569Y-164083506D01*
X125626140Y-163892674D01*
X125798504Y-163673245D01*
X125935694Y-163430269D01*
X126034553Y-163169336D01*
X126093186Y-162894666D01*
X126104487Y-162513890D01*
X126062246Y-162236227D01*
X125979037Y-161969891D01*
X125856499Y-161719207D01*
X125697452Y-161489941D01*
X125505556Y-161287371D01*
X125415924Y-161217720D01*
X125427656Y-161154416D01*
X125447688Y-161091649D01*
X125452574Y-161019974D01*
X125465668Y-160949326D01*
X125461874Y-160883542D01*
X125466355Y-160817816D01*
X125454004Y-160747041D01*
X125449867Y-160675312D01*
X125430496Y-160612344D01*
X125419166Y-160547431D01*
X125390287Y-160481644D01*
X125369162Y-160412976D01*
X125335328Y-160356444D01*
X125308709Y-160295804D01*
X125266361Y-160241207D01*
X125228211Y-160177464D01*
X125175957Y-160124659D01*
X125174500Y-160122781D01*
X125136047Y-160084329D01*
X125035152Y-159982371D01*
X125032406Y-159980688D01*
X119362600Y-154310884D01*
X119362600Y-149999785D01*
X119396112Y-149990805D01*
X119571765Y-149843415D01*
X119683556Y-149649786D01*
X119720437Y-149440624D01*
X119720437Y-147713012D01*
X119639805Y-147412089D01*
X119492415Y-147236435D01*
X119298786Y-147124644D01*
X119089624Y-147087763D01*
X117362012Y-147087763D01*
X117061089Y-147168395D01*
X116885435Y-147315785D01*
X116773644Y-147509414D01*
X116736763Y-147718576D01*
X79461437Y-147718576D01*
X79461437Y-147713012D01*
X79380805Y-147412089D01*
X79233415Y-147236435D01*
X79039786Y-147124644D01*
X78830624Y-147087763D01*
X77103012Y-147087763D01*
X76802089Y-147168395D01*
X76626435Y-147315785D01*
X76514644Y-147509414D01*
X76477763Y-147718576D01*
X76477763Y-149446188D01*
X76558395Y-149747112D01*
X76705785Y-149922765D01*
X76835600Y-149997713D01*
X76835600Y-150498619D01*
X76835601Y-150498627D01*
X76835600Y-152493883D01*
X71425953Y-157903531D01*
X71351091Y-157968837D01*
X71289264Y-158056807D01*
X71222899Y-158141446D01*
X71210537Y-158168824D01*
X71193268Y-158193396D01*
X71154209Y-158293577D01*
X71109950Y-158391600D01*
X71104477Y-158421136D01*
X71093446Y-158449428D01*
X71081058Y-158547491D01*
X71059932Y-158661474D01*
X71066001Y-158766720D01*
X71066000Y-160808163D01*
X70983412Y-160808163D01*
X70682489Y-160888795D01*
X70506835Y-161036185D01*
X70395044Y-161229814D01*
X70358163Y-161438976D01*
X68034000Y-161438976D01*
X68034000Y-160696949D01*
X71493484Y-157814046D01*
X71535126Y-157787772D01*
X71593085Y-157722146D01*
X71651672Y-157657181D01*
X71653124Y-157654168D01*
X71655338Y-157651662D01*
X71692543Y-157572416D01*
X71730541Y-157493619D01*
X71731092Y-157490308D01*
X71732689Y-157486906D01*
X71741790Y-157426017D01*
X71760345Y-157314469D01*
X71754000Y-157261695D01*
X71754000Y-145162000D01*
X72170513Y-145162000D01*
X72233456Y-145461983D01*
X72325961Y-145696222D01*
X72456610Y-145911526D01*
X72621669Y-146101739D01*
X72816416Y-146261422D01*
X72890061Y-146303343D01*
X72726760Y-146413284D01*
X72544534Y-146587119D01*
X72394203Y-146789172D01*
X72280064Y-147013666D01*
X72205382Y-147254181D01*
X72172292Y-147503841D01*
X72181740Y-147755508D01*
X72233456Y-148001983D01*
X72325961Y-148236222D01*
X72456610Y-148451526D01*
X72621669Y-148641739D01*
X72816416Y-148801422D01*
X72890061Y-148843343D01*
X72726760Y-148953284D01*
X72544534Y-149127119D01*
X72394203Y-149329172D01*
X72280064Y-149553666D01*
X72205382Y-149794181D01*
X72172292Y-150043841D01*
X72181740Y-150295508D01*
X72233456Y-150541983D01*
X72325961Y-150776222D01*
X72456610Y-150991526D01*
X72621669Y-151181739D01*
X72816416Y-151341422D01*
X72890061Y-151383343D01*
X72726760Y-151493284D01*
X72544534Y-151667119D01*
X72394203Y-151869172D01*
X72280064Y-152093666D01*
X72205382Y-152334181D01*
X72172292Y-152583841D01*
X72181740Y-152835508D01*
X72233456Y-153081983D01*
X72325961Y-153316222D01*
X72456610Y-153531526D01*
X72621669Y-153721739D01*
X72816416Y-153881422D01*
X73035284Y-154006009D01*
X73274831Y-154092960D01*
X73614648Y-154138000D01*
X73723190Y-154138000D01*
X73910942Y-154122069D01*
X74154708Y-154058800D01*
X74384329Y-153955363D01*
X74593240Y-153814716D01*
X74775466Y-153640881D01*
X74925797Y-153438828D01*
X75039936Y-153214334D01*
X75114618Y-152973819D01*
X75147708Y-152724159D01*
X75138260Y-152472492D01*
X75086544Y-152226017D01*
X74994039Y-151991778D01*
X74863390Y-151776474D01*
X74698331Y-151586261D01*
X74503584Y-151426578D01*
X74429939Y-151384657D01*
X74593240Y-151274716D01*
X74775466Y-151100881D01*
X74925797Y-150898828D01*
X75039936Y-150674334D01*
X75114618Y-150433819D01*
X75147708Y-150184159D01*
X75138260Y-149932492D01*
X75086544Y-149686017D01*
X74994039Y-149451778D01*
X74863390Y-149236474D01*
X74698331Y-149046261D01*
X74503584Y-148886578D01*
X74429939Y-148844657D01*
X74593240Y-148734716D01*
X74775466Y-148560881D01*
X74925797Y-148358828D01*
X75039936Y-148134334D01*
X75114618Y-147893819D01*
X75147708Y-147644159D01*
X75138260Y-147392492D01*
X75086544Y-147146017D01*
X74994039Y-146911778D01*
X74863390Y-146696474D01*
X74698331Y-146506261D01*
X74503584Y-146346578D01*
X74429939Y-146304657D01*
X74593240Y-146194716D01*
X74775466Y-146020881D01*
X74925797Y-145818828D01*
X75039936Y-145594334D01*
X75114618Y-145353819D01*
X75140043Y-145162000D01*
X72170513Y-145162000D01*
X71754000Y-145162000D01*
X71754000Y-140754527D01*
X71754149Y-140755468D01*
X71781608Y-140809358D01*
X71800296Y-140866875D01*
X71835845Y-140915804D01*
X71863301Y-140969690D01*
X72033656Y-141140046D01*
X72033658Y-141140047D01*
X72483185Y-141589575D01*
X72394203Y-141709172D01*
X72280064Y-141933666D01*
X72205382Y-142174181D01*
X72172292Y-142423841D01*
X72181740Y-142675508D01*
X72233456Y-142921983D01*
X72325961Y-143156222D01*
X72456610Y-143371526D01*
X72621669Y-143561739D01*
X72816416Y-143721422D01*
X72890061Y-143763343D01*
X72726760Y-143873284D01*
X72544534Y-144047119D01*
X72394203Y-144249172D01*
X72280064Y-144473666D01*
X72205382Y-144714181D01*
X72179957Y-144906000D01*
X75149487Y-144906000D01*
X75086544Y-144606017D01*
X74994039Y-144371778D01*
X74863390Y-144156474D01*
X74698331Y-143966261D01*
X74503584Y-143806578D01*
X74429939Y-143764657D01*
X74593240Y-143654716D01*
X74775466Y-143480881D01*
X74925797Y-143278828D01*
X74938929Y-143253000D01*
X75871244Y-143253000D01*
X75871250Y-143252999D01*
X75931213Y-143252999D01*
X75988726Y-143234312D01*
X76048468Y-143224850D01*
X76102359Y-143197390D01*
X76159873Y-143178704D01*
X76208801Y-143143156D01*
X76262690Y-143115697D01*
X76433045Y-142945343D01*
X76433047Y-142945339D01*
X80210642Y-139167745D01*
X80236669Y-139197739D01*
X80431416Y-139357422D01*
X80472867Y-139381017D01*
X80341760Y-139469284D01*
X80159534Y-139643119D01*
X80009203Y-139845172D01*
X79895064Y-140069666D01*
X79820382Y-140310181D01*
X79794957Y-140502000D01*
X83014487Y-140502000D01*
X82951544Y-140202017D01*
X82859039Y-139967778D01*
X82728390Y-139752474D01*
X82563331Y-139562261D01*
X82368584Y-139402578D01*
X82327133Y-139378983D01*
X82458240Y-139290716D01*
X82640466Y-139116881D01*
X82790797Y-138914828D01*
X82904936Y-138690334D01*
X82979618Y-138449819D01*
X83012708Y-138200159D01*
X83003260Y-137948492D01*
X82951544Y-137702017D01*
X82859039Y-137467778D01*
X82728390Y-137252474D01*
X82563331Y-137062261D01*
X82368584Y-136902578D01*
X82327133Y-136878983D01*
X82458240Y-136790716D01*
X82640466Y-136616881D01*
X82790797Y-136414828D01*
X82904936Y-136190334D01*
X82979618Y-135949819D01*
X83012708Y-135700159D01*
X83003260Y-135448492D01*
X82951544Y-135202017D01*
X82859039Y-134967778D01*
X82728390Y-134752474D01*
X82710016Y-134731300D01*
X103406513Y-134731300D01*
X103842600Y-135167388D01*
X103842600Y-135264128D01*
X103913066Y-135527109D01*
X104049194Y-135762891D01*
X104241709Y-135955406D01*
X104477491Y-136091534D01*
X104740472Y-136162000D01*
X105012728Y-136162000D01*
X105275709Y-136091534D01*
X105511491Y-135955406D01*
X105704006Y-135762891D01*
X105711473Y-135749959D01*
X107969280Y-138007766D01*
X107874866Y-137964440D01*
X107646145Y-137908473D01*
X107410967Y-137896765D01*
X107177818Y-137929739D01*
X106955111Y-138006207D01*
X106750881Y-138123407D01*
X106572498Y-138277112D01*
X106426398Y-138461775D01*
X106317852Y-138670733D01*
X106250779Y-138896448D01*
X106227597Y-139130773D01*
X106249143Y-139365254D01*
X106294208Y-139520876D01*
X105256225Y-139520876D01*
X104902651Y-139597791D01*
X104684921Y-139737718D01*
X104518455Y-139929830D01*
X104476110Y-140022553D01*
X104354081Y-139894634D01*
X104152028Y-139744303D01*
X103927534Y-139630164D01*
X103687019Y-139555482D01*
X103495200Y-139530057D01*
X103495200Y-142749587D01*
X103658197Y-142715387D01*
X102562574Y-143811010D01*
X86008731Y-143811010D01*
X84553671Y-142355952D01*
X84488365Y-142281090D01*
X84400382Y-142219254D01*
X84315756Y-142152899D01*
X84288380Y-142140538D01*
X84263806Y-142123268D01*
X84163617Y-142084205D01*
X84065602Y-142039950D01*
X84036073Y-142034478D01*
X84007774Y-142023445D01*
X83909695Y-142011055D01*
X83795728Y-141989932D01*
X83690499Y-141996000D01*
X82828409Y-141996000D01*
X82797382Y-141947721D01*
X82605270Y-141781255D01*
X82512547Y-141738910D01*
X82640466Y-141616881D01*
X82790797Y-141414828D01*
X82904936Y-141190334D01*
X82974982Y-140964748D01*
X96883200Y-140964748D01*
X96883200Y-141323289D01*
X96899131Y-141511041D01*
X96962400Y-141754807D01*
X97065837Y-141984428D01*
X97206483Y-142193339D01*
X97380319Y-142375565D01*
X97582372Y-142525897D01*
X97806866Y-142640036D01*
X98047381Y-142714718D01*
X98297041Y-142747808D01*
X98548707Y-142738360D01*
X98795182Y-142686644D01*
X99029421Y-142594139D01*
X99244725Y-142463490D01*
X99434939Y-142298432D01*
X99594622Y-142103684D01*
X99618218Y-142062232D01*
X99706483Y-142193339D01*
X99880319Y-142375565D01*
X100082372Y-142525897D01*
X100306866Y-142640036D01*
X100547381Y-142714718D01*
X100797041Y-142747808D01*
X101048707Y-142738360D01*
X101295182Y-142686644D01*
X101529421Y-142594139D01*
X101744725Y-142463490D01*
X101934939Y-142298432D01*
X102094622Y-142103684D01*
X102118218Y-142062232D01*
X102206483Y-142193339D01*
X102380319Y-142375565D01*
X102582372Y-142525897D01*
X102806866Y-142640036D01*
X103047381Y-142714718D01*
X103239200Y-142740143D01*
X103239200Y-139520613D01*
X102939217Y-139583556D01*
X102704979Y-139676061D01*
X102489675Y-139806710D01*
X102299462Y-139971768D01*
X102139778Y-140166516D01*
X102116183Y-140207967D01*
X102027917Y-140076860D01*
X101854081Y-139894634D01*
X101652028Y-139744303D01*
X101427534Y-139630164D01*
X101187019Y-139555482D01*
X100937359Y-139522392D01*
X100685693Y-139531840D01*
X100439218Y-139583556D01*
X100204979Y-139676061D01*
X99989675Y-139806710D01*
X99799462Y-139971768D01*
X99639778Y-140166516D01*
X99616183Y-140207967D01*
X99527917Y-140076860D01*
X99354081Y-139894634D01*
X99152028Y-139744303D01*
X98927534Y-139630164D01*
X98687019Y-139555482D01*
X98437359Y-139522392D01*
X98185693Y-139531840D01*
X97939218Y-139583556D01*
X97704979Y-139676061D01*
X97489675Y-139806710D01*
X97299462Y-139971768D01*
X97139778Y-140166516D01*
X97015191Y-140385384D01*
X96928240Y-140624931D01*
X96883200Y-140964748D01*
X82974982Y-140964748D01*
X82979618Y-140949819D01*
X83005043Y-140758000D01*
X79785513Y-140758000D01*
X79848456Y-141057983D01*
X79940961Y-141292222D01*
X80071610Y-141507526D01*
X80236669Y-141697739D01*
X80282730Y-141735506D01*
X80092721Y-141857618D01*
X79926255Y-142049730D01*
X79820657Y-142280959D01*
X79785776Y-142523559D01*
X79785776Y-143740975D01*
X79862691Y-144094549D01*
X80002618Y-144312279D01*
X80194730Y-144478745D01*
X80425959Y-144584343D01*
X80668559Y-144619224D01*
X82135975Y-144619224D01*
X82171697Y-144611453D01*
X82160397Y-144725673D01*
X82181943Y-144960154D01*
X82247439Y-145186331D01*
X82354522Y-145396042D01*
X82499330Y-145581721D01*
X82676636Y-145736668D01*
X82880042Y-145855291D01*
X83102211Y-145933311D01*
X83335124Y-145967913D01*
X83570378Y-145957847D01*
X83799484Y-145903477D01*
X84014176Y-145806766D01*
X84206707Y-145671202D01*
X84370129Y-145501676D01*
X84418153Y-145427868D01*
X84709343Y-145719058D01*
X84774650Y-145793920D01*
X84862633Y-145855756D01*
X84947259Y-145922113D01*
X84974636Y-145934474D01*
X84999206Y-145951742D01*
X85099394Y-145990804D01*
X85197410Y-146035059D01*
X85226944Y-146040533D01*
X85255241Y-146051565D01*
X85353321Y-146063956D01*
X85467285Y-146085078D01*
X85572514Y-146079010D01*
X102992982Y-146079010D01*
X103092073Y-146085765D01*
X103197991Y-146067280D01*
X103304772Y-146054359D01*
X103332876Y-146043739D01*
X103362457Y-146038576D01*
X103460904Y-145995362D01*
X103561524Y-145957340D01*
X103586282Y-145940324D01*
X103614085Y-145928119D01*
X103692192Y-145867533D01*
X103787721Y-145801879D01*
X103857859Y-145723158D01*
X106641248Y-142939769D01*
X106716110Y-142874463D01*
X106777940Y-142786489D01*
X106844301Y-142701854D01*
X106856662Y-142674477D01*
X106873932Y-142649906D01*
X106876328Y-142643760D01*
X107049479Y-142532482D01*
X107215945Y-142340370D01*
X107321543Y-142109141D01*
X107356424Y-141866541D01*
X107356424Y-140399125D01*
X107349021Y-140365094D01*
X107402324Y-140373013D01*
X107637578Y-140362947D01*
X107866684Y-140308577D01*
X108081376Y-140211866D01*
X108273907Y-140076302D01*
X108437329Y-139906776D01*
X108565748Y-139709408D01*
X108654528Y-139491315D01*
X108700498Y-139260208D01*
X108701341Y-139018606D01*
X108656986Y-138787182D01*
X108596110Y-138634596D01*
X113269933Y-143308420D01*
X113255382Y-143355281D01*
X113222292Y-143604941D01*
X113231740Y-143856608D01*
X113283456Y-144103083D01*
X113375961Y-144337322D01*
X113506610Y-144552626D01*
X113671669Y-144742839D01*
X113866416Y-144902522D01*
X114085284Y-145027109D01*
X114324831Y-145114060D01*
X114664648Y-145159100D01*
X114773190Y-145159100D01*
X114960942Y-145143169D01*
X115204708Y-145079900D01*
X115434329Y-144976463D01*
X115643240Y-144835816D01*
X115825466Y-144661981D01*
X115975797Y-144459928D01*
X116089936Y-144235434D01*
X116164618Y-143994919D01*
X116197708Y-143745259D01*
X116188260Y-143493592D01*
X116136544Y-143247117D01*
X116044039Y-143012878D01*
X115913390Y-142797574D01*
X115748331Y-142607361D01*
X115553584Y-142447678D01*
X115479939Y-142405757D01*
X115643240Y-142295816D01*
X115825466Y-142121981D01*
X115975797Y-141919928D01*
X116089936Y-141695434D01*
X116164618Y-141454919D01*
X116197708Y-141205259D01*
X116188260Y-140953592D01*
X116136544Y-140707117D01*
X116044039Y-140472878D01*
X115913390Y-140257574D01*
X115748331Y-140067361D01*
X115553584Y-139907678D01*
X115479939Y-139865757D01*
X115643240Y-139755816D01*
X115825466Y-139581981D01*
X115975797Y-139379928D01*
X116089936Y-139155434D01*
X116164618Y-138914919D01*
X116190043Y-138723100D01*
X113220513Y-138723100D01*
X113283456Y-139023083D01*
X113375961Y-139257322D01*
X113506610Y-139472626D01*
X113671669Y-139662839D01*
X113866416Y-139822522D01*
X113940061Y-139864443D01*
X113776760Y-139974384D01*
X113594534Y-140148219D01*
X113594487Y-140148282D01*
X102494866Y-129048661D01*
X102494864Y-129048657D01*
X102324509Y-128878303D01*
X102270620Y-128850844D01*
X102221692Y-128815296D01*
X102164178Y-128796610D01*
X102110287Y-128769150D01*
X102050545Y-128759688D01*
X101993032Y-128741001D01*
X101933069Y-128741001D01*
X101933063Y-128741000D01*
X80284388Y-128741000D01*
X75100067Y-123556681D01*
X75114618Y-123509819D01*
X75147708Y-123260159D01*
X75138260Y-123008492D01*
X75086544Y-122762017D01*
X74994039Y-122527778D01*
X74863390Y-122312474D01*
X74698331Y-122122261D01*
X74503584Y-121962578D01*
X74429939Y-121920657D01*
X74593240Y-121810716D01*
X74775466Y-121636881D01*
X74925797Y-121434828D01*
X74938929Y-121409000D01*
X85916846Y-121409000D01*
X85915072Y-121409894D01*
X85647203Y-121590915D01*
X85404505Y-121804505D01*
X85190915Y-122047203D01*
X85009894Y-122315072D01*
X84864377Y-122603772D01*
X84756723Y-122908622D01*
X84688678Y-123224680D01*
X84661344Y-123546823D01*
X84675164Y-123869828D01*
X84729915Y-124188458D01*
X84824708Y-124497548D01*
X84958007Y-124792089D01*
X85127653Y-125067304D01*
X85330892Y-125318733D01*
X85564433Y-125542298D01*
X85824487Y-125734378D01*
X86106840Y-125891856D01*
X86406915Y-126012182D01*
X86719847Y-126093402D01*
X87040561Y-126134203D01*
X87363862Y-126133920D01*
X87684505Y-126092560D01*
X87997293Y-126010794D01*
X88297157Y-125889945D01*
X88579236Y-125731974D01*
X88838955Y-125539441D01*
X89072105Y-125315467D01*
X89274906Y-125063684D01*
X89444069Y-124788174D01*
X89576854Y-124493401D01*
X89671109Y-124184145D01*
X89725516Y-123864168D01*
X89734363Y-123441822D01*
X89693402Y-123119847D01*
X89612182Y-122806915D01*
X89491856Y-122506840D01*
X89334378Y-122224487D01*
X89142298Y-121964433D01*
X88918733Y-121730892D01*
X88667304Y-121527653D01*
X88474814Y-121409000D01*
X100328433Y-121409000D01*
X112900333Y-133980901D01*
X113056229Y-134136798D01*
X113110115Y-134164254D01*
X113159043Y-134199803D01*
X113216567Y-134218494D01*
X113270453Y-134245950D01*
X113330186Y-134255411D01*
X113387705Y-134274100D01*
X113434687Y-134274100D01*
X113506610Y-134392626D01*
X113671669Y-134582839D01*
X113866416Y-134742522D01*
X113940061Y-134784443D01*
X113776760Y-134894384D01*
X113594534Y-135068219D01*
X113444203Y-135270272D01*
X113330064Y-135494766D01*
X113255382Y-135735281D01*
X113222292Y-135984941D01*
X113231740Y-136236608D01*
X113283456Y-136483083D01*
X113375961Y-136717322D01*
X113506610Y-136932626D01*
X113671669Y-137122839D01*
X113866416Y-137282522D01*
X113940061Y-137324443D01*
X113776760Y-137434384D01*
X113594534Y-137608219D01*
X113444203Y-137810272D01*
X113330064Y-138034766D01*
X113255382Y-138275281D01*
X113229957Y-138467100D01*
X116199487Y-138467100D01*
X116136544Y-138167117D01*
X116044039Y-137932878D01*
X115913390Y-137717574D01*
X115748331Y-137527361D01*
X115553584Y-137367678D01*
X115479939Y-137325757D01*
X115643240Y-137215816D01*
X115671245Y-137189100D01*
X117588092Y-137189100D01*
X117687183Y-137195855D01*
X117793101Y-137177370D01*
X117899882Y-137164449D01*
X117927986Y-137153829D01*
X117957567Y-137148666D01*
X118056014Y-137105452D01*
X118156634Y-137067430D01*
X118181392Y-137050414D01*
X118209195Y-137038209D01*
X118287302Y-136977623D01*
X118382831Y-136911969D01*
X118452969Y-136833248D01*
X120167218Y-135119000D01*
X120962480Y-135119000D01*
X121076416Y-135212422D01*
X121150061Y-135254343D01*
X120986760Y-135364284D01*
X120804534Y-135538119D01*
X120654203Y-135740172D01*
X120540064Y-135964666D01*
X120465382Y-136205181D01*
X120432292Y-136454841D01*
X120441740Y-136706508D01*
X120493456Y-136952983D01*
X120585961Y-137187222D01*
X120716610Y-137402526D01*
X120881669Y-137592739D01*
X121076416Y-137752422D01*
X121150061Y-137794343D01*
X120986760Y-137904284D01*
X120804534Y-138078119D01*
X120654203Y-138280172D01*
X120540064Y-138504666D01*
X120465382Y-138745181D01*
X120432292Y-138994841D01*
X120441740Y-139246508D01*
X120493456Y-139492983D01*
X120585961Y-139727222D01*
X120716610Y-139942526D01*
X120881669Y-140132739D01*
X121076416Y-140292422D01*
X121150061Y-140334343D01*
X120986760Y-140444284D01*
X120804534Y-140618119D01*
X120654203Y-140820172D01*
X120540064Y-141044666D01*
X120465382Y-141285181D01*
X120432292Y-141534841D01*
X120441740Y-141786508D01*
X120493456Y-142032983D01*
X120585961Y-142267222D01*
X120716610Y-142482526D01*
X120881669Y-142672739D01*
X120905975Y-142692669D01*
X120752489Y-142733795D01*
X120576835Y-142881185D01*
X120465044Y-143074814D01*
X120428163Y-143283976D01*
X120428163Y-145011588D01*
X120508795Y-145312512D01*
X120656185Y-145488165D01*
X120849814Y-145599956D01*
X121058976Y-145636837D01*
X122786588Y-145636837D01*
X123087512Y-145556205D01*
X123263165Y-145408815D01*
X123374956Y-145215186D01*
X123411837Y-145006024D01*
X123411837Y-143278412D01*
X123331205Y-142977489D01*
X123183815Y-142801835D01*
X122990186Y-142690044D01*
X122941554Y-142681469D01*
X123035466Y-142591881D01*
X123185797Y-142389828D01*
X123299936Y-142165334D01*
X123374618Y-141924819D01*
X123407708Y-141675159D01*
X123398260Y-141423492D01*
X123346544Y-141177017D01*
X123254039Y-140942778D01*
X123123390Y-140727474D01*
X122958331Y-140537261D01*
X122763584Y-140377578D01*
X122689939Y-140335657D01*
X122853240Y-140225716D01*
X123035466Y-140051881D01*
X123185797Y-139849828D01*
X123299936Y-139625334D01*
X123374618Y-139384819D01*
X123407708Y-139135159D01*
X123398260Y-138883492D01*
X123346544Y-138637017D01*
X123254039Y-138402778D01*
X123123390Y-138187474D01*
X122958331Y-137997261D01*
X122763584Y-137837578D01*
X122689939Y-137795657D01*
X122853240Y-137685716D01*
X123035466Y-137511881D01*
X123185797Y-137309828D01*
X123299936Y-137085334D01*
X123374618Y-136844819D01*
X123407708Y-136595159D01*
X123398260Y-136343492D01*
X123346544Y-136097017D01*
X123254039Y-135862778D01*
X123123390Y-135647474D01*
X122958331Y-135457261D01*
X122763584Y-135297578D01*
X122689939Y-135255657D01*
X122853240Y-135145716D01*
X123035466Y-134971881D01*
X123185797Y-134769828D01*
X123299936Y-134545334D01*
X123374618Y-134304819D01*
X123407708Y-134055159D01*
X123398260Y-133803492D01*
X123346544Y-133557017D01*
X123254039Y-133322778D01*
X123123390Y-133107474D01*
X122958331Y-132917261D01*
X122763584Y-132757578D01*
X122689939Y-132715657D01*
X122853240Y-132605716D01*
X123035466Y-132431881D01*
X123185797Y-132229828D01*
X123299936Y-132005334D01*
X123374618Y-131764819D01*
X123400043Y-131573000D01*
X121792000Y-131573000D01*
X121792000Y-131317000D01*
X123409487Y-131317000D01*
X123346544Y-131017017D01*
X123254039Y-130782778D01*
X123123390Y-130567474D01*
X122958331Y-130377261D01*
X122763584Y-130217578D01*
X122689939Y-130175657D01*
X122853240Y-130065716D01*
X123035466Y-129891881D01*
X123185797Y-129689828D01*
X123299936Y-129465334D01*
X123374618Y-129224819D01*
X123400043Y-129033000D01*
X120430513Y-129033000D01*
X120493456Y-129332983D01*
X120585961Y-129567222D01*
X120716610Y-129782526D01*
X120881669Y-129972739D01*
X121076416Y-130132422D01*
X121150061Y-130174343D01*
X120986760Y-130284284D01*
X120804534Y-130458119D01*
X120654203Y-130660172D01*
X120540064Y-130884666D01*
X120512418Y-130973701D01*
X118179019Y-128640303D01*
X118179019Y-126294841D01*
X120432292Y-126294841D01*
X120441740Y-126546508D01*
X120493456Y-126792983D01*
X120585961Y-127027222D01*
X120716610Y-127242526D01*
X120881669Y-127432739D01*
X121076416Y-127592422D01*
X121150061Y-127634343D01*
X120986760Y-127744284D01*
X120804534Y-127918119D01*
X120654203Y-128120172D01*
X120540064Y-128344666D01*
X120465382Y-128585181D01*
X120439957Y-128777000D01*
X123409487Y-128777000D01*
X123346544Y-128477017D01*
X123254039Y-128242778D01*
X123123390Y-128027474D01*
X122958331Y-127837261D01*
X122763584Y-127677578D01*
X122689939Y-127635657D01*
X122853240Y-127525716D01*
X123035466Y-127351881D01*
X123185797Y-127149828D01*
X123299936Y-126925334D01*
X123374618Y-126684819D01*
X123407708Y-126435159D01*
X123398260Y-126183492D01*
X123346544Y-125937017D01*
X123254039Y-125702778D01*
X123123390Y-125487474D01*
X122958331Y-125297261D01*
X122763584Y-125137578D01*
X122544716Y-125012991D01*
X122305169Y-124926040D01*
X121965352Y-124881000D01*
X121856810Y-124881000D01*
X121669058Y-124896931D01*
X121425292Y-124960200D01*
X121195671Y-125063637D01*
X120986760Y-125204284D01*
X120804534Y-125378119D01*
X120654203Y-125580172D01*
X120540064Y-125804666D01*
X120465382Y-126045181D01*
X120432292Y-126294841D01*
X118179019Y-126294841D01*
X118179019Y-120423976D01*
X120428163Y-120423976D01*
X120428163Y-122151588D01*
X120508795Y-122452512D01*
X120656185Y-122628165D01*
X120849814Y-122739956D01*
X121058976Y-122776837D01*
X122786588Y-122776837D01*
X123087512Y-122696205D01*
X123263165Y-122548815D01*
X123374956Y-122355186D01*
X123411837Y-122146024D01*
X123411837Y-120418412D01*
X123331205Y-120117489D01*
X123183815Y-119941835D01*
X122990186Y-119830044D01*
X122941554Y-119821469D01*
X123035466Y-119731881D01*
X123185797Y-119529828D01*
X123299936Y-119305334D01*
X123374618Y-119064819D01*
X123407708Y-118815159D01*
X123398260Y-118563492D01*
X123346544Y-118317017D01*
X123254039Y-118082778D01*
X123123390Y-117867474D01*
X122958331Y-117677261D01*
X122763584Y-117517578D01*
X122689939Y-117475657D01*
X122853240Y-117365716D01*
X123035466Y-117191881D01*
X123185797Y-116989828D01*
X123299936Y-116765334D01*
X123374618Y-116524819D01*
X123407708Y-116275159D01*
X123398260Y-116023492D01*
X123346544Y-115777017D01*
X123254039Y-115542778D01*
X123123390Y-115327474D01*
X122958331Y-115137261D01*
X122763584Y-114977578D01*
X122689939Y-114935657D01*
X122853240Y-114825716D01*
X123035466Y-114651881D01*
X123185797Y-114449828D01*
X123299936Y-114225334D01*
X123374618Y-113984819D01*
X123407708Y-113735159D01*
X123398260Y-113483492D01*
X123346544Y-113237017D01*
X123254039Y-113002778D01*
X123123390Y-112787474D01*
X122958331Y-112597261D01*
X122763584Y-112437578D01*
X122689939Y-112395657D01*
X122853240Y-112285716D01*
X123035466Y-112111881D01*
X123185797Y-111909828D01*
X123299936Y-111685334D01*
X123374618Y-111444819D01*
X123407708Y-111195159D01*
X123398260Y-110943492D01*
X123346544Y-110697017D01*
X123254039Y-110462778D01*
X123123390Y-110247474D01*
X122958331Y-110057261D01*
X122763584Y-109897578D01*
X122689939Y-109855657D01*
X122853240Y-109745716D01*
X123035466Y-109571881D01*
X123185797Y-109369828D01*
X123299936Y-109145334D01*
X123374618Y-108904819D01*
X123407708Y-108655159D01*
X123398260Y-108403492D01*
X123346544Y-108157017D01*
X123254039Y-107922778D01*
X123123390Y-107707474D01*
X122958331Y-107517261D01*
X122763584Y-107357578D01*
X122689939Y-107315657D01*
X122853240Y-107205716D01*
X123035466Y-107031881D01*
X123185797Y-106829828D01*
X123299936Y-106605334D01*
X123374618Y-106364819D01*
X123407708Y-106115159D01*
X123398260Y-105863492D01*
X123346544Y-105617017D01*
X123254039Y-105382778D01*
X123123390Y-105167474D01*
X122958331Y-104977261D01*
X122763584Y-104817578D01*
X122689939Y-104775657D01*
X122853240Y-104665716D01*
X123035466Y-104491881D01*
X123185797Y-104289828D01*
X123299936Y-104065334D01*
X123374618Y-103824819D01*
X123407708Y-103575159D01*
X123398260Y-103323492D01*
X123346544Y-103077017D01*
X123254039Y-102842778D01*
X123123390Y-102627474D01*
X122958331Y-102437261D01*
X122763584Y-102277578D01*
X122544716Y-102152991D01*
X122305169Y-102066040D01*
X121965352Y-102021000D01*
X121856810Y-102021000D01*
X121669058Y-102036931D01*
X121425292Y-102100200D01*
X121195671Y-102203637D01*
X120986760Y-102344284D01*
X120804534Y-102518119D01*
X120654203Y-102720172D01*
X120540064Y-102944666D01*
X120465382Y-103185181D01*
X120432292Y-103434841D01*
X120441740Y-103686508D01*
X120493456Y-103932983D01*
X120585961Y-104167222D01*
X120716610Y-104382526D01*
X120881669Y-104572739D01*
X121076416Y-104732422D01*
X121150061Y-104774343D01*
X120986760Y-104884284D01*
X120804534Y-105058119D01*
X120654203Y-105260172D01*
X120540064Y-105484666D01*
X120465382Y-105725181D01*
X120432292Y-105974841D01*
X120441740Y-106226508D01*
X120493456Y-106472983D01*
X120585961Y-106707222D01*
X120716610Y-106922526D01*
X120881669Y-107112739D01*
X121076416Y-107272422D01*
X121150061Y-107314343D01*
X120986760Y-107424284D01*
X120804534Y-107598119D01*
X120654203Y-107800172D01*
X120540064Y-108024666D01*
X120465382Y-108265181D01*
X120432292Y-108514841D01*
X120441740Y-108766508D01*
X120493456Y-109012983D01*
X120585961Y-109247222D01*
X120716610Y-109462526D01*
X120881669Y-109652739D01*
X121076416Y-109812422D01*
X121150061Y-109854343D01*
X120986760Y-109964284D01*
X120804534Y-110138119D01*
X120654203Y-110340172D01*
X120540064Y-110564666D01*
X120465382Y-110805181D01*
X120432292Y-111054841D01*
X120441740Y-111306508D01*
X120493456Y-111552983D01*
X120585961Y-111787222D01*
X120716610Y-112002526D01*
X120881669Y-112192739D01*
X121076416Y-112352422D01*
X121150061Y-112394343D01*
X120986760Y-112504284D01*
X120804534Y-112678119D01*
X120654203Y-112880172D01*
X120540064Y-113104666D01*
X120465382Y-113345181D01*
X120432292Y-113594841D01*
X120441740Y-113846508D01*
X120493456Y-114092983D01*
X120585961Y-114327222D01*
X120716610Y-114542526D01*
X120881669Y-114732739D01*
X121076416Y-114892422D01*
X121150061Y-114934343D01*
X120986760Y-115044284D01*
X120804534Y-115218119D01*
X120654203Y-115420172D01*
X120540064Y-115644666D01*
X120465382Y-115885181D01*
X120432292Y-116134841D01*
X120441740Y-116386508D01*
X120493456Y-116632983D01*
X120585961Y-116867222D01*
X120716610Y-117082526D01*
X120881669Y-117272739D01*
X121076416Y-117432422D01*
X121150061Y-117474343D01*
X120986760Y-117584284D01*
X120804534Y-117758119D01*
X120654203Y-117960172D01*
X120540064Y-118184666D01*
X120465382Y-118425181D01*
X120432292Y-118674841D01*
X120441740Y-118926508D01*
X120493456Y-119172983D01*
X120585961Y-119407222D01*
X120716610Y-119622526D01*
X120881669Y-119812739D01*
X120905975Y-119832669D01*
X120752489Y-119873795D01*
X120576835Y-120021185D01*
X120465044Y-120214814D01*
X120428163Y-120423976D01*
X118179019Y-120423976D01*
X118179019Y-103374336D01*
X118185775Y-103275234D01*
X118167287Y-103169302D01*
X118154368Y-103062536D01*
X118143748Y-103034432D01*
X118138585Y-103004852D01*
X118095368Y-102906398D01*
X118057349Y-102805784D01*
X118040336Y-102781032D01*
X118028129Y-102753223D01*
X117967545Y-102675120D01*
X117901888Y-102579588D01*
X117823175Y-102509458D01*
X116190446Y-100876730D01*
X116188260Y-100818492D01*
X116136544Y-100572017D01*
X116044039Y-100337778D01*
X115913390Y-100122474D01*
X115748331Y-99932261D01*
X115553584Y-99772578D01*
X115479939Y-99730657D01*
X115643240Y-99620716D01*
X115825466Y-99446881D01*
X115975797Y-99244828D01*
X116089936Y-99020334D01*
X116164618Y-98779819D01*
X116197708Y-98530159D01*
X116188260Y-98278492D01*
X116136544Y-98032017D01*
X116044039Y-97797778D01*
X115913390Y-97582474D01*
X115748331Y-97392261D01*
X115724025Y-97372331D01*
X115877512Y-97331205D01*
X116053165Y-97183815D01*
X116164956Y-96990186D01*
X116201837Y-96781024D01*
X116201837Y-95053412D01*
X116121205Y-94752489D01*
X115973815Y-94576835D01*
X115780186Y-94465044D01*
X115571024Y-94428163D01*
X113843412Y-94428163D01*
X113542489Y-94508795D01*
X113366835Y-94656185D01*
X113255044Y-94849814D01*
X113218163Y-95058976D01*
X113218163Y-96786588D01*
X113298795Y-97087512D01*
X113446185Y-97263165D01*
X113639814Y-97374956D01*
X113688446Y-97383531D01*
X113594534Y-97473119D01*
X113444203Y-97675172D01*
X113330064Y-97899666D01*
X113255382Y-98140181D01*
X113222292Y-98389841D01*
X113231740Y-98641508D01*
X113283456Y-98887983D01*
X113375961Y-99122222D01*
X113506610Y-99337526D01*
X113671669Y-99527739D01*
X113866416Y-99687422D01*
X113940061Y-99729343D01*
X113776760Y-99839284D01*
X113594534Y-100013119D01*
X113444203Y-100215172D01*
X113330064Y-100439666D01*
X113255382Y-100680181D01*
X113222292Y-100929841D01*
X113231740Y-101181508D01*
X113283456Y-101427983D01*
X113375961Y-101662222D01*
X113506610Y-101877526D01*
X113671669Y-102067739D01*
X113866416Y-102227422D01*
X113940061Y-102269343D01*
X113776760Y-102379284D01*
X113594534Y-102553119D01*
X113444203Y-102755172D01*
X113330064Y-102979666D01*
X113255382Y-103220181D01*
X113229957Y-103412000D01*
X114838000Y-103412000D01*
X114838000Y-103668000D01*
X113220513Y-103668000D01*
X113283456Y-103967983D01*
X113375961Y-104202222D01*
X113506610Y-104417526D01*
X113671669Y-104607739D01*
X113866416Y-104767422D01*
X113940061Y-104809343D01*
X113776760Y-104919284D01*
X113594534Y-105093119D01*
X113444203Y-105295172D01*
X113330064Y-105519666D01*
X113255382Y-105760181D01*
X113222292Y-106009841D01*
X113231740Y-106261508D01*
X113283456Y-106507983D01*
X113375961Y-106742222D01*
X113506610Y-106957526D01*
X113671669Y-107147739D01*
X113866416Y-107307422D01*
X113940061Y-107349343D01*
X113776760Y-107459284D01*
X113594534Y-107633119D01*
X113444203Y-107835172D01*
X113330064Y-108059666D01*
X113255382Y-108300181D01*
X113222292Y-108549841D01*
X113231740Y-108801508D01*
X113283456Y-109047983D01*
X113375961Y-109282222D01*
X113506610Y-109497526D01*
X113671669Y-109687739D01*
X113866416Y-109847422D01*
X114085284Y-109972009D01*
X114324831Y-110058960D01*
X114664648Y-110104000D01*
X114773190Y-110104000D01*
X114960942Y-110088069D01*
X115204708Y-110024800D01*
X115434329Y-109921363D01*
X115643240Y-109780716D01*
X115825466Y-109606881D01*
X115911019Y-109491893D01*
X115911019Y-113537631D01*
X115587045Y-113213658D01*
X115587044Y-113213656D01*
X115416688Y-113043300D01*
X115407308Y-113038521D01*
X114970040Y-112601253D01*
X114916151Y-112573794D01*
X114867223Y-112538246D01*
X114809709Y-112519560D01*
X114755818Y-112492100D01*
X114696076Y-112482638D01*
X114638563Y-112463951D01*
X114578600Y-112463951D01*
X114578594Y-112463950D01*
X103207337Y-112463950D01*
X83463086Y-92719700D01*
X94823438Y-92719700D01*
X94756723Y-92908622D01*
X94688678Y-93224680D01*
X94661344Y-93546823D01*
X94675164Y-93869828D01*
X94729915Y-94188458D01*
X94824708Y-94497548D01*
X94958007Y-94792089D01*
X95127653Y-95067304D01*
X95330892Y-95318733D01*
X95564433Y-95542298D01*
X95824487Y-95734378D01*
X96106840Y-95891856D01*
X96406915Y-96012182D01*
X96719847Y-96093402D01*
X97040561Y-96134203D01*
X97363862Y-96133920D01*
X97684505Y-96092560D01*
X97997293Y-96010794D01*
X98297157Y-95889945D01*
X98579236Y-95731974D01*
X98838955Y-95539441D01*
X99072105Y-95315467D01*
X99274906Y-95063684D01*
X99444069Y-94788174D01*
X99576854Y-94493401D01*
X99671109Y-94184145D01*
X99725516Y-93864168D01*
X99734363Y-93441822D01*
X99693402Y-93119847D01*
X99612182Y-92806915D01*
X99491856Y-92506840D01*
X99334378Y-92224487D01*
X99193608Y-92033900D01*
X116430344Y-92033900D01*
X116430350Y-92033899D01*
X116490313Y-92033899D01*
X116547826Y-92015212D01*
X116607568Y-92005750D01*
X116661459Y-91978290D01*
X116718973Y-91959604D01*
X116767901Y-91924056D01*
X116821790Y-91896597D01*
X116992145Y-91726243D01*
X116992147Y-91726239D01*
X120435594Y-88282793D01*
X120441740Y-88446508D01*
X120493456Y-88692983D01*
X120585961Y-88927222D01*
X120716610Y-89142526D01*
X120881669Y-89332739D01*
X121076416Y-89492422D01*
X121150061Y-89534343D01*
X120986760Y-89644284D01*
X120804534Y-89818119D01*
X120654203Y-90020172D01*
X120540064Y-90244666D01*
X120465382Y-90485181D01*
X120432292Y-90734841D01*
X120441740Y-90986508D01*
X120493456Y-91232983D01*
X120585961Y-91467222D01*
X120716610Y-91682526D01*
X120881669Y-91872739D01*
X121076416Y-92032422D01*
X121150061Y-92074343D01*
X120986760Y-92184284D01*
X120804534Y-92358119D01*
X120654203Y-92560172D01*
X120540064Y-92784666D01*
X120465382Y-93025181D01*
X120432292Y-93274841D01*
X120441740Y-93526508D01*
X120493456Y-93772983D01*
X120585961Y-94007222D01*
X120716610Y-94222526D01*
X120881669Y-94412739D01*
X121076416Y-94572422D01*
X121150061Y-94614343D01*
X120986760Y-94724284D01*
X120804534Y-94898119D01*
X120654203Y-95100172D01*
X120540064Y-95324666D01*
X120465382Y-95565181D01*
X120432292Y-95814841D01*
X120441740Y-96066508D01*
X120493456Y-96312983D01*
X120585961Y-96547222D01*
X120716610Y-96762526D01*
X120881669Y-96952739D01*
X120905975Y-96972669D01*
X120752489Y-97013795D01*
X120576835Y-97161185D01*
X120465044Y-97354814D01*
X120428163Y-97563976D01*
X120428163Y-99291588D01*
X120508795Y-99592512D01*
X120656185Y-99768165D01*
X120849814Y-99879956D01*
X121058976Y-99916837D01*
X122786588Y-99916837D01*
X123087512Y-99836205D01*
X123263165Y-99688815D01*
X123374956Y-99495186D01*
X123411837Y-99286024D01*
X123411837Y-97558412D01*
X123331205Y-97257489D01*
X123183815Y-97081835D01*
X122990186Y-96970044D01*
X122941554Y-96961469D01*
X123035466Y-96871881D01*
X123185797Y-96669828D01*
X123299936Y-96445334D01*
X123374618Y-96204819D01*
X123407708Y-95955159D01*
X123398260Y-95703492D01*
X123346544Y-95457017D01*
X123254039Y-95222778D01*
X123123390Y-95007474D01*
X122958331Y-94817261D01*
X122763584Y-94657578D01*
X122689939Y-94615657D01*
X122853240Y-94505716D01*
X123035466Y-94331881D01*
X123185797Y-94129828D01*
X123299936Y-93905334D01*
X123374618Y-93664819D01*
X123407708Y-93415159D01*
X123398260Y-93163492D01*
X123346544Y-92917017D01*
X123254039Y-92682778D01*
X123123390Y-92467474D01*
X122958331Y-92277261D01*
X122763584Y-92117578D01*
X122689939Y-92075657D01*
X122853240Y-91965716D01*
X123035466Y-91791881D01*
X123185797Y-91589828D01*
X123299936Y-91365334D01*
X123374618Y-91124819D01*
X123407708Y-90875159D01*
X123398260Y-90623492D01*
X123346544Y-90377017D01*
X123254039Y-90142778D01*
X123123390Y-89927474D01*
X122958331Y-89737261D01*
X122763584Y-89577578D01*
X122689939Y-89535657D01*
X122853240Y-89425716D01*
X123035466Y-89251881D01*
X123185797Y-89049828D01*
X123299936Y-88825334D01*
X123374618Y-88584819D01*
X123407708Y-88335159D01*
X123398260Y-88083492D01*
X123346544Y-87837017D01*
X123254039Y-87602778D01*
X123123390Y-87387474D01*
X122958331Y-87197261D01*
X122763584Y-87037578D01*
X122689939Y-86995657D01*
X122853240Y-86885716D01*
X123035466Y-86711881D01*
X123185797Y-86509828D01*
X123299936Y-86285334D01*
X123374618Y-86044819D01*
X123407708Y-85795159D01*
X123398260Y-85543492D01*
X123346544Y-85297017D01*
X123254039Y-85062778D01*
X123123390Y-84847474D01*
X122958331Y-84657261D01*
X122763584Y-84497578D01*
X122689939Y-84455657D01*
X122853240Y-84345716D01*
X123035466Y-84171881D01*
X123185797Y-83969828D01*
X123299936Y-83745334D01*
X123374618Y-83504819D01*
X123407708Y-83255159D01*
X123398260Y-83003492D01*
X123346544Y-82757017D01*
X123254039Y-82522778D01*
X123123390Y-82307474D01*
X122958331Y-82117261D01*
X122763584Y-81957578D01*
X122689939Y-81915657D01*
X122853240Y-81805716D01*
X123035466Y-81631881D01*
X123185797Y-81429828D01*
X123299936Y-81205334D01*
X123374618Y-80964819D01*
X123407708Y-80715159D01*
X123398260Y-80463492D01*
X123346544Y-80217017D01*
X123254039Y-79982778D01*
X123123390Y-79767474D01*
X122958331Y-79577261D01*
X122763584Y-79417578D01*
X122544716Y-79292991D01*
X122305169Y-79206040D01*
X121965352Y-79161000D01*
X121856810Y-79161000D01*
X121669058Y-79176931D01*
X121425292Y-79240200D01*
X121195671Y-79343637D01*
X120986760Y-79484284D01*
X120804534Y-79658119D01*
X120654203Y-79860172D01*
X120540064Y-80084666D01*
X120465382Y-80325181D01*
X120432292Y-80574841D01*
X120441740Y-80826508D01*
X120493456Y-81072983D01*
X120585961Y-81307222D01*
X120716610Y-81522526D01*
X120881669Y-81712739D01*
X121076416Y-81872422D01*
X121150061Y-81914343D01*
X120986760Y-82024284D01*
X120804534Y-82198119D01*
X120654203Y-82400172D01*
X120540064Y-82624666D01*
X120465382Y-82865181D01*
X120432292Y-83114841D01*
X120441740Y-83366508D01*
X120480478Y-83551135D01*
X118090614Y-85941000D01*
X114811313Y-85941000D01*
X114739390Y-85822474D01*
X114574331Y-85632261D01*
X114379584Y-85472578D01*
X114338133Y-85448983D01*
X114469240Y-85360716D01*
X114651466Y-85186881D01*
X114801797Y-84984828D01*
X114915936Y-84760334D01*
X114990618Y-84519819D01*
X115016043Y-84328000D01*
X111796513Y-84328000D01*
X111859456Y-84627983D01*
X111951961Y-84862222D01*
X112082610Y-85077526D01*
X112247669Y-85267739D01*
X112442416Y-85427422D01*
X112483867Y-85451017D01*
X112352760Y-85539284D01*
X112170534Y-85713119D01*
X112020203Y-85915172D01*
X111906064Y-86139666D01*
X111831382Y-86380181D01*
X111798292Y-86629841D01*
X111807740Y-86881508D01*
X111859456Y-87127983D01*
X111951961Y-87362222D01*
X112082610Y-87577526D01*
X112247669Y-87767739D01*
X112442416Y-87927422D01*
X112483867Y-87951017D01*
X112352760Y-88039284D01*
X112222722Y-88163335D01*
X103433386Y-79374000D01*
X110411873Y-79374000D01*
X110370198Y-79426675D01*
X110261652Y-79635633D01*
X110194579Y-79861348D01*
X110171397Y-80095673D01*
X110192943Y-80330154D01*
X110258439Y-80556331D01*
X110365522Y-80766042D01*
X110510330Y-80951721D01*
X110687636Y-81106668D01*
X110891042Y-81225291D01*
X111113211Y-81303311D01*
X111346124Y-81337913D01*
X111581378Y-81327847D01*
X111796776Y-81276730D01*
X111796776Y-82310975D01*
X111873691Y-82664549D01*
X112013618Y-82882279D01*
X112205730Y-83048745D01*
X112298453Y-83091090D01*
X112170534Y-83213119D01*
X112020203Y-83415172D01*
X111906064Y-83639666D01*
X111831382Y-83880181D01*
X111805957Y-84072000D01*
X115025487Y-84072000D01*
X114962544Y-83772017D01*
X114870039Y-83537778D01*
X114739390Y-83322474D01*
X114574331Y-83132261D01*
X114528270Y-83094494D01*
X114718279Y-82972382D01*
X114884745Y-82780270D01*
X114990343Y-82549041D01*
X115025224Y-82306441D01*
X115025224Y-81089025D01*
X114948309Y-80735451D01*
X114808382Y-80517721D01*
X114616270Y-80351255D01*
X114385041Y-80245657D01*
X114142441Y-80210776D01*
X112675025Y-80210776D01*
X112644325Y-80217454D01*
X112645141Y-79983506D01*
X112600786Y-79752082D01*
X112513530Y-79533376D01*
X112411409Y-79374000D01*
X118101462Y-79374000D01*
X118196927Y-79374583D01*
X118242672Y-79361509D01*
X118289768Y-79354764D01*
X118329533Y-79336684D01*
X118371540Y-79324677D01*
X118411771Y-79299294D01*
X118455089Y-79279598D01*
X118488184Y-79251080D01*
X118525126Y-79227773D01*
X118556621Y-79192111D01*
X118592664Y-79161054D01*
X118616422Y-79124399D01*
X118645342Y-79091654D01*
X118665564Y-79048584D01*
X118691439Y-79008662D01*
X118703953Y-78966817D01*
X118722689Y-78926912D01*
X118729483Y-78881454D01*
X118743473Y-78834673D01*
X118743772Y-78785832D01*
X118744000Y-78784306D01*
X118744000Y-78748539D01*
X118744583Y-78653073D01*
X118744000Y-78651033D01*
X118744000Y-76068800D01*
X122249863Y-76068800D01*
X122249863Y-77157388D01*
X122330495Y-77458312D01*
X122477885Y-77633965D01*
X122671514Y-77745756D01*
X122880676Y-77782637D01*
X123963700Y-77782637D01*
X123963700Y-76068800D01*
X124219700Y-76068800D01*
X124219700Y-77782637D01*
X125308288Y-77782637D01*
X125609212Y-77702005D01*
X125784865Y-77554615D01*
X125896656Y-77360986D01*
X125933537Y-77151824D01*
X125933537Y-76068800D01*
X124219700Y-76068800D01*
X123963700Y-76068800D01*
X122249863Y-76068800D01*
X118744000Y-76068800D01*
X118744000Y-74729776D01*
X122249863Y-74729776D01*
X122249863Y-75812800D01*
X125933537Y-75812800D01*
X125933537Y-74724212D01*
X125852905Y-74423289D01*
X125705515Y-74247635D01*
X125511886Y-74135844D01*
X125302724Y-74098963D01*
X124875658Y-74098963D01*
X125014174Y-74032151D01*
X125244269Y-73874306D01*
X125447840Y-73683474D01*
X125620204Y-73464045D01*
X125757394Y-73221069D01*
X125856253Y-72960136D01*
X125914886Y-72685466D01*
X125926187Y-72304690D01*
X125883946Y-72027027D01*
X125800737Y-71760691D01*
X125678199Y-71510007D01*
X125519152Y-71280741D01*
X125327256Y-71078171D01*
X125106927Y-70906959D01*
X124863236Y-70771044D01*
X124601790Y-70673552D01*
X124328605Y-70616730D01*
X124049969Y-70601883D01*
X123772293Y-70629355D01*
X123501968Y-70698511D01*
X123245213Y-70807761D01*
X123007938Y-70954591D01*
X122795603Y-71135623D01*
X122613093Y-71346689D01*
X122464611Y-71582934D01*
X122353571Y-71838918D01*
X122282528Y-72108755D01*
X122253120Y-72386232D01*
X122266021Y-72664965D01*
X122320934Y-72938540D01*
X122416597Y-73200661D01*
X122550809Y-73445295D01*
X122720479Y-73666813D01*
X122921703Y-73860118D01*
X123149853Y-74020763D01*
X123307042Y-74098963D01*
X122875112Y-74098963D01*
X122574189Y-74179595D01*
X122398535Y-74326985D01*
X122286744Y-74520614D01*
X122249863Y-74729776D01*
X118744000Y-74729776D01*
X118744000Y-70484000D01*
X127547100Y-70484000D01*
X127547101Y-78179323D01*
X127547101Y-78179323D01*
G37*
X127547101Y-78179323D02*
X124093307Y-80914069D01*
X124044874Y-80944628D01*
X123992183Y-81004288D01*
X123937435Y-81062027D01*
X123932220Y-81072185D01*
X123924657Y-81080748D01*
X123890825Y-81152808D01*
X123854487Y-81223583D01*
X123852333Y-81234792D01*
X123847311Y-81245489D01*
X123836932Y-81314943D01*
X123820218Y-81401921D01*
X123826000Y-81462835D01*
X123826001Y-157257825D01*
X123819526Y-157306636D01*
X123832848Y-157393256D01*
X123845240Y-157479783D01*
X123846620Y-157482816D01*
X123847127Y-157486119D01*
X123884197Y-157565456D01*
X123920403Y-157645087D01*
X123922591Y-157647627D01*
X123924176Y-157651018D01*
X123965093Y-157696953D01*
X124038947Y-157782664D01*
X124083545Y-157811571D01*
X127547101Y-160697946D01*
X127547100Y-170816000D01*
X68034000Y-170816000D01*
X68034000Y-161438976D01*
X70358163Y-161438976D01*
X70358163Y-163866588D01*
X70438795Y-164167512D01*
X70586185Y-164343165D01*
X70779814Y-164454956D01*
X70988976Y-164491837D01*
X71412558Y-164491837D01*
X71353513Y-164516961D01*
X71116238Y-164663791D01*
X70903903Y-164844823D01*
X70721393Y-165055889D01*
X70572911Y-165292134D01*
X70461871Y-165548118D01*
X70390828Y-165817955D01*
X70361420Y-166095432D01*
X70374321Y-166374165D01*
X70429234Y-166647740D01*
X70524897Y-166909861D01*
X70659109Y-167154495D01*
X70828779Y-167376013D01*
X71030003Y-167569318D01*
X71258153Y-167729963D01*
X71507977Y-167854248D01*
X71773725Y-167939314D01*
X72049283Y-167983205D01*
X72328310Y-167984909D01*
X72604383Y-167944388D01*
X72871150Y-167862575D01*
X73122474Y-167741351D01*
X73352569Y-167583506D01*
X73556140Y-167392674D01*
X73641505Y-167284000D01*
X76477763Y-167284000D01*
X76477763Y-167480188D01*
X76558395Y-167781112D01*
X76705785Y-167956765D01*
X76899414Y-168068556D01*
X77108576Y-168105437D01*
X78836188Y-168105437D01*
X79137112Y-168024805D01*
X79312765Y-167877415D01*
X79424556Y-167683786D01*
X79461437Y-167474624D01*
X79461437Y-166487600D01*
X116736763Y-166487600D01*
X116736763Y-167226188D01*
X116817395Y-167527112D01*
X116964785Y-167702765D01*
X117158414Y-167814556D01*
X117367576Y-167851437D01*
X118100600Y-167851437D01*
X118100600Y-166487600D01*
X118356600Y-166487600D01*
X118356600Y-167851437D01*
X119095188Y-167851437D01*
X119396112Y-167770805D01*
X119571765Y-167623415D01*
X119683556Y-167429786D01*
X119720437Y-167220624D01*
X119720437Y-166487600D01*
X118356600Y-166487600D01*
X118100600Y-166487600D01*
X116736763Y-166487600D01*
X79461437Y-166487600D01*
X79461437Y-166278000D01*
X122428163Y-166278000D01*
X122428163Y-167366588D01*
X122508795Y-167667512D01*
X122656185Y-167843165D01*
X122849814Y-167954956D01*
X123058976Y-167991837D01*
X124142000Y-167991837D01*
X124142000Y-166278000D01*
X124398000Y-166278000D01*
X124398000Y-167991837D01*
X125486588Y-167991837D01*
X125787512Y-167911205D01*
X125963165Y-167763815D01*
X126074956Y-167570186D01*
X126111837Y-167361024D01*
X126111837Y-166278000D01*
X124398000Y-166278000D01*
X124142000Y-166278000D01*
X122428163Y-166278000D01*
X79461437Y-166278000D01*
X79461437Y-165747012D01*
X79394869Y-165498576D01*
X116736763Y-165498576D01*
X116736763Y-166231600D01*
X118100600Y-166231600D01*
X118100600Y-164867763D01*
X118356600Y-164867763D01*
X118356600Y-166231600D01*
X119720437Y-166231600D01*
X119720437Y-165493012D01*
X119639805Y-165192089D01*
X119492415Y-165016435D01*
X119298786Y-164904644D01*
X119089624Y-164867763D01*
X118356600Y-164867763D01*
X118100600Y-164867763D01*
X117362012Y-164867763D01*
X117061089Y-164948395D01*
X116885435Y-165095785D01*
X116773644Y-165289414D01*
X116736763Y-165498576D01*
X79394869Y-165498576D01*
X79380805Y-165446089D01*
X79233415Y-165270435D01*
X79039786Y-165158644D01*
X78830624Y-165121763D01*
X77990648Y-165121763D01*
X77945614Y-165104205D01*
X77847600Y-165059950D01*
X77818071Y-165054478D01*
X77789772Y-165043445D01*
X77691693Y-165031055D01*
X77577726Y-165009932D01*
X77472497Y-165016000D01*
X73645530Y-165016000D01*
X73627453Y-164989942D01*
X73435556Y-164787371D01*
X73215227Y-164616159D01*
X72992322Y-164491837D01*
X73416588Y-164491837D01*
X73717512Y-164411205D01*
X73893165Y-164263815D01*
X74004956Y-164070186D01*
X74041837Y-163861024D01*
X74041837Y-161433412D01*
X73961205Y-161132489D01*
X73813815Y-160956835D01*
X73620186Y-160845044D01*
X73411024Y-160808163D01*
X73334000Y-160808163D01*
X73334000Y-159202917D01*
X78743648Y-153793269D01*
X78818510Y-153727962D01*
X78880346Y-153639979D01*
X78946703Y-153555353D01*
X78959064Y-153527976D01*
X78976332Y-153503406D01*
X79015390Y-153403226D01*
X79059650Y-153305200D01*
X79065122Y-153275671D01*
X79076155Y-153247372D01*
X79088545Y-153149294D01*
X79109668Y-153035327D01*
X79103600Y-152930093D01*
X79103600Y-149999785D01*
X79137112Y-149990805D01*
X79312765Y-149843415D01*
X79424556Y-149649786D01*
X79461437Y-149440624D01*
X79461437Y-147718576D01*
X116736763Y-147718576D01*
X116736763Y-149446188D01*
X116817395Y-149747112D01*
X116964785Y-149922765D01*
X117094601Y-149997713D01*
X117094600Y-154741292D01*
X117087845Y-154840384D01*
X117106331Y-154946304D01*
X117119251Y-155053081D01*
X117129871Y-155081186D01*
X117135034Y-155110766D01*
X117178251Y-155209221D01*
X117216270Y-155309832D01*
X117233283Y-155334587D01*
X117245490Y-155362395D01*
X117306081Y-155440509D01*
X117371732Y-155536031D01*
X117450451Y-155606168D01*
X123090067Y-161245784D01*
X122973903Y-161344823D01*
X122791393Y-161555889D01*
X122642911Y-161792134D01*
X122531871Y-162048118D01*
X122460828Y-162317955D01*
X122431420Y-162595432D01*
X122444321Y-162874165D01*
X122499234Y-163147740D01*
X122594897Y-163409861D01*
X122729109Y-163654495D01*
X122898779Y-163876013D01*
X123100003Y-164069318D01*
X123328153Y-164229963D01*
X123485342Y-164308163D01*
X123053412Y-164308163D01*
X122752489Y-164388795D01*
X122576835Y-164536185D01*
X122465044Y-164729814D01*
X122428163Y-164938976D01*
X122428163Y-166022000D01*
X126111837Y-166022000D01*
X126111837Y-164933412D01*
X126031205Y-164632489D01*
X125883815Y-164456835D01*
X125690186Y-164345044D01*
X125481024Y-164308163D01*
X125053958Y-164308163D01*
X125192474Y-164241351D01*
X125422569Y-164083506D01*
X125626140Y-163892674D01*
X125798504Y-163673245D01*
X125935694Y-163430269D01*
X126034553Y-163169336D01*
X126093186Y-162894666D01*
X126104487Y-162513890D01*
X126062246Y-162236227D01*
X125979037Y-161969891D01*
X125856499Y-161719207D01*
X125697452Y-161489941D01*
X125505556Y-161287371D01*
X125415924Y-161217720D01*
X125427656Y-161154416D01*
X125447688Y-161091649D01*
X125452574Y-161019974D01*
X125465668Y-160949326D01*
X125461874Y-160883542D01*
X125466355Y-160817816D01*
X125454004Y-160747041D01*
X125449867Y-160675312D01*
X125430496Y-160612344D01*
X125419166Y-160547431D01*
X125390287Y-160481644D01*
X125369162Y-160412976D01*
X125335328Y-160356444D01*
X125308709Y-160295804D01*
X125266361Y-160241207D01*
X125228211Y-160177464D01*
X125175957Y-160124659D01*
X125174500Y-160122781D01*
X125136047Y-160084329D01*
X125035152Y-159982371D01*
X125032406Y-159980688D01*
X119362600Y-154310884D01*
X119362600Y-149999785D01*
X119396112Y-149990805D01*
X119571765Y-149843415D01*
X119683556Y-149649786D01*
X119720437Y-149440624D01*
X119720437Y-147713012D01*
X119639805Y-147412089D01*
X119492415Y-147236435D01*
X119298786Y-147124644D01*
X119089624Y-147087763D01*
X117362012Y-147087763D01*
X117061089Y-147168395D01*
X116885435Y-147315785D01*
X116773644Y-147509414D01*
X116736763Y-147718576D01*
X79461437Y-147718576D01*
X79461437Y-147713012D01*
X79380805Y-147412089D01*
X79233415Y-147236435D01*
X79039786Y-147124644D01*
X78830624Y-147087763D01*
X77103012Y-147087763D01*
X76802089Y-147168395D01*
X76626435Y-147315785D01*
X76514644Y-147509414D01*
X76477763Y-147718576D01*
X76477763Y-149446188D01*
X76558395Y-149747112D01*
X76705785Y-149922765D01*
X76835600Y-149997713D01*
X76835600Y-150498619D01*
X76835601Y-150498627D01*
X76835600Y-152493883D01*
X71425953Y-157903531D01*
X71351091Y-157968837D01*
X71289264Y-158056807D01*
X71222899Y-158141446D01*
X71210537Y-158168824D01*
X71193268Y-158193396D01*
X71154209Y-158293577D01*
X71109950Y-158391600D01*
X71104477Y-158421136D01*
X71093446Y-158449428D01*
X71081058Y-158547491D01*
X71059932Y-158661474D01*
X71066001Y-158766720D01*
X71066000Y-160808163D01*
X70983412Y-160808163D01*
X70682489Y-160888795D01*
X70506835Y-161036185D01*
X70395044Y-161229814D01*
X70358163Y-161438976D01*
X68034000Y-161438976D01*
X68034000Y-160696949D01*
X71493484Y-157814046D01*
X71535126Y-157787772D01*
X71593085Y-157722146D01*
X71651672Y-157657181D01*
X71653124Y-157654168D01*
X71655338Y-157651662D01*
X71692543Y-157572416D01*
X71730541Y-157493619D01*
X71731092Y-157490308D01*
X71732689Y-157486906D01*
X71741790Y-157426017D01*
X71760345Y-157314469D01*
X71754000Y-157261695D01*
X71754000Y-145162000D01*
X72170513Y-145162000D01*
X72233456Y-145461983D01*
X72325961Y-145696222D01*
X72456610Y-145911526D01*
X72621669Y-146101739D01*
X72816416Y-146261422D01*
X72890061Y-146303343D01*
X72726760Y-146413284D01*
X72544534Y-146587119D01*
X72394203Y-146789172D01*
X72280064Y-147013666D01*
X72205382Y-147254181D01*
X72172292Y-147503841D01*
X72181740Y-147755508D01*
X72233456Y-148001983D01*
X72325961Y-148236222D01*
X72456610Y-148451526D01*
X72621669Y-148641739D01*
X72816416Y-148801422D01*
X72890061Y-148843343D01*
X72726760Y-148953284D01*
X72544534Y-149127119D01*
X72394203Y-149329172D01*
X72280064Y-149553666D01*
X72205382Y-149794181D01*
X72172292Y-150043841D01*
X72181740Y-150295508D01*
X72233456Y-150541983D01*
X72325961Y-150776222D01*
X72456610Y-150991526D01*
X72621669Y-151181739D01*
X72816416Y-151341422D01*
X72890061Y-151383343D01*
X72726760Y-151493284D01*
X72544534Y-151667119D01*
X72394203Y-151869172D01*
X72280064Y-152093666D01*
X72205382Y-152334181D01*
X72172292Y-152583841D01*
X72181740Y-152835508D01*
X72233456Y-153081983D01*
X72325961Y-153316222D01*
X72456610Y-153531526D01*
X72621669Y-153721739D01*
X72816416Y-153881422D01*
X73035284Y-154006009D01*
X73274831Y-154092960D01*
X73614648Y-154138000D01*
X73723190Y-154138000D01*
X73910942Y-154122069D01*
X74154708Y-154058800D01*
X74384329Y-153955363D01*
X74593240Y-153814716D01*
X74775466Y-153640881D01*
X74925797Y-153438828D01*
X75039936Y-153214334D01*
X75114618Y-152973819D01*
X75147708Y-152724159D01*
X75138260Y-152472492D01*
X75086544Y-152226017D01*
X74994039Y-151991778D01*
X74863390Y-151776474D01*
X74698331Y-151586261D01*
X74503584Y-151426578D01*
X74429939Y-151384657D01*
X74593240Y-151274716D01*
X74775466Y-151100881D01*
X74925797Y-150898828D01*
X75039936Y-150674334D01*
X75114618Y-150433819D01*
X75147708Y-150184159D01*
X75138260Y-149932492D01*
X75086544Y-149686017D01*
X74994039Y-149451778D01*
X74863390Y-149236474D01*
X74698331Y-149046261D01*
X74503584Y-148886578D01*
X74429939Y-148844657D01*
X74593240Y-148734716D01*
X74775466Y-148560881D01*
X74925797Y-148358828D01*
X75039936Y-148134334D01*
X75114618Y-147893819D01*
X75147708Y-147644159D01*
X75138260Y-147392492D01*
X75086544Y-147146017D01*
X74994039Y-146911778D01*
X74863390Y-146696474D01*
X74698331Y-146506261D01*
X74503584Y-146346578D01*
X74429939Y-146304657D01*
X74593240Y-146194716D01*
X74775466Y-146020881D01*
X74925797Y-145818828D01*
X75039936Y-145594334D01*
X75114618Y-145353819D01*
X75140043Y-145162000D01*
X72170513Y-145162000D01*
X71754000Y-145162000D01*
X71754000Y-140754527D01*
X71754149Y-140755468D01*
X71781608Y-140809358D01*
X71800296Y-140866875D01*
X71835845Y-140915804D01*
X71863301Y-140969690D01*
X72033656Y-141140046D01*
X72033658Y-141140047D01*
X72483185Y-141589575D01*
X72394203Y-141709172D01*
X72280064Y-141933666D01*
X72205382Y-142174181D01*
X72172292Y-142423841D01*
X72181740Y-142675508D01*
X72233456Y-142921983D01*
X72325961Y-143156222D01*
X72456610Y-143371526D01*
X72621669Y-143561739D01*
X72816416Y-143721422D01*
X72890061Y-143763343D01*
X72726760Y-143873284D01*
X72544534Y-144047119D01*
X72394203Y-144249172D01*
X72280064Y-144473666D01*
X72205382Y-144714181D01*
X72179957Y-144906000D01*
X75149487Y-144906000D01*
X75086544Y-144606017D01*
X74994039Y-144371778D01*
X74863390Y-144156474D01*
X74698331Y-143966261D01*
X74503584Y-143806578D01*
X74429939Y-143764657D01*
X74593240Y-143654716D01*
X74775466Y-143480881D01*
X74925797Y-143278828D01*
X74938929Y-143253000D01*
X75871244Y-143253000D01*
X75871250Y-143252999D01*
X75931213Y-143252999D01*
X75988726Y-143234312D01*
X76048468Y-143224850D01*
X76102359Y-143197390D01*
X76159873Y-143178704D01*
X76208801Y-143143156D01*
X76262690Y-143115697D01*
X76433045Y-142945343D01*
X76433047Y-142945339D01*
X80210642Y-139167745D01*
X80236669Y-139197739D01*
X80431416Y-139357422D01*
X80472867Y-139381017D01*
X80341760Y-139469284D01*
X80159534Y-139643119D01*
X80009203Y-139845172D01*
X79895064Y-140069666D01*
X79820382Y-140310181D01*
X79794957Y-140502000D01*
X83014487Y-140502000D01*
X82951544Y-140202017D01*
X82859039Y-139967778D01*
X82728390Y-139752474D01*
X82563331Y-139562261D01*
X82368584Y-139402578D01*
X82327133Y-139378983D01*
X82458240Y-139290716D01*
X82640466Y-139116881D01*
X82790797Y-138914828D01*
X82904936Y-138690334D01*
X82979618Y-138449819D01*
X83012708Y-138200159D01*
X83003260Y-137948492D01*
X82951544Y-137702017D01*
X82859039Y-137467778D01*
X82728390Y-137252474D01*
X82563331Y-137062261D01*
X82368584Y-136902578D01*
X82327133Y-136878983D01*
X82458240Y-136790716D01*
X82640466Y-136616881D01*
X82790797Y-136414828D01*
X82904936Y-136190334D01*
X82979618Y-135949819D01*
X83012708Y-135700159D01*
X83003260Y-135448492D01*
X82951544Y-135202017D01*
X82859039Y-134967778D01*
X82728390Y-134752474D01*
X82710016Y-134731300D01*
X103406513Y-134731300D01*
X103842600Y-135167388D01*
X103842600Y-135264128D01*
X103913066Y-135527109D01*
X104049194Y-135762891D01*
X104241709Y-135955406D01*
X104477491Y-136091534D01*
X104740472Y-136162000D01*
X105012728Y-136162000D01*
X105275709Y-136091534D01*
X105511491Y-135955406D01*
X105704006Y-135762891D01*
X105711473Y-135749959D01*
X107969280Y-138007766D01*
X107874866Y-137964440D01*
X107646145Y-137908473D01*
X107410967Y-137896765D01*
X107177818Y-137929739D01*
X106955111Y-138006207D01*
X106750881Y-138123407D01*
X106572498Y-138277112D01*
X106426398Y-138461775D01*
X106317852Y-138670733D01*
X106250779Y-138896448D01*
X106227597Y-139130773D01*
X106249143Y-139365254D01*
X106294208Y-139520876D01*
X105256225Y-139520876D01*
X104902651Y-139597791D01*
X104684921Y-139737718D01*
X104518455Y-139929830D01*
X104476110Y-140022553D01*
X104354081Y-139894634D01*
X104152028Y-139744303D01*
X103927534Y-139630164D01*
X103687019Y-139555482D01*
X103495200Y-139530057D01*
X103495200Y-142749587D01*
X103658197Y-142715387D01*
X102562574Y-143811010D01*
X86008731Y-143811010D01*
X84553671Y-142355952D01*
X84488365Y-142281090D01*
X84400382Y-142219254D01*
X84315756Y-142152899D01*
X84288380Y-142140538D01*
X84263806Y-142123268D01*
X84163617Y-142084205D01*
X84065602Y-142039950D01*
X84036073Y-142034478D01*
X84007774Y-142023445D01*
X83909695Y-142011055D01*
X83795728Y-141989932D01*
X83690499Y-141996000D01*
X82828409Y-141996000D01*
X82797382Y-141947721D01*
X82605270Y-141781255D01*
X82512547Y-141738910D01*
X82640466Y-141616881D01*
X82790797Y-141414828D01*
X82904936Y-141190334D01*
X82974982Y-140964748D01*
X96883200Y-140964748D01*
X96883200Y-141323289D01*
X96899131Y-141511041D01*
X96962400Y-141754807D01*
X97065837Y-141984428D01*
X97206483Y-142193339D01*
X97380319Y-142375565D01*
X97582372Y-142525897D01*
X97806866Y-142640036D01*
X98047381Y-142714718D01*
X98297041Y-142747808D01*
X98548707Y-142738360D01*
X98795182Y-142686644D01*
X99029421Y-142594139D01*
X99244725Y-142463490D01*
X99434939Y-142298432D01*
X99594622Y-142103684D01*
X99618218Y-142062232D01*
X99706483Y-142193339D01*
X99880319Y-142375565D01*
X100082372Y-142525897D01*
X100306866Y-142640036D01*
X100547381Y-142714718D01*
X100797041Y-142747808D01*
X101048707Y-142738360D01*
X101295182Y-142686644D01*
X101529421Y-142594139D01*
X101744725Y-142463490D01*
X101934939Y-142298432D01*
X102094622Y-142103684D01*
X102118218Y-142062232D01*
X102206483Y-142193339D01*
X102380319Y-142375565D01*
X102582372Y-142525897D01*
X102806866Y-142640036D01*
X103047381Y-142714718D01*
X103239200Y-142740143D01*
X103239200Y-139520613D01*
X102939217Y-139583556D01*
X102704979Y-139676061D01*
X102489675Y-139806710D01*
X102299462Y-139971768D01*
X102139778Y-140166516D01*
X102116183Y-140207967D01*
X102027917Y-140076860D01*
X101854081Y-139894634D01*
X101652028Y-139744303D01*
X101427534Y-139630164D01*
X101187019Y-139555482D01*
X100937359Y-139522392D01*
X100685693Y-139531840D01*
X100439218Y-139583556D01*
X100204979Y-139676061D01*
X99989675Y-139806710D01*
X99799462Y-139971768D01*
X99639778Y-140166516D01*
X99616183Y-140207967D01*
X99527917Y-140076860D01*
X99354081Y-139894634D01*
X99152028Y-139744303D01*
X98927534Y-139630164D01*
X98687019Y-139555482D01*
X98437359Y-139522392D01*
X98185693Y-139531840D01*
X97939218Y-139583556D01*
X97704979Y-139676061D01*
X97489675Y-139806710D01*
X97299462Y-139971768D01*
X97139778Y-140166516D01*
X97015191Y-140385384D01*
X96928240Y-140624931D01*
X96883200Y-140964748D01*
X82974982Y-140964748D01*
X82979618Y-140949819D01*
X83005043Y-140758000D01*
X79785513Y-140758000D01*
X79848456Y-141057983D01*
X79940961Y-141292222D01*
X80071610Y-141507526D01*
X80236669Y-141697739D01*
X80282730Y-141735506D01*
X80092721Y-141857618D01*
X79926255Y-142049730D01*
X79820657Y-142280959D01*
X79785776Y-142523559D01*
X79785776Y-143740975D01*
X79862691Y-144094549D01*
X80002618Y-144312279D01*
X80194730Y-144478745D01*
X80425959Y-144584343D01*
X80668559Y-144619224D01*
X82135975Y-144619224D01*
X82171697Y-144611453D01*
X82160397Y-144725673D01*
X82181943Y-144960154D01*
X82247439Y-145186331D01*
X82354522Y-145396042D01*
X82499330Y-145581721D01*
X82676636Y-145736668D01*
X82880042Y-145855291D01*
X83102211Y-145933311D01*
X83335124Y-145967913D01*
X83570378Y-145957847D01*
X83799484Y-145903477D01*
X84014176Y-145806766D01*
X84206707Y-145671202D01*
X84370129Y-145501676D01*
X84418153Y-145427868D01*
X84709343Y-145719058D01*
X84774650Y-145793920D01*
X84862633Y-145855756D01*
X84947259Y-145922113D01*
X84974636Y-145934474D01*
X84999206Y-145951742D01*
X85099394Y-145990804D01*
X85197410Y-146035059D01*
X85226944Y-146040533D01*
X85255241Y-146051565D01*
X85353321Y-146063956D01*
X85467285Y-146085078D01*
X85572514Y-146079010D01*
X102992982Y-146079010D01*
X103092073Y-146085765D01*
X103197991Y-146067280D01*
X103304772Y-146054359D01*
X103332876Y-146043739D01*
X103362457Y-146038576D01*
X103460904Y-145995362D01*
X103561524Y-145957340D01*
X103586282Y-145940324D01*
X103614085Y-145928119D01*
X103692192Y-145867533D01*
X103787721Y-145801879D01*
X103857859Y-145723158D01*
X106641248Y-142939769D01*
X106716110Y-142874463D01*
X106777940Y-142786489D01*
X106844301Y-142701854D01*
X106856662Y-142674477D01*
X106873932Y-142649906D01*
X106876328Y-142643760D01*
X107049479Y-142532482D01*
X107215945Y-142340370D01*
X107321543Y-142109141D01*
X107356424Y-141866541D01*
X107356424Y-140399125D01*
X107349021Y-140365094D01*
X107402324Y-140373013D01*
X107637578Y-140362947D01*
X107866684Y-140308577D01*
X108081376Y-140211866D01*
X108273907Y-140076302D01*
X108437329Y-139906776D01*
X108565748Y-139709408D01*
X108654528Y-139491315D01*
X108700498Y-139260208D01*
X108701341Y-139018606D01*
X108656986Y-138787182D01*
X108596110Y-138634596D01*
X113269933Y-143308420D01*
X113255382Y-143355281D01*
X113222292Y-143604941D01*
X113231740Y-143856608D01*
X113283456Y-144103083D01*
X113375961Y-144337322D01*
X113506610Y-144552626D01*
X113671669Y-144742839D01*
X113866416Y-144902522D01*
X114085284Y-145027109D01*
X114324831Y-145114060D01*
X114664648Y-145159100D01*
X114773190Y-145159100D01*
X114960942Y-145143169D01*
X115204708Y-145079900D01*
X115434329Y-144976463D01*
X115643240Y-144835816D01*
X115825466Y-144661981D01*
X115975797Y-144459928D01*
X116089936Y-144235434D01*
X116164618Y-143994919D01*
X116197708Y-143745259D01*
X116188260Y-143493592D01*
X116136544Y-143247117D01*
X116044039Y-143012878D01*
X115913390Y-142797574D01*
X115748331Y-142607361D01*
X115553584Y-142447678D01*
X115479939Y-142405757D01*
X115643240Y-142295816D01*
X115825466Y-142121981D01*
X115975797Y-141919928D01*
X116089936Y-141695434D01*
X116164618Y-141454919D01*
X116197708Y-141205259D01*
X116188260Y-140953592D01*
X116136544Y-140707117D01*
X116044039Y-140472878D01*
X115913390Y-140257574D01*
X115748331Y-140067361D01*
X115553584Y-139907678D01*
X115479939Y-139865757D01*
X115643240Y-139755816D01*
X115825466Y-139581981D01*
X115975797Y-139379928D01*
X116089936Y-139155434D01*
X116164618Y-138914919D01*
X116190043Y-138723100D01*
X113220513Y-138723100D01*
X113283456Y-139023083D01*
X113375961Y-139257322D01*
X113506610Y-139472626D01*
X113671669Y-139662839D01*
X113866416Y-139822522D01*
X113940061Y-139864443D01*
X113776760Y-139974384D01*
X113594534Y-140148219D01*
X113594487Y-140148282D01*
X102494866Y-129048661D01*
X102494864Y-129048657D01*
X102324509Y-128878303D01*
X102270620Y-128850844D01*
X102221692Y-128815296D01*
X102164178Y-128796610D01*
X102110287Y-128769150D01*
X102050545Y-128759688D01*
X101993032Y-128741001D01*
X101933069Y-128741001D01*
X101933063Y-128741000D01*
X80284388Y-128741000D01*
X75100067Y-123556681D01*
X75114618Y-123509819D01*
X75147708Y-123260159D01*
X75138260Y-123008492D01*
X75086544Y-122762017D01*
X74994039Y-122527778D01*
X74863390Y-122312474D01*
X74698331Y-122122261D01*
X74503584Y-121962578D01*
X74429939Y-121920657D01*
X74593240Y-121810716D01*
X74775466Y-121636881D01*
X74925797Y-121434828D01*
X74938929Y-121409000D01*
X85916846Y-121409000D01*
X85915072Y-121409894D01*
X85647203Y-121590915D01*
X85404505Y-121804505D01*
X85190915Y-122047203D01*
X85009894Y-122315072D01*
X84864377Y-122603772D01*
X84756723Y-122908622D01*
X84688678Y-123224680D01*
X84661344Y-123546823D01*
X84675164Y-123869828D01*
X84729915Y-124188458D01*
X84824708Y-124497548D01*
X84958007Y-124792089D01*
X85127653Y-125067304D01*
X85330892Y-125318733D01*
X85564433Y-125542298D01*
X85824487Y-125734378D01*
X86106840Y-125891856D01*
X86406915Y-126012182D01*
X86719847Y-126093402D01*
X87040561Y-126134203D01*
X87363862Y-126133920D01*
X87684505Y-126092560D01*
X87997293Y-126010794D01*
X88297157Y-125889945D01*
X88579236Y-125731974D01*
X88838955Y-125539441D01*
X89072105Y-125315467D01*
X89274906Y-125063684D01*
X89444069Y-124788174D01*
X89576854Y-124493401D01*
X89671109Y-124184145D01*
X89725516Y-123864168D01*
X89734363Y-123441822D01*
X89693402Y-123119847D01*
X89612182Y-122806915D01*
X89491856Y-122506840D01*
X89334378Y-122224487D01*
X89142298Y-121964433D01*
X88918733Y-121730892D01*
X88667304Y-121527653D01*
X88474814Y-121409000D01*
X100328433Y-121409000D01*
X112900333Y-133980901D01*
X113056229Y-134136798D01*
X113110115Y-134164254D01*
X113159043Y-134199803D01*
X113216567Y-134218494D01*
X113270453Y-134245950D01*
X113330186Y-134255411D01*
X113387705Y-134274100D01*
X113434687Y-134274100D01*
X113506610Y-134392626D01*
X113671669Y-134582839D01*
X113866416Y-134742522D01*
X113940061Y-134784443D01*
X113776760Y-134894384D01*
X113594534Y-135068219D01*
X113444203Y-135270272D01*
X113330064Y-135494766D01*
X113255382Y-135735281D01*
X113222292Y-135984941D01*
X113231740Y-136236608D01*
X113283456Y-136483083D01*
X113375961Y-136717322D01*
X113506610Y-136932626D01*
X113671669Y-137122839D01*
X113866416Y-137282522D01*
X113940061Y-137324443D01*
X113776760Y-137434384D01*
X113594534Y-137608219D01*
X113444203Y-137810272D01*
X113330064Y-138034766D01*
X113255382Y-138275281D01*
X113229957Y-138467100D01*
X116199487Y-138467100D01*
X116136544Y-138167117D01*
X116044039Y-137932878D01*
X115913390Y-137717574D01*
X115748331Y-137527361D01*
X115553584Y-137367678D01*
X115479939Y-137325757D01*
X115643240Y-137215816D01*
X115671245Y-137189100D01*
X117588092Y-137189100D01*
X117687183Y-137195855D01*
X117793101Y-137177370D01*
X117899882Y-137164449D01*
X117927986Y-137153829D01*
X117957567Y-137148666D01*
X118056014Y-137105452D01*
X118156634Y-137067430D01*
X118181392Y-137050414D01*
X118209195Y-137038209D01*
X118287302Y-136977623D01*
X118382831Y-136911969D01*
X118452969Y-136833248D01*
X120167218Y-135119000D01*
X120962480Y-135119000D01*
X121076416Y-135212422D01*
X121150061Y-135254343D01*
X120986760Y-135364284D01*
X120804534Y-135538119D01*
X120654203Y-135740172D01*
X120540064Y-135964666D01*
X120465382Y-136205181D01*
X120432292Y-136454841D01*
X120441740Y-136706508D01*
X120493456Y-136952983D01*
X120585961Y-137187222D01*
X120716610Y-137402526D01*
X120881669Y-137592739D01*
X121076416Y-137752422D01*
X121150061Y-137794343D01*
X120986760Y-137904284D01*
X120804534Y-138078119D01*
X120654203Y-138280172D01*
X120540064Y-138504666D01*
X120465382Y-138745181D01*
X120432292Y-138994841D01*
X120441740Y-139246508D01*
X120493456Y-139492983D01*
X120585961Y-139727222D01*
X120716610Y-139942526D01*
X120881669Y-140132739D01*
X121076416Y-140292422D01*
X121150061Y-140334343D01*
X120986760Y-140444284D01*
X120804534Y-140618119D01*
X120654203Y-140820172D01*
X120540064Y-141044666D01*
X120465382Y-141285181D01*
X120432292Y-141534841D01*
X120441740Y-141786508D01*
X120493456Y-142032983D01*
X120585961Y-142267222D01*
X120716610Y-142482526D01*
X120881669Y-142672739D01*
X120905975Y-142692669D01*
X120752489Y-142733795D01*
X120576835Y-142881185D01*
X120465044Y-143074814D01*
X120428163Y-143283976D01*
X120428163Y-145011588D01*
X120508795Y-145312512D01*
X120656185Y-145488165D01*
X120849814Y-145599956D01*
X121058976Y-145636837D01*
X122786588Y-145636837D01*
X123087512Y-145556205D01*
X123263165Y-145408815D01*
X123374956Y-145215186D01*
X123411837Y-145006024D01*
X123411837Y-143278412D01*
X123331205Y-142977489D01*
X123183815Y-142801835D01*
X122990186Y-142690044D01*
X122941554Y-142681469D01*
X123035466Y-142591881D01*
X123185797Y-142389828D01*
X123299936Y-142165334D01*
X123374618Y-141924819D01*
X123407708Y-141675159D01*
X123398260Y-141423492D01*
X123346544Y-141177017D01*
X123254039Y-140942778D01*
X123123390Y-140727474D01*
X122958331Y-140537261D01*
X122763584Y-140377578D01*
X122689939Y-140335657D01*
X122853240Y-140225716D01*
X123035466Y-140051881D01*
X123185797Y-139849828D01*
X123299936Y-139625334D01*
X123374618Y-139384819D01*
X123407708Y-139135159D01*
X123398260Y-138883492D01*
X123346544Y-138637017D01*
X123254039Y-138402778D01*
X123123390Y-138187474D01*
X122958331Y-137997261D01*
X122763584Y-137837578D01*
X122689939Y-137795657D01*
X122853240Y-137685716D01*
X123035466Y-137511881D01*
X123185797Y-137309828D01*
X123299936Y-137085334D01*
X123374618Y-136844819D01*
X123407708Y-136595159D01*
X123398260Y-136343492D01*
X123346544Y-136097017D01*
X123254039Y-135862778D01*
X123123390Y-135647474D01*
X122958331Y-135457261D01*
X122763584Y-135297578D01*
X122689939Y-135255657D01*
X122853240Y-135145716D01*
X123035466Y-134971881D01*
X123185797Y-134769828D01*
X123299936Y-134545334D01*
X123374618Y-134304819D01*
X123407708Y-134055159D01*
X123398260Y-133803492D01*
X123346544Y-133557017D01*
X123254039Y-133322778D01*
X123123390Y-133107474D01*
X122958331Y-132917261D01*
X122763584Y-132757578D01*
X122689939Y-132715657D01*
X122853240Y-132605716D01*
X123035466Y-132431881D01*
X123185797Y-132229828D01*
X123299936Y-132005334D01*
X123374618Y-131764819D01*
X123400043Y-131573000D01*
X121792000Y-131573000D01*
X121792000Y-131317000D01*
X123409487Y-131317000D01*
X123346544Y-131017017D01*
X123254039Y-130782778D01*
X123123390Y-130567474D01*
X122958331Y-130377261D01*
X122763584Y-130217578D01*
X122689939Y-130175657D01*
X122853240Y-130065716D01*
X123035466Y-129891881D01*
X123185797Y-129689828D01*
X123299936Y-129465334D01*
X123374618Y-129224819D01*
X123400043Y-129033000D01*
X120430513Y-129033000D01*
X120493456Y-129332983D01*
X120585961Y-129567222D01*
X120716610Y-129782526D01*
X120881669Y-129972739D01*
X121076416Y-130132422D01*
X121150061Y-130174343D01*
X120986760Y-130284284D01*
X120804534Y-130458119D01*
X120654203Y-130660172D01*
X120540064Y-130884666D01*
X120512418Y-130973701D01*
X118179019Y-128640303D01*
X118179019Y-126294841D01*
X120432292Y-126294841D01*
X120441740Y-126546508D01*
X120493456Y-126792983D01*
X120585961Y-127027222D01*
X120716610Y-127242526D01*
X120881669Y-127432739D01*
X121076416Y-127592422D01*
X121150061Y-127634343D01*
X120986760Y-127744284D01*
X120804534Y-127918119D01*
X120654203Y-128120172D01*
X120540064Y-128344666D01*
X120465382Y-128585181D01*
X120439957Y-128777000D01*
X123409487Y-128777000D01*
X123346544Y-128477017D01*
X123254039Y-128242778D01*
X123123390Y-128027474D01*
X122958331Y-127837261D01*
X122763584Y-127677578D01*
X122689939Y-127635657D01*
X122853240Y-127525716D01*
X123035466Y-127351881D01*
X123185797Y-127149828D01*
X123299936Y-126925334D01*
X123374618Y-126684819D01*
X123407708Y-126435159D01*
X123398260Y-126183492D01*
X123346544Y-125937017D01*
X123254039Y-125702778D01*
X123123390Y-125487474D01*
X122958331Y-125297261D01*
X122763584Y-125137578D01*
X122544716Y-125012991D01*
X122305169Y-124926040D01*
X121965352Y-124881000D01*
X121856810Y-124881000D01*
X121669058Y-124896931D01*
X121425292Y-124960200D01*
X121195671Y-125063637D01*
X120986760Y-125204284D01*
X120804534Y-125378119D01*
X120654203Y-125580172D01*
X120540064Y-125804666D01*
X120465382Y-126045181D01*
X120432292Y-126294841D01*
X118179019Y-126294841D01*
X118179019Y-120423976D01*
X120428163Y-120423976D01*
X120428163Y-122151588D01*
X120508795Y-122452512D01*
X120656185Y-122628165D01*
X120849814Y-122739956D01*
X121058976Y-122776837D01*
X122786588Y-122776837D01*
X123087512Y-122696205D01*
X123263165Y-122548815D01*
X123374956Y-122355186D01*
X123411837Y-122146024D01*
X123411837Y-120418412D01*
X123331205Y-120117489D01*
X123183815Y-119941835D01*
X122990186Y-119830044D01*
X122941554Y-119821469D01*
X123035466Y-119731881D01*
X123185797Y-119529828D01*
X123299936Y-119305334D01*
X123374618Y-119064819D01*
X123407708Y-118815159D01*
X123398260Y-118563492D01*
X123346544Y-118317017D01*
X123254039Y-118082778D01*
X123123390Y-117867474D01*
X122958331Y-117677261D01*
X122763584Y-117517578D01*
X122689939Y-117475657D01*
X122853240Y-117365716D01*
X123035466Y-117191881D01*
X123185797Y-116989828D01*
X123299936Y-116765334D01*
X123374618Y-116524819D01*
X123407708Y-116275159D01*
X123398260Y-116023492D01*
X123346544Y-115777017D01*
X123254039Y-115542778D01*
X123123390Y-115327474D01*
X122958331Y-115137261D01*
X122763584Y-114977578D01*
X122689939Y-114935657D01*
X122853240Y-114825716D01*
X123035466Y-114651881D01*
X123185797Y-114449828D01*
X123299936Y-114225334D01*
X123374618Y-113984819D01*
X123407708Y-113735159D01*
X123398260Y-113483492D01*
X123346544Y-113237017D01*
X123254039Y-113002778D01*
X123123390Y-112787474D01*
X122958331Y-112597261D01*
X122763584Y-112437578D01*
X122689939Y-112395657D01*
X122853240Y-112285716D01*
X123035466Y-112111881D01*
X123185797Y-111909828D01*
X123299936Y-111685334D01*
X123374618Y-111444819D01*
X123407708Y-111195159D01*
X123398260Y-110943492D01*
X123346544Y-110697017D01*
X123254039Y-110462778D01*
X123123390Y-110247474D01*
X122958331Y-110057261D01*
X122763584Y-109897578D01*
X122689939Y-109855657D01*
X122853240Y-109745716D01*
X123035466Y-109571881D01*
X123185797Y-109369828D01*
X123299936Y-109145334D01*
X123374618Y-108904819D01*
X123407708Y-108655159D01*
X123398260Y-108403492D01*
X123346544Y-108157017D01*
X123254039Y-107922778D01*
X123123390Y-107707474D01*
X122958331Y-107517261D01*
X122763584Y-107357578D01*
X122689939Y-107315657D01*
X122853240Y-107205716D01*
X123035466Y-107031881D01*
X123185797Y-106829828D01*
X123299936Y-106605334D01*
X123374618Y-106364819D01*
X123407708Y-106115159D01*
X123398260Y-105863492D01*
X123346544Y-105617017D01*
X123254039Y-105382778D01*
X123123390Y-105167474D01*
X122958331Y-104977261D01*
X122763584Y-104817578D01*
X122689939Y-104775657D01*
X122853240Y-104665716D01*
X123035466Y-104491881D01*
X123185797Y-104289828D01*
X123299936Y-104065334D01*
X123374618Y-103824819D01*
X123407708Y-103575159D01*
X123398260Y-103323492D01*
X123346544Y-103077017D01*
X123254039Y-102842778D01*
X123123390Y-102627474D01*
X122958331Y-102437261D01*
X122763584Y-102277578D01*
X122544716Y-102152991D01*
X122305169Y-102066040D01*
X121965352Y-102021000D01*
X121856810Y-102021000D01*
X121669058Y-102036931D01*
X121425292Y-102100200D01*
X121195671Y-102203637D01*
X120986760Y-102344284D01*
X120804534Y-102518119D01*
X120654203Y-102720172D01*
X120540064Y-102944666D01*
X120465382Y-103185181D01*
X120432292Y-103434841D01*
X120441740Y-103686508D01*
X120493456Y-103932983D01*
X120585961Y-104167222D01*
X120716610Y-104382526D01*
X120881669Y-104572739D01*
X121076416Y-104732422D01*
X121150061Y-104774343D01*
X120986760Y-104884284D01*
X120804534Y-105058119D01*
X120654203Y-105260172D01*
X120540064Y-105484666D01*
X120465382Y-105725181D01*
X120432292Y-105974841D01*
X120441740Y-106226508D01*
X120493456Y-106472983D01*
X120585961Y-106707222D01*
X120716610Y-106922526D01*
X120881669Y-107112739D01*
X121076416Y-107272422D01*
X121150061Y-107314343D01*
X120986760Y-107424284D01*
X120804534Y-107598119D01*
X120654203Y-107800172D01*
X120540064Y-108024666D01*
X120465382Y-108265181D01*
X120432292Y-108514841D01*
X120441740Y-108766508D01*
X120493456Y-109012983D01*
X120585961Y-109247222D01*
X120716610Y-109462526D01*
X120881669Y-109652739D01*
X121076416Y-109812422D01*
X121150061Y-109854343D01*
X120986760Y-109964284D01*
X120804534Y-110138119D01*
X120654203Y-110340172D01*
X120540064Y-110564666D01*
X120465382Y-110805181D01*
X120432292Y-111054841D01*
X120441740Y-111306508D01*
X120493456Y-111552983D01*
X120585961Y-111787222D01*
X120716610Y-112002526D01*
X120881669Y-112192739D01*
X121076416Y-112352422D01*
X121150061Y-112394343D01*
X120986760Y-112504284D01*
X120804534Y-112678119D01*
X120654203Y-112880172D01*
X120540064Y-113104666D01*
X120465382Y-113345181D01*
X120432292Y-113594841D01*
X120441740Y-113846508D01*
X120493456Y-114092983D01*
X120585961Y-114327222D01*
X120716610Y-114542526D01*
X120881669Y-114732739D01*
X121076416Y-114892422D01*
X121150061Y-114934343D01*
X120986760Y-115044284D01*
X120804534Y-115218119D01*
X120654203Y-115420172D01*
X120540064Y-115644666D01*
X120465382Y-115885181D01*
X120432292Y-116134841D01*
X120441740Y-116386508D01*
X120493456Y-116632983D01*
X120585961Y-116867222D01*
X120716610Y-117082526D01*
X120881669Y-117272739D01*
X121076416Y-117432422D01*
X121150061Y-117474343D01*
X120986760Y-117584284D01*
X120804534Y-117758119D01*
X120654203Y-117960172D01*
X120540064Y-118184666D01*
X120465382Y-118425181D01*
X120432292Y-118674841D01*
X120441740Y-118926508D01*
X120493456Y-119172983D01*
X120585961Y-119407222D01*
X120716610Y-119622526D01*
X120881669Y-119812739D01*
X120905975Y-119832669D01*
X120752489Y-119873795D01*
X120576835Y-120021185D01*
X120465044Y-120214814D01*
X120428163Y-120423976D01*
X118179019Y-120423976D01*
X118179019Y-103374336D01*
X118185775Y-103275234D01*
X118167287Y-103169302D01*
X118154368Y-103062536D01*
X118143748Y-103034432D01*
X118138585Y-103004852D01*
X118095368Y-102906398D01*
X118057349Y-102805784D01*
X118040336Y-102781032D01*
X118028129Y-102753223D01*
X117967545Y-102675120D01*
X117901888Y-102579588D01*
X117823175Y-102509458D01*
X116190446Y-100876730D01*
X116188260Y-100818492D01*
X116136544Y-100572017D01*
X116044039Y-100337778D01*
X115913390Y-100122474D01*
X115748331Y-99932261D01*
X115553584Y-99772578D01*
X115479939Y-99730657D01*
X115643240Y-99620716D01*
X115825466Y-99446881D01*
X115975797Y-99244828D01*
X116089936Y-99020334D01*
X116164618Y-98779819D01*
X116197708Y-98530159D01*
X116188260Y-98278492D01*
X116136544Y-98032017D01*
X116044039Y-97797778D01*
X115913390Y-97582474D01*
X115748331Y-97392261D01*
X115724025Y-97372331D01*
X115877512Y-97331205D01*
X116053165Y-97183815D01*
X116164956Y-96990186D01*
X116201837Y-96781024D01*
X116201837Y-95053412D01*
X116121205Y-94752489D01*
X115973815Y-94576835D01*
X115780186Y-94465044D01*
X115571024Y-94428163D01*
X113843412Y-94428163D01*
X113542489Y-94508795D01*
X113366835Y-94656185D01*
X113255044Y-94849814D01*
X113218163Y-95058976D01*
X113218163Y-96786588D01*
X113298795Y-97087512D01*
X113446185Y-97263165D01*
X113639814Y-97374956D01*
X113688446Y-97383531D01*
X113594534Y-97473119D01*
X113444203Y-97675172D01*
X113330064Y-97899666D01*
X113255382Y-98140181D01*
X113222292Y-98389841D01*
X113231740Y-98641508D01*
X113283456Y-98887983D01*
X113375961Y-99122222D01*
X113506610Y-99337526D01*
X113671669Y-99527739D01*
X113866416Y-99687422D01*
X113940061Y-99729343D01*
X113776760Y-99839284D01*
X113594534Y-100013119D01*
X113444203Y-100215172D01*
X113330064Y-100439666D01*
X113255382Y-100680181D01*
X113222292Y-100929841D01*
X113231740Y-101181508D01*
X113283456Y-101427983D01*
X113375961Y-101662222D01*
X113506610Y-101877526D01*
X113671669Y-102067739D01*
X113866416Y-102227422D01*
X113940061Y-102269343D01*
X113776760Y-102379284D01*
X113594534Y-102553119D01*
X113444203Y-102755172D01*
X113330064Y-102979666D01*
X113255382Y-103220181D01*
X113229957Y-103412000D01*
X114838000Y-103412000D01*
X114838000Y-103668000D01*
X113220513Y-103668000D01*
X113283456Y-103967983D01*
X113375961Y-104202222D01*
X113506610Y-104417526D01*
X113671669Y-104607739D01*
X113866416Y-104767422D01*
X113940061Y-104809343D01*
X113776760Y-104919284D01*
X113594534Y-105093119D01*
X113444203Y-105295172D01*
X113330064Y-105519666D01*
X113255382Y-105760181D01*
X113222292Y-106009841D01*
X113231740Y-106261508D01*
X113283456Y-106507983D01*
X113375961Y-106742222D01*
X113506610Y-106957526D01*
X113671669Y-107147739D01*
X113866416Y-107307422D01*
X113940061Y-107349343D01*
X113776760Y-107459284D01*
X113594534Y-107633119D01*
X113444203Y-107835172D01*
X113330064Y-108059666D01*
X113255382Y-108300181D01*
X113222292Y-108549841D01*
X113231740Y-108801508D01*
X113283456Y-109047983D01*
X113375961Y-109282222D01*
X113506610Y-109497526D01*
X113671669Y-109687739D01*
X113866416Y-109847422D01*
X114085284Y-109972009D01*
X114324831Y-110058960D01*
X114664648Y-110104000D01*
X114773190Y-110104000D01*
X114960942Y-110088069D01*
X115204708Y-110024800D01*
X115434329Y-109921363D01*
X115643240Y-109780716D01*
X115825466Y-109606881D01*
X115911019Y-109491893D01*
X115911019Y-113537631D01*
X115587045Y-113213658D01*
X115587044Y-113213656D01*
X115416688Y-113043300D01*
X115407308Y-113038521D01*
X114970040Y-112601253D01*
X114916151Y-112573794D01*
X114867223Y-112538246D01*
X114809709Y-112519560D01*
X114755818Y-112492100D01*
X114696076Y-112482638D01*
X114638563Y-112463951D01*
X114578600Y-112463951D01*
X114578594Y-112463950D01*
X103207337Y-112463950D01*
X83463086Y-92719700D01*
X94823438Y-92719700D01*
X94756723Y-92908622D01*
X94688678Y-93224680D01*
X94661344Y-93546823D01*
X94675164Y-93869828D01*
X94729915Y-94188458D01*
X94824708Y-94497548D01*
X94958007Y-94792089D01*
X95127653Y-95067304D01*
X95330892Y-95318733D01*
X95564433Y-95542298D01*
X95824487Y-95734378D01*
X96106840Y-95891856D01*
X96406915Y-96012182D01*
X96719847Y-96093402D01*
X97040561Y-96134203D01*
X97363862Y-96133920D01*
X97684505Y-96092560D01*
X97997293Y-96010794D01*
X98297157Y-95889945D01*
X98579236Y-95731974D01*
X98838955Y-95539441D01*
X99072105Y-95315467D01*
X99274906Y-95063684D01*
X99444069Y-94788174D01*
X99576854Y-94493401D01*
X99671109Y-94184145D01*
X99725516Y-93864168D01*
X99734363Y-93441822D01*
X99693402Y-93119847D01*
X99612182Y-92806915D01*
X99491856Y-92506840D01*
X99334378Y-92224487D01*
X99193608Y-92033900D01*
X116430344Y-92033900D01*
X116430350Y-92033899D01*
X116490313Y-92033899D01*
X116547826Y-92015212D01*
X116607568Y-92005750D01*
X116661459Y-91978290D01*
X116718973Y-91959604D01*
X116767901Y-91924056D01*
X116821790Y-91896597D01*
X116992145Y-91726243D01*
X116992147Y-91726239D01*
X120435594Y-88282793D01*
X120441740Y-88446508D01*
X120493456Y-88692983D01*
X120585961Y-88927222D01*
X120716610Y-89142526D01*
X120881669Y-89332739D01*
X121076416Y-89492422D01*
X121150061Y-89534343D01*
X120986760Y-89644284D01*
X120804534Y-89818119D01*
X120654203Y-90020172D01*
X120540064Y-90244666D01*
X120465382Y-90485181D01*
X120432292Y-90734841D01*
X120441740Y-90986508D01*
X120493456Y-91232983D01*
X120585961Y-91467222D01*
X120716610Y-91682526D01*
X120881669Y-91872739D01*
X121076416Y-92032422D01*
X121150061Y-92074343D01*
X120986760Y-92184284D01*
X120804534Y-92358119D01*
X120654203Y-92560172D01*
X120540064Y-92784666D01*
X120465382Y-93025181D01*
X120432292Y-93274841D01*
X120441740Y-93526508D01*
X120493456Y-93772983D01*
X120585961Y-94007222D01*
X120716610Y-94222526D01*
X120881669Y-94412739D01*
X121076416Y-94572422D01*
X121150061Y-94614343D01*
X120986760Y-94724284D01*
X120804534Y-94898119D01*
X120654203Y-95100172D01*
X120540064Y-95324666D01*
X120465382Y-95565181D01*
X120432292Y-95814841D01*
X120441740Y-96066508D01*
X120493456Y-96312983D01*
X120585961Y-96547222D01*
X120716610Y-96762526D01*
X120881669Y-96952739D01*
X120905975Y-96972669D01*
X120752489Y-97013795D01*
X120576835Y-97161185D01*
X120465044Y-97354814D01*
X120428163Y-97563976D01*
X120428163Y-99291588D01*
X120508795Y-99592512D01*
X120656185Y-99768165D01*
X120849814Y-99879956D01*
X121058976Y-99916837D01*
X122786588Y-99916837D01*
X123087512Y-99836205D01*
X123263165Y-99688815D01*
X123374956Y-99495186D01*
X123411837Y-99286024D01*
X123411837Y-97558412D01*
X123331205Y-97257489D01*
X123183815Y-97081835D01*
X122990186Y-96970044D01*
X122941554Y-96961469D01*
X123035466Y-96871881D01*
X123185797Y-96669828D01*
X123299936Y-96445334D01*
X123374618Y-96204819D01*
X123407708Y-95955159D01*
X123398260Y-95703492D01*
X123346544Y-95457017D01*
X123254039Y-95222778D01*
X123123390Y-95007474D01*
X122958331Y-94817261D01*
X122763584Y-94657578D01*
X122689939Y-94615657D01*
X122853240Y-94505716D01*
X123035466Y-94331881D01*
X123185797Y-94129828D01*
X123299936Y-93905334D01*
X123374618Y-93664819D01*
X123407708Y-93415159D01*
X123398260Y-93163492D01*
X123346544Y-92917017D01*
X123254039Y-92682778D01*
X123123390Y-92467474D01*
X122958331Y-92277261D01*
X122763584Y-92117578D01*
X122689939Y-92075657D01*
X122853240Y-91965716D01*
X123035466Y-91791881D01*
X123185797Y-91589828D01*
X123299936Y-91365334D01*
X123374618Y-91124819D01*
X123407708Y-90875159D01*
X123398260Y-90623492D01*
X123346544Y-90377017D01*
X123254039Y-90142778D01*
X123123390Y-89927474D01*
X122958331Y-89737261D01*
X122763584Y-89577578D01*
X122689939Y-89535657D01*
X122853240Y-89425716D01*
X123035466Y-89251881D01*
X123185797Y-89049828D01*
X123299936Y-88825334D01*
X123374618Y-88584819D01*
X123407708Y-88335159D01*
X123398260Y-88083492D01*
X123346544Y-87837017D01*
X123254039Y-87602778D01*
X123123390Y-87387474D01*
X122958331Y-87197261D01*
X122763584Y-87037578D01*
X122689939Y-86995657D01*
X122853240Y-86885716D01*
X123035466Y-86711881D01*
X123185797Y-86509828D01*
X123299936Y-86285334D01*
X123374618Y-86044819D01*
X123407708Y-85795159D01*
X123398260Y-85543492D01*
X123346544Y-85297017D01*
X123254039Y-85062778D01*
X123123390Y-84847474D01*
X122958331Y-84657261D01*
X122763584Y-84497578D01*
X122689939Y-84455657D01*
X122853240Y-84345716D01*
X123035466Y-84171881D01*
X123185797Y-83969828D01*
X123299936Y-83745334D01*
X123374618Y-83504819D01*
X123407708Y-83255159D01*
X123398260Y-83003492D01*
X123346544Y-82757017D01*
X123254039Y-82522778D01*
X123123390Y-82307474D01*
X122958331Y-82117261D01*
X122763584Y-81957578D01*
X122689939Y-81915657D01*
X122853240Y-81805716D01*
X123035466Y-81631881D01*
X123185797Y-81429828D01*
X123299936Y-81205334D01*
X123374618Y-80964819D01*
X123407708Y-80715159D01*
X123398260Y-80463492D01*
X123346544Y-80217017D01*
X123254039Y-79982778D01*
X123123390Y-79767474D01*
X122958331Y-79577261D01*
X122763584Y-79417578D01*
X122544716Y-79292991D01*
X122305169Y-79206040D01*
X121965352Y-79161000D01*
X121856810Y-79161000D01*
X121669058Y-79176931D01*
X121425292Y-79240200D01*
X121195671Y-79343637D01*
X120986760Y-79484284D01*
X120804534Y-79658119D01*
X120654203Y-79860172D01*
X120540064Y-80084666D01*
X120465382Y-80325181D01*
X120432292Y-80574841D01*
X120441740Y-80826508D01*
X120493456Y-81072983D01*
X120585961Y-81307222D01*
X120716610Y-81522526D01*
X120881669Y-81712739D01*
X121076416Y-81872422D01*
X121150061Y-81914343D01*
X120986760Y-82024284D01*
X120804534Y-82198119D01*
X120654203Y-82400172D01*
X120540064Y-82624666D01*
X120465382Y-82865181D01*
X120432292Y-83114841D01*
X120441740Y-83366508D01*
X120480478Y-83551135D01*
X118090614Y-85941000D01*
X114811313Y-85941000D01*
X114739390Y-85822474D01*
X114574331Y-85632261D01*
X114379584Y-85472578D01*
X114338133Y-85448983D01*
X114469240Y-85360716D01*
X114651466Y-85186881D01*
X114801797Y-84984828D01*
X114915936Y-84760334D01*
X114990618Y-84519819D01*
X115016043Y-84328000D01*
X111796513Y-84328000D01*
X111859456Y-84627983D01*
X111951961Y-84862222D01*
X112082610Y-85077526D01*
X112247669Y-85267739D01*
X112442416Y-85427422D01*
X112483867Y-85451017D01*
X112352760Y-85539284D01*
X112170534Y-85713119D01*
X112020203Y-85915172D01*
X111906064Y-86139666D01*
X111831382Y-86380181D01*
X111798292Y-86629841D01*
X111807740Y-86881508D01*
X111859456Y-87127983D01*
X111951961Y-87362222D01*
X112082610Y-87577526D01*
X112247669Y-87767739D01*
X112442416Y-87927422D01*
X112483867Y-87951017D01*
X112352760Y-88039284D01*
X112222722Y-88163335D01*
X103433386Y-79374000D01*
X110411873Y-79374000D01*
X110370198Y-79426675D01*
X110261652Y-79635633D01*
X110194579Y-79861348D01*
X110171397Y-80095673D01*
X110192943Y-80330154D01*
X110258439Y-80556331D01*
X110365522Y-80766042D01*
X110510330Y-80951721D01*
X110687636Y-81106668D01*
X110891042Y-81225291D01*
X111113211Y-81303311D01*
X111346124Y-81337913D01*
X111581378Y-81327847D01*
X111796776Y-81276730D01*
X111796776Y-82310975D01*
X111873691Y-82664549D01*
X112013618Y-82882279D01*
X112205730Y-83048745D01*
X112298453Y-83091090D01*
X112170534Y-83213119D01*
X112020203Y-83415172D01*
X111906064Y-83639666D01*
X111831382Y-83880181D01*
X111805957Y-84072000D01*
X115025487Y-84072000D01*
X114962544Y-83772017D01*
X114870039Y-83537778D01*
X114739390Y-83322474D01*
X114574331Y-83132261D01*
X114528270Y-83094494D01*
X114718279Y-82972382D01*
X114884745Y-82780270D01*
X114990343Y-82549041D01*
X115025224Y-82306441D01*
X115025224Y-81089025D01*
X114948309Y-80735451D01*
X114808382Y-80517721D01*
X114616270Y-80351255D01*
X114385041Y-80245657D01*
X114142441Y-80210776D01*
X112675025Y-80210776D01*
X112644325Y-80217454D01*
X112645141Y-79983506D01*
X112600786Y-79752082D01*
X112513530Y-79533376D01*
X112411409Y-79374000D01*
X118101462Y-79374000D01*
X118196927Y-79374583D01*
X118242672Y-79361509D01*
X118289768Y-79354764D01*
X118329533Y-79336684D01*
X118371540Y-79324677D01*
X118411771Y-79299294D01*
X118455089Y-79279598D01*
X118488184Y-79251080D01*
X118525126Y-79227773D01*
X118556621Y-79192111D01*
X118592664Y-79161054D01*
X118616422Y-79124399D01*
X118645342Y-79091654D01*
X118665564Y-79048584D01*
X118691439Y-79008662D01*
X118703953Y-78966817D01*
X118722689Y-78926912D01*
X118729483Y-78881454D01*
X118743473Y-78834673D01*
X118743772Y-78785832D01*
X118744000Y-78784306D01*
X118744000Y-78748539D01*
X118744583Y-78653073D01*
X118744000Y-78651033D01*
X118744000Y-76068800D01*
X122249863Y-76068800D01*
X122249863Y-77157388D01*
X122330495Y-77458312D01*
X122477885Y-77633965D01*
X122671514Y-77745756D01*
X122880676Y-77782637D01*
X123963700Y-77782637D01*
X123963700Y-76068800D01*
X124219700Y-76068800D01*
X124219700Y-77782637D01*
X125308288Y-77782637D01*
X125609212Y-77702005D01*
X125784865Y-77554615D01*
X125896656Y-77360986D01*
X125933537Y-77151824D01*
X125933537Y-76068800D01*
X124219700Y-76068800D01*
X123963700Y-76068800D01*
X122249863Y-76068800D01*
X118744000Y-76068800D01*
X118744000Y-74729776D01*
X122249863Y-74729776D01*
X122249863Y-75812800D01*
X125933537Y-75812800D01*
X125933537Y-74724212D01*
X125852905Y-74423289D01*
X125705515Y-74247635D01*
X125511886Y-74135844D01*
X125302724Y-74098963D01*
X124875658Y-74098963D01*
X125014174Y-74032151D01*
X125244269Y-73874306D01*
X125447840Y-73683474D01*
X125620204Y-73464045D01*
X125757394Y-73221069D01*
X125856253Y-72960136D01*
X125914886Y-72685466D01*
X125926187Y-72304690D01*
X125883946Y-72027027D01*
X125800737Y-71760691D01*
X125678199Y-71510007D01*
X125519152Y-71280741D01*
X125327256Y-71078171D01*
X125106927Y-70906959D01*
X124863236Y-70771044D01*
X124601790Y-70673552D01*
X124328605Y-70616730D01*
X124049969Y-70601883D01*
X123772293Y-70629355D01*
X123501968Y-70698511D01*
X123245213Y-70807761D01*
X123007938Y-70954591D01*
X122795603Y-71135623D01*
X122613093Y-71346689D01*
X122464611Y-71582934D01*
X122353571Y-71838918D01*
X122282528Y-72108755D01*
X122253120Y-72386232D01*
X122266021Y-72664965D01*
X122320934Y-72938540D01*
X122416597Y-73200661D01*
X122550809Y-73445295D01*
X122720479Y-73666813D01*
X122921703Y-73860118D01*
X123149853Y-74020763D01*
X123307042Y-74098963D01*
X122875112Y-74098963D01*
X122574189Y-74179595D01*
X122398535Y-74326985D01*
X122286744Y-74520614D01*
X122249863Y-74729776D01*
X118744000Y-74729776D01*
X118744000Y-70484000D01*
X127547100Y-70484000D01*
X127547101Y-78179323D01*
G36*
X103969964Y-119013351D02*
G01*
X104125860Y-119169247D01*
X104179749Y-119196706D01*
X104228677Y-119232254D01*
X104286191Y-119250940D01*
X104340082Y-119278400D01*
X104399824Y-119287862D01*
X104457337Y-119306549D01*
X104517300Y-119306549D01*
X104517306Y-119306550D01*
X113519687Y-119306550D01*
X113591610Y-119425076D01*
X113756669Y-119615289D01*
X113951416Y-119774972D01*
X113992867Y-119798567D01*
X113861760Y-119886834D01*
X113679534Y-120060669D01*
X113529203Y-120262722D01*
X113415064Y-120487216D01*
X113340382Y-120727731D01*
X113307292Y-120977391D01*
X113316740Y-121229058D01*
X113368456Y-121475533D01*
X113460961Y-121709772D01*
X113591610Y-121925076D01*
X113756669Y-122115289D01*
X113951416Y-122274972D01*
X113992867Y-122298567D01*
X113861760Y-122386834D01*
X113679534Y-122560669D01*
X113529203Y-122762722D01*
X113415064Y-122987216D01*
X113340382Y-123227731D01*
X113314957Y-123419550D01*
X115048000Y-123419550D01*
X115048000Y-125036657D01*
X115295942Y-125015619D01*
X115539708Y-124952350D01*
X115769329Y-124848913D01*
X115911020Y-124753521D01*
X115911020Y-129232591D01*
X115910267Y-129376315D01*
X115927040Y-129446177D01*
X115935671Y-129517501D01*
X115958959Y-129579131D01*
X115971286Y-129630475D01*
X115780186Y-129520144D01*
X115571024Y-129483263D01*
X113843412Y-129483263D01*
X113542489Y-129563895D01*
X113366835Y-129711285D01*
X113255044Y-129904914D01*
X113218163Y-130114076D01*
X113218163Y-131841688D01*
X113298795Y-132142612D01*
X113446185Y-132318265D01*
X113639814Y-132430056D01*
X113688446Y-132438631D01*
X113594534Y-132528219D01*
X113594487Y-132528282D01*
X107150268Y-126084063D01*
X107313862Y-126083920D01*
X107634505Y-126042560D01*
X107947293Y-125960794D01*
X108247157Y-125839945D01*
X108529236Y-125681974D01*
X108788955Y-125489441D01*
X109022105Y-125265467D01*
X109224906Y-125013684D01*
X109394069Y-124738174D01*
X109526854Y-124443401D01*
X109621109Y-124134145D01*
X109675516Y-123814168D01*
X109678419Y-123675550D01*
X113305513Y-123675550D01*
X113368456Y-123975533D01*
X113460961Y-124209772D01*
X113591610Y-124425076D01*
X113756669Y-124615289D01*
X113951416Y-124774972D01*
X114170284Y-124899559D01*
X114409831Y-124986510D01*
X114792000Y-125037163D01*
X114792000Y-123675550D01*
X113305513Y-123675550D01*
X109678419Y-123675550D01*
X109684363Y-123391822D01*
X109643402Y-123069847D01*
X109562182Y-122756915D01*
X109441856Y-122456840D01*
X109284378Y-122174487D01*
X109092298Y-121914433D01*
X108868733Y-121680892D01*
X108617304Y-121477653D01*
X108342089Y-121308007D01*
X108047548Y-121174708D01*
X107738458Y-121079915D01*
X107419828Y-121025164D01*
X107096823Y-121011344D01*
X106774680Y-121038678D01*
X106458622Y-121106723D01*
X106153772Y-121214377D01*
X105865072Y-121359894D01*
X105597203Y-121540915D01*
X105354505Y-121754505D01*
X105140915Y-121997203D01*
X104959894Y-122265072D01*
X104814377Y-122553772D01*
X104706723Y-122858622D01*
X104638678Y-123174680D01*
X104611344Y-123496823D01*
X104613504Y-123547299D01*
X101505012Y-120438807D01*
X101500850Y-120412532D01*
X101391698Y-120198310D01*
X101221690Y-120028302D01*
X101007467Y-119919150D01*
X100839526Y-119892551D01*
X100770000Y-119881539D01*
X100710266Y-119891000D01*
X74935313Y-119891000D01*
X74863390Y-119772474D01*
X74775907Y-119671659D01*
X74858873Y-119644702D01*
X75053382Y-119503382D01*
X75194702Y-119308873D01*
X75268998Y-119080212D01*
X75268998Y-118839785D01*
X75194702Y-118611124D01*
X75099156Y-118479617D01*
X75114618Y-118429819D01*
X75147708Y-118180159D01*
X75144624Y-118098000D01*
X78855776Y-118098000D01*
X78855776Y-118330976D01*
X78932691Y-118684549D01*
X79072618Y-118902279D01*
X79264730Y-119068745D01*
X79495958Y-119174343D01*
X79738558Y-119209224D01*
X80242000Y-119209224D01*
X80242000Y-118098000D01*
X80498000Y-118098000D01*
X80498000Y-119209224D01*
X81005976Y-119209224D01*
X81359549Y-119132309D01*
X81577279Y-118992382D01*
X81743745Y-118800270D01*
X81849343Y-118569042D01*
X81884224Y-118326442D01*
X81884224Y-118098000D01*
X80498000Y-118098000D01*
X80242000Y-118098000D01*
X78855776Y-118098000D01*
X75144624Y-118098000D01*
X75138260Y-117928492D01*
X75086544Y-117682017D01*
X74994039Y-117447778D01*
X74863390Y-117232474D01*
X74698331Y-117042261D01*
X74503584Y-116882578D01*
X74429939Y-116840657D01*
X74593240Y-116730716D01*
X74775466Y-116556881D01*
X74925797Y-116354828D01*
X75039936Y-116130334D01*
X75114618Y-115889819D01*
X75147708Y-115640159D01*
X75138260Y-115388492D01*
X75086544Y-115142017D01*
X74994039Y-114907778D01*
X74863390Y-114692474D01*
X74698331Y-114502261D01*
X74503584Y-114342578D01*
X74429939Y-114300657D01*
X74593240Y-114190716D01*
X74775466Y-114016881D01*
X74925797Y-113814828D01*
X75039936Y-113590334D01*
X75114618Y-113349819D01*
X75147708Y-113100159D01*
X75138260Y-112848492D01*
X75086544Y-112602017D01*
X74994039Y-112367778D01*
X74863390Y-112152474D01*
X74698331Y-111962261D01*
X74503584Y-111802578D01*
X74429939Y-111760657D01*
X74593240Y-111650716D01*
X74775466Y-111476881D01*
X74925797Y-111274828D01*
X75039936Y-111050334D01*
X75114618Y-110809819D01*
X75147708Y-110560159D01*
X75138260Y-110308492D01*
X75086544Y-110062017D01*
X74994039Y-109827778D01*
X74863390Y-109612474D01*
X74698331Y-109422261D01*
X74674025Y-109402331D01*
X74827512Y-109361205D01*
X75003165Y-109213815D01*
X75114956Y-109020186D01*
X75151837Y-108811024D01*
X75151837Y-108230221D01*
X78410990Y-111489375D01*
X78410991Y-113794733D01*
X78410991Y-114015203D01*
X78429680Y-114072722D01*
X78439141Y-114132457D01*
X78466598Y-114186345D01*
X78485287Y-114243865D01*
X78520839Y-114292796D01*
X78548293Y-114346680D01*
X78622953Y-114421339D01*
X78622955Y-114421343D01*
X78793310Y-114591697D01*
X78847199Y-114619156D01*
X78896127Y-114654704D01*
X78953641Y-114673390D01*
X79007532Y-114700850D01*
X79067274Y-114710312D01*
X79119153Y-114727168D01*
X79156620Y-114779988D01*
X79326715Y-114942818D01*
X79369675Y-114970557D01*
X79240140Y-115072308D01*
X79085814Y-115250154D01*
X78967901Y-115453973D01*
X78890657Y-115676413D01*
X78856869Y-115909445D01*
X78867756Y-116144663D01*
X78922925Y-116373578D01*
X79020385Y-116587931D01*
X79156620Y-116779988D01*
X79263843Y-116882631D01*
X79162721Y-116947618D01*
X78996255Y-117139730D01*
X78890657Y-117370958D01*
X78855776Y-117613558D01*
X78855776Y-117842000D01*
X81884224Y-117842000D01*
X81884224Y-117609024D01*
X81807309Y-117255451D01*
X81667382Y-117037721D01*
X81484805Y-116879517D01*
X81499860Y-116867692D01*
X81654186Y-116689846D01*
X81772099Y-116486027D01*
X81774886Y-116478000D01*
X89458163Y-116478000D01*
X89458163Y-117216588D01*
X89538795Y-117517512D01*
X89686185Y-117693165D01*
X89879814Y-117804956D01*
X90088976Y-117841837D01*
X90822000Y-117841837D01*
X90822000Y-116478000D01*
X91078000Y-116478000D01*
X91078000Y-117841837D01*
X91816588Y-117841837D01*
X92117512Y-117761205D01*
X92293165Y-117613815D01*
X92404956Y-117420186D01*
X92441837Y-117211024D01*
X92441837Y-116478000D01*
X91078000Y-116478000D01*
X90822000Y-116478000D01*
X89458163Y-116478000D01*
X81774886Y-116478000D01*
X81849343Y-116263587D01*
X81883131Y-116030555D01*
X81872244Y-115795337D01*
X81817075Y-115566422D01*
X81719615Y-115352069D01*
X81583380Y-115160012D01*
X81413285Y-114997182D01*
X81370325Y-114969443D01*
X81499860Y-114867692D01*
X81654186Y-114689846D01*
X81772099Y-114486027D01*
X81849343Y-114263587D01*
X81883131Y-114030555D01*
X81872244Y-113795337D01*
X81817075Y-113566422D01*
X81719615Y-113352069D01*
X81583380Y-113160012D01*
X81413285Y-112997182D01*
X81370325Y-112969443D01*
X81499860Y-112867692D01*
X81654186Y-112689846D01*
X81772099Y-112486027D01*
X81849343Y-112263587D01*
X81883131Y-112030555D01*
X81872244Y-111795337D01*
X81817075Y-111566422D01*
X81719615Y-111352069D01*
X81583380Y-111160012D01*
X81413285Y-110997182D01*
X81215469Y-110869454D01*
X81129000Y-110834606D01*
X81129000Y-106387388D01*
X89726982Y-114985371D01*
X89606835Y-115086185D01*
X89495044Y-115279814D01*
X89458163Y-115488976D01*
X89458163Y-116222000D01*
X92441837Y-116222000D01*
X92441837Y-115933999D01*
X97330613Y-115933999D01*
X99186000Y-117789387D01*
X99186000Y-117886128D01*
X99256466Y-118149109D01*
X99392594Y-118384891D01*
X99585109Y-118577406D01*
X99820891Y-118713534D01*
X100083872Y-118784000D01*
X100356128Y-118784000D01*
X100619109Y-118713534D01*
X100854891Y-118577406D01*
X101047406Y-118384891D01*
X101183534Y-118149109D01*
X101254000Y-117886128D01*
X101254000Y-117613872D01*
X101183534Y-117350891D01*
X101047406Y-117115109D01*
X100854891Y-116922594D01*
X100619109Y-116786466D01*
X100356128Y-116716000D01*
X100259387Y-116716000D01*
X98267046Y-114723660D01*
X98267044Y-114723656D01*
X98096689Y-114553302D01*
X98042800Y-114525843D01*
X97993872Y-114490295D01*
X97936358Y-114471609D01*
X97882467Y-114444149D01*
X97822725Y-114434687D01*
X97765212Y-114416000D01*
X97705249Y-114416000D01*
X97705243Y-114415999D01*
X91304385Y-114415999D01*
X91232423Y-114344037D01*
X91823988Y-114344037D01*
X92124912Y-114263405D01*
X92300565Y-114116015D01*
X92412356Y-113922386D01*
X92449237Y-113713224D01*
X92449237Y-111985612D01*
X92368605Y-111684689D01*
X92221215Y-111509035D01*
X92027586Y-111397244D01*
X91818424Y-111360363D01*
X90090812Y-111360363D01*
X89789889Y-111440995D01*
X89614235Y-111588385D01*
X89502444Y-111782014D01*
X89465563Y-111991176D01*
X89465563Y-112577177D01*
X85374361Y-108485976D01*
X89465563Y-108485976D01*
X89465563Y-110213588D01*
X89546195Y-110514512D01*
X89693585Y-110690165D01*
X89887214Y-110801956D01*
X90096376Y-110838837D01*
X91823988Y-110838837D01*
X92124912Y-110758205D01*
X92300565Y-110610815D01*
X92412356Y-110417186D01*
X92449237Y-110208024D01*
X92449237Y-108480412D01*
X92368605Y-108179489D01*
X92221215Y-108003835D01*
X92027586Y-107892044D01*
X91818424Y-107855163D01*
X90090812Y-107855163D01*
X89789889Y-107935795D01*
X89614235Y-108083185D01*
X89502444Y-108276814D01*
X89465563Y-108485976D01*
X85374361Y-108485976D01*
X81579010Y-104690626D01*
X81579010Y-97269766D01*
X81579009Y-97269760D01*
X81579009Y-97209796D01*
X81560322Y-97152285D01*
X81550860Y-97092542D01*
X81523401Y-97038652D01*
X81504713Y-96981135D01*
X81469164Y-96932206D01*
X81441708Y-96878320D01*
X81285811Y-96722424D01*
X75100067Y-90536681D01*
X75114618Y-90489819D01*
X75147708Y-90240159D01*
X75145794Y-90189180D01*
X103969964Y-119013351D01*
X103969964Y-119013351D01*
G37*
X103969964Y-119013351D02*
X104125860Y-119169247D01*
X104179749Y-119196706D01*
X104228677Y-119232254D01*
X104286191Y-119250940D01*
X104340082Y-119278400D01*
X104399824Y-119287862D01*
X104457337Y-119306549D01*
X104517300Y-119306549D01*
X104517306Y-119306550D01*
X113519687Y-119306550D01*
X113591610Y-119425076D01*
X113756669Y-119615289D01*
X113951416Y-119774972D01*
X113992867Y-119798567D01*
X113861760Y-119886834D01*
X113679534Y-120060669D01*
X113529203Y-120262722D01*
X113415064Y-120487216D01*
X113340382Y-120727731D01*
X113307292Y-120977391D01*
X113316740Y-121229058D01*
X113368456Y-121475533D01*
X113460961Y-121709772D01*
X113591610Y-121925076D01*
X113756669Y-122115289D01*
X113951416Y-122274972D01*
X113992867Y-122298567D01*
X113861760Y-122386834D01*
X113679534Y-122560669D01*
X113529203Y-122762722D01*
X113415064Y-122987216D01*
X113340382Y-123227731D01*
X113314957Y-123419550D01*
X115048000Y-123419550D01*
X115048000Y-125036657D01*
X115295942Y-125015619D01*
X115539708Y-124952350D01*
X115769329Y-124848913D01*
X115911020Y-124753521D01*
X115911020Y-129232591D01*
X115910267Y-129376315D01*
X115927040Y-129446177D01*
X115935671Y-129517501D01*
X115958959Y-129579131D01*
X115971286Y-129630475D01*
X115780186Y-129520144D01*
X115571024Y-129483263D01*
X113843412Y-129483263D01*
X113542489Y-129563895D01*
X113366835Y-129711285D01*
X113255044Y-129904914D01*
X113218163Y-130114076D01*
X113218163Y-131841688D01*
X113298795Y-132142612D01*
X113446185Y-132318265D01*
X113639814Y-132430056D01*
X113688446Y-132438631D01*
X113594534Y-132528219D01*
X113594487Y-132528282D01*
X107150268Y-126084063D01*
X107313862Y-126083920D01*
X107634505Y-126042560D01*
X107947293Y-125960794D01*
X108247157Y-125839945D01*
X108529236Y-125681974D01*
X108788955Y-125489441D01*
X109022105Y-125265467D01*
X109224906Y-125013684D01*
X109394069Y-124738174D01*
X109526854Y-124443401D01*
X109621109Y-124134145D01*
X109675516Y-123814168D01*
X109678419Y-123675550D01*
X113305513Y-123675550D01*
X113368456Y-123975533D01*
X113460961Y-124209772D01*
X113591610Y-124425076D01*
X113756669Y-124615289D01*
X113951416Y-124774972D01*
X114170284Y-124899559D01*
X114409831Y-124986510D01*
X114792000Y-125037163D01*
X114792000Y-123675550D01*
X113305513Y-123675550D01*
X109678419Y-123675550D01*
X109684363Y-123391822D01*
X109643402Y-123069847D01*
X109562182Y-122756915D01*
X109441856Y-122456840D01*
X109284378Y-122174487D01*
X109092298Y-121914433D01*
X108868733Y-121680892D01*
X108617304Y-121477653D01*
X108342089Y-121308007D01*
X108047548Y-121174708D01*
X107738458Y-121079915D01*
X107419828Y-121025164D01*
X107096823Y-121011344D01*
X106774680Y-121038678D01*
X106458622Y-121106723D01*
X106153772Y-121214377D01*
X105865072Y-121359894D01*
X105597203Y-121540915D01*
X105354505Y-121754505D01*
X105140915Y-121997203D01*
X104959894Y-122265072D01*
X104814377Y-122553772D01*
X104706723Y-122858622D01*
X104638678Y-123174680D01*
X104611344Y-123496823D01*
X104613504Y-123547299D01*
X101505012Y-120438807D01*
X101500850Y-120412532D01*
X101391698Y-120198310D01*
X101221690Y-120028302D01*
X101007467Y-119919150D01*
X100839526Y-119892551D01*
X100770000Y-119881539D01*
X100710266Y-119891000D01*
X74935313Y-119891000D01*
X74863390Y-119772474D01*
X74775907Y-119671659D01*
X74858873Y-119644702D01*
X75053382Y-119503382D01*
X75194702Y-119308873D01*
X75268998Y-119080212D01*
X75268998Y-118839785D01*
X75194702Y-118611124D01*
X75099156Y-118479617D01*
X75114618Y-118429819D01*
X75147708Y-118180159D01*
X75144624Y-118098000D01*
X78855776Y-118098000D01*
X78855776Y-118330976D01*
X78932691Y-118684549D01*
X79072618Y-118902279D01*
X79264730Y-119068745D01*
X79495958Y-119174343D01*
X79738558Y-119209224D01*
X80242000Y-119209224D01*
X80242000Y-118098000D01*
X80498000Y-118098000D01*
X80498000Y-119209224D01*
X81005976Y-119209224D01*
X81359549Y-119132309D01*
X81577279Y-118992382D01*
X81743745Y-118800270D01*
X81849343Y-118569042D01*
X81884224Y-118326442D01*
X81884224Y-118098000D01*
X80498000Y-118098000D01*
X80242000Y-118098000D01*
X78855776Y-118098000D01*
X75144624Y-118098000D01*
X75138260Y-117928492D01*
X75086544Y-117682017D01*
X74994039Y-117447778D01*
X74863390Y-117232474D01*
X74698331Y-117042261D01*
X74503584Y-116882578D01*
X74429939Y-116840657D01*
X74593240Y-116730716D01*
X74775466Y-116556881D01*
X74925797Y-116354828D01*
X75039936Y-116130334D01*
X75114618Y-115889819D01*
X75147708Y-115640159D01*
X75138260Y-115388492D01*
X75086544Y-115142017D01*
X74994039Y-114907778D01*
X74863390Y-114692474D01*
X74698331Y-114502261D01*
X74503584Y-114342578D01*
X74429939Y-114300657D01*
X74593240Y-114190716D01*
X74775466Y-114016881D01*
X74925797Y-113814828D01*
X75039936Y-113590334D01*
X75114618Y-113349819D01*
X75147708Y-113100159D01*
X75138260Y-112848492D01*
X75086544Y-112602017D01*
X74994039Y-112367778D01*
X74863390Y-112152474D01*
X74698331Y-111962261D01*
X74503584Y-111802578D01*
X74429939Y-111760657D01*
X74593240Y-111650716D01*
X74775466Y-111476881D01*
X74925797Y-111274828D01*
X75039936Y-111050334D01*
X75114618Y-110809819D01*
X75147708Y-110560159D01*
X75138260Y-110308492D01*
X75086544Y-110062017D01*
X74994039Y-109827778D01*
X74863390Y-109612474D01*
X74698331Y-109422261D01*
X74674025Y-109402331D01*
X74827512Y-109361205D01*
X75003165Y-109213815D01*
X75114956Y-109020186D01*
X75151837Y-108811024D01*
X75151837Y-108230221D01*
X78410990Y-111489375D01*
X78410991Y-113794733D01*
X78410991Y-114015203D01*
X78429680Y-114072722D01*
X78439141Y-114132457D01*
X78466598Y-114186345D01*
X78485287Y-114243865D01*
X78520839Y-114292796D01*
X78548293Y-114346680D01*
X78622953Y-114421339D01*
X78622955Y-114421343D01*
X78793310Y-114591697D01*
X78847199Y-114619156D01*
X78896127Y-114654704D01*
X78953641Y-114673390D01*
X79007532Y-114700850D01*
X79067274Y-114710312D01*
X79119153Y-114727168D01*
X79156620Y-114779988D01*
X79326715Y-114942818D01*
X79369675Y-114970557D01*
X79240140Y-115072308D01*
X79085814Y-115250154D01*
X78967901Y-115453973D01*
X78890657Y-115676413D01*
X78856869Y-115909445D01*
X78867756Y-116144663D01*
X78922925Y-116373578D01*
X79020385Y-116587931D01*
X79156620Y-116779988D01*
X79263843Y-116882631D01*
X79162721Y-116947618D01*
X78996255Y-117139730D01*
X78890657Y-117370958D01*
X78855776Y-117613558D01*
X78855776Y-117842000D01*
X81884224Y-117842000D01*
X81884224Y-117609024D01*
X81807309Y-117255451D01*
X81667382Y-117037721D01*
X81484805Y-116879517D01*
X81499860Y-116867692D01*
X81654186Y-116689846D01*
X81772099Y-116486027D01*
X81774886Y-116478000D01*
X89458163Y-116478000D01*
X89458163Y-117216588D01*
X89538795Y-117517512D01*
X89686185Y-117693165D01*
X89879814Y-117804956D01*
X90088976Y-117841837D01*
X90822000Y-117841837D01*
X90822000Y-116478000D01*
X91078000Y-116478000D01*
X91078000Y-117841837D01*
X91816588Y-117841837D01*
X92117512Y-117761205D01*
X92293165Y-117613815D01*
X92404956Y-117420186D01*
X92441837Y-117211024D01*
X92441837Y-116478000D01*
X91078000Y-116478000D01*
X90822000Y-116478000D01*
X89458163Y-116478000D01*
X81774886Y-116478000D01*
X81849343Y-116263587D01*
X81883131Y-116030555D01*
X81872244Y-115795337D01*
X81817075Y-115566422D01*
X81719615Y-115352069D01*
X81583380Y-115160012D01*
X81413285Y-114997182D01*
X81370325Y-114969443D01*
X81499860Y-114867692D01*
X81654186Y-114689846D01*
X81772099Y-114486027D01*
X81849343Y-114263587D01*
X81883131Y-114030555D01*
X81872244Y-113795337D01*
X81817075Y-113566422D01*
X81719615Y-113352069D01*
X81583380Y-113160012D01*
X81413285Y-112997182D01*
X81370325Y-112969443D01*
X81499860Y-112867692D01*
X81654186Y-112689846D01*
X81772099Y-112486027D01*
X81849343Y-112263587D01*
X81883131Y-112030555D01*
X81872244Y-111795337D01*
X81817075Y-111566422D01*
X81719615Y-111352069D01*
X81583380Y-111160012D01*
X81413285Y-110997182D01*
X81215469Y-110869454D01*
X81129000Y-110834606D01*
X81129000Y-106387388D01*
X89726982Y-114985371D01*
X89606835Y-115086185D01*
X89495044Y-115279814D01*
X89458163Y-115488976D01*
X89458163Y-116222000D01*
X92441837Y-116222000D01*
X92441837Y-115933999D01*
X97330613Y-115933999D01*
X99186000Y-117789387D01*
X99186000Y-117886128D01*
X99256466Y-118149109D01*
X99392594Y-118384891D01*
X99585109Y-118577406D01*
X99820891Y-118713534D01*
X100083872Y-118784000D01*
X100356128Y-118784000D01*
X100619109Y-118713534D01*
X100854891Y-118577406D01*
X101047406Y-118384891D01*
X101183534Y-118149109D01*
X101254000Y-117886128D01*
X101254000Y-117613872D01*
X101183534Y-117350891D01*
X101047406Y-117115109D01*
X100854891Y-116922594D01*
X100619109Y-116786466D01*
X100356128Y-116716000D01*
X100259387Y-116716000D01*
X98267046Y-114723660D01*
X98267044Y-114723656D01*
X98096689Y-114553302D01*
X98042800Y-114525843D01*
X97993872Y-114490295D01*
X97936358Y-114471609D01*
X97882467Y-114444149D01*
X97822725Y-114434687D01*
X97765212Y-114416000D01*
X97705249Y-114416000D01*
X97705243Y-114415999D01*
X91304385Y-114415999D01*
X91232423Y-114344037D01*
X91823988Y-114344037D01*
X92124912Y-114263405D01*
X92300565Y-114116015D01*
X92412356Y-113922386D01*
X92449237Y-113713224D01*
X92449237Y-111985612D01*
X92368605Y-111684689D01*
X92221215Y-111509035D01*
X92027586Y-111397244D01*
X91818424Y-111360363D01*
X90090812Y-111360363D01*
X89789889Y-111440995D01*
X89614235Y-111588385D01*
X89502444Y-111782014D01*
X89465563Y-111991176D01*
X89465563Y-112577177D01*
X85374361Y-108485976D01*
X89465563Y-108485976D01*
X89465563Y-110213588D01*
X89546195Y-110514512D01*
X89693585Y-110690165D01*
X89887214Y-110801956D01*
X90096376Y-110838837D01*
X91823988Y-110838837D01*
X92124912Y-110758205D01*
X92300565Y-110610815D01*
X92412356Y-110417186D01*
X92449237Y-110208024D01*
X92449237Y-108480412D01*
X92368605Y-108179489D01*
X92221215Y-108003835D01*
X92027586Y-107892044D01*
X91818424Y-107855163D01*
X90090812Y-107855163D01*
X89789889Y-107935795D01*
X89614235Y-108083185D01*
X89502444Y-108276814D01*
X89465563Y-108485976D01*
X85374361Y-108485976D01*
X81579010Y-104690626D01*
X81579010Y-97269766D01*
X81579009Y-97269760D01*
X81579009Y-97209796D01*
X81560322Y-97152285D01*
X81550860Y-97092542D01*
X81523401Y-97038652D01*
X81504713Y-96981135D01*
X81469164Y-96932206D01*
X81441708Y-96878320D01*
X81285811Y-96722424D01*
X75100067Y-90536681D01*
X75114618Y-90489819D01*
X75147708Y-90240159D01*
X75145794Y-90189180D01*
X103969964Y-119013351D01*
G36*
X102602641Y-80690027D02*
G01*
X102507181Y-80744807D01*
X102328798Y-80898512D01*
X102182698Y-81083175D01*
X102074152Y-81292133D01*
X102007079Y-81517848D01*
X101983897Y-81752173D01*
X102005443Y-81986654D01*
X102050508Y-82142276D01*
X101012525Y-82142276D01*
X100658951Y-82219191D01*
X100441221Y-82359118D01*
X100274755Y-82551230D01*
X100232410Y-82643953D01*
X100110381Y-82516034D01*
X99908328Y-82365703D01*
X99683834Y-82251564D01*
X99443319Y-82176882D01*
X99251500Y-82151457D01*
X99251500Y-85370987D01*
X99551483Y-85308044D01*
X99785721Y-85215539D01*
X100001025Y-85084890D01*
X100191239Y-84919832D01*
X100229007Y-84873771D01*
X100351118Y-85063779D01*
X100543230Y-85230245D01*
X100774459Y-85335843D01*
X101017059Y-85370724D01*
X102234475Y-85370724D01*
X102588049Y-85293809D01*
X102805779Y-85153882D01*
X102972245Y-84961770D01*
X103077843Y-84730541D01*
X103112724Y-84487941D01*
X103112724Y-83020525D01*
X103105321Y-82986494D01*
X103158624Y-82994413D01*
X103393878Y-82984347D01*
X103622984Y-82929977D01*
X103837676Y-82833266D01*
X104030207Y-82697702D01*
X104193629Y-82528176D01*
X104291054Y-82378441D01*
X111734310Y-89821698D01*
X111788196Y-89849154D01*
X111837125Y-89884703D01*
X111894642Y-89903391D01*
X111948532Y-89930850D01*
X111998398Y-89938748D01*
X112082610Y-90077526D01*
X112247669Y-90267739D01*
X112442416Y-90427422D01*
X112597850Y-90515900D01*
X95625086Y-90515900D01*
X95567565Y-90534590D01*
X95507833Y-90544050D01*
X95453942Y-90571508D01*
X95396425Y-90590197D01*
X95347495Y-90625747D01*
X95293610Y-90653202D01*
X95250169Y-90696643D01*
X95250162Y-90696649D01*
X94745112Y-91201700D01*
X85168812Y-91201700D01*
X85187328Y-91156215D01*
X85233298Y-90925108D01*
X85234141Y-90683506D01*
X85189786Y-90452082D01*
X85102530Y-90233376D01*
X84975493Y-90035115D01*
X84813258Y-89864454D01*
X84621678Y-89727549D01*
X84407666Y-89629340D01*
X84178945Y-89573373D01*
X83943767Y-89561665D01*
X83710618Y-89594639D01*
X83614224Y-89627737D01*
X83614224Y-88589025D01*
X83537309Y-88235451D01*
X83397382Y-88017721D01*
X83205270Y-87851255D01*
X83112547Y-87808910D01*
X83240466Y-87686881D01*
X83390797Y-87484828D01*
X83504936Y-87260334D01*
X83579618Y-87019819D01*
X83605043Y-86828000D01*
X81872000Y-86828000D01*
X81872000Y-86572000D01*
X83614487Y-86572000D01*
X83551544Y-86272017D01*
X83459039Y-86037778D01*
X83328390Y-85822474D01*
X83163331Y-85632261D01*
X82968584Y-85472578D01*
X82927133Y-85448983D01*
X83058240Y-85360716D01*
X83240466Y-85186881D01*
X83390797Y-84984828D01*
X83504936Y-84760334D01*
X83579618Y-84519819D01*
X83612708Y-84270159D01*
X83603260Y-84018492D01*
X83551544Y-83772017D01*
X83478142Y-83586148D01*
X92639500Y-83586148D01*
X92639500Y-83944689D01*
X92655431Y-84132441D01*
X92718700Y-84376207D01*
X92822137Y-84605828D01*
X92962783Y-84814739D01*
X93136619Y-84996965D01*
X93338672Y-85147297D01*
X93563166Y-85261436D01*
X93803681Y-85336118D01*
X94053341Y-85369208D01*
X94305007Y-85359760D01*
X94551482Y-85308044D01*
X94785721Y-85215539D01*
X95001025Y-85084890D01*
X95191239Y-84919832D01*
X95350922Y-84725084D01*
X95374518Y-84683632D01*
X95462783Y-84814739D01*
X95636619Y-84996965D01*
X95838672Y-85147297D01*
X96063166Y-85261436D01*
X96303681Y-85336118D01*
X96553341Y-85369208D01*
X96805007Y-85359760D01*
X97051482Y-85308044D01*
X97285721Y-85215539D01*
X97501025Y-85084890D01*
X97691239Y-84919832D01*
X97850922Y-84725084D01*
X97874518Y-84683632D01*
X97962783Y-84814739D01*
X98136619Y-84996965D01*
X98338672Y-85147297D01*
X98563166Y-85261436D01*
X98803681Y-85336118D01*
X98995500Y-85361543D01*
X98995500Y-82142013D01*
X98695517Y-82204956D01*
X98461279Y-82297461D01*
X98245975Y-82428110D01*
X98055762Y-82593168D01*
X97896078Y-82787916D01*
X97872483Y-82829367D01*
X97784217Y-82698260D01*
X97610381Y-82516034D01*
X97408328Y-82365703D01*
X97183834Y-82251564D01*
X96943319Y-82176882D01*
X96693659Y-82143792D01*
X96441993Y-82153240D01*
X96195518Y-82204956D01*
X95961279Y-82297461D01*
X95745975Y-82428110D01*
X95555762Y-82593168D01*
X95396078Y-82787916D01*
X95372483Y-82829367D01*
X95284217Y-82698260D01*
X95110381Y-82516034D01*
X94908328Y-82365703D01*
X94683834Y-82251564D01*
X94443319Y-82176882D01*
X94193659Y-82143792D01*
X93941993Y-82153240D01*
X93695518Y-82204956D01*
X93461279Y-82297461D01*
X93245975Y-82428110D01*
X93055762Y-82593168D01*
X92896078Y-82787916D01*
X92771491Y-83006784D01*
X92684540Y-83246331D01*
X92639500Y-83586148D01*
X83478142Y-83586148D01*
X83459039Y-83537778D01*
X83328390Y-83322474D01*
X83163331Y-83132261D01*
X82968584Y-82972578D01*
X82927133Y-82948983D01*
X83058240Y-82860716D01*
X83240466Y-82686881D01*
X83390797Y-82484828D01*
X83504936Y-82260334D01*
X83579618Y-82019819D01*
X83612708Y-81770159D01*
X83603260Y-81518492D01*
X83551544Y-81272017D01*
X83459039Y-81037778D01*
X83328390Y-80822474D01*
X83163331Y-80632261D01*
X82968584Y-80472578D01*
X82909596Y-80439000D01*
X102351614Y-80439000D01*
X102602641Y-80690027D01*
X102602641Y-80690027D01*
G37*
X102602641Y-80690027D02*
X102507181Y-80744807D01*
X102328798Y-80898512D01*
X102182698Y-81083175D01*
X102074152Y-81292133D01*
X102007079Y-81517848D01*
X101983897Y-81752173D01*
X102005443Y-81986654D01*
X102050508Y-82142276D01*
X101012525Y-82142276D01*
X100658951Y-82219191D01*
X100441221Y-82359118D01*
X100274755Y-82551230D01*
X100232410Y-82643953D01*
X100110381Y-82516034D01*
X99908328Y-82365703D01*
X99683834Y-82251564D01*
X99443319Y-82176882D01*
X99251500Y-82151457D01*
X99251500Y-85370987D01*
X99551483Y-85308044D01*
X99785721Y-85215539D01*
X100001025Y-85084890D01*
X100191239Y-84919832D01*
X100229007Y-84873771D01*
X100351118Y-85063779D01*
X100543230Y-85230245D01*
X100774459Y-85335843D01*
X101017059Y-85370724D01*
X102234475Y-85370724D01*
X102588049Y-85293809D01*
X102805779Y-85153882D01*
X102972245Y-84961770D01*
X103077843Y-84730541D01*
X103112724Y-84487941D01*
X103112724Y-83020525D01*
X103105321Y-82986494D01*
X103158624Y-82994413D01*
X103393878Y-82984347D01*
X103622984Y-82929977D01*
X103837676Y-82833266D01*
X104030207Y-82697702D01*
X104193629Y-82528176D01*
X104291054Y-82378441D01*
X111734310Y-89821698D01*
X111788196Y-89849154D01*
X111837125Y-89884703D01*
X111894642Y-89903391D01*
X111948532Y-89930850D01*
X111998398Y-89938748D01*
X112082610Y-90077526D01*
X112247669Y-90267739D01*
X112442416Y-90427422D01*
X112597850Y-90515900D01*
X95625086Y-90515900D01*
X95567565Y-90534590D01*
X95507833Y-90544050D01*
X95453942Y-90571508D01*
X95396425Y-90590197D01*
X95347495Y-90625747D01*
X95293610Y-90653202D01*
X95250169Y-90696643D01*
X95250162Y-90696649D01*
X94745112Y-91201700D01*
X85168812Y-91201700D01*
X85187328Y-91156215D01*
X85233298Y-90925108D01*
X85234141Y-90683506D01*
X85189786Y-90452082D01*
X85102530Y-90233376D01*
X84975493Y-90035115D01*
X84813258Y-89864454D01*
X84621678Y-89727549D01*
X84407666Y-89629340D01*
X84178945Y-89573373D01*
X83943767Y-89561665D01*
X83710618Y-89594639D01*
X83614224Y-89627737D01*
X83614224Y-88589025D01*
X83537309Y-88235451D01*
X83397382Y-88017721D01*
X83205270Y-87851255D01*
X83112547Y-87808910D01*
X83240466Y-87686881D01*
X83390797Y-87484828D01*
X83504936Y-87260334D01*
X83579618Y-87019819D01*
X83605043Y-86828000D01*
X81872000Y-86828000D01*
X81872000Y-86572000D01*
X83614487Y-86572000D01*
X83551544Y-86272017D01*
X83459039Y-86037778D01*
X83328390Y-85822474D01*
X83163331Y-85632261D01*
X82968584Y-85472578D01*
X82927133Y-85448983D01*
X83058240Y-85360716D01*
X83240466Y-85186881D01*
X83390797Y-84984828D01*
X83504936Y-84760334D01*
X83579618Y-84519819D01*
X83612708Y-84270159D01*
X83603260Y-84018492D01*
X83551544Y-83772017D01*
X83478142Y-83586148D01*
X92639500Y-83586148D01*
X92639500Y-83944689D01*
X92655431Y-84132441D01*
X92718700Y-84376207D01*
X92822137Y-84605828D01*
X92962783Y-84814739D01*
X93136619Y-84996965D01*
X93338672Y-85147297D01*
X93563166Y-85261436D01*
X93803681Y-85336118D01*
X94053341Y-85369208D01*
X94305007Y-85359760D01*
X94551482Y-85308044D01*
X94785721Y-85215539D01*
X95001025Y-85084890D01*
X95191239Y-84919832D01*
X95350922Y-84725084D01*
X95374518Y-84683632D01*
X95462783Y-84814739D01*
X95636619Y-84996965D01*
X95838672Y-85147297D01*
X96063166Y-85261436D01*
X96303681Y-85336118D01*
X96553341Y-85369208D01*
X96805007Y-85359760D01*
X97051482Y-85308044D01*
X97285721Y-85215539D01*
X97501025Y-85084890D01*
X97691239Y-84919832D01*
X97850922Y-84725084D01*
X97874518Y-84683632D01*
X97962783Y-84814739D01*
X98136619Y-84996965D01*
X98338672Y-85147297D01*
X98563166Y-85261436D01*
X98803681Y-85336118D01*
X98995500Y-85361543D01*
X98995500Y-82142013D01*
X98695517Y-82204956D01*
X98461279Y-82297461D01*
X98245975Y-82428110D01*
X98055762Y-82593168D01*
X97896078Y-82787916D01*
X97872483Y-82829367D01*
X97784217Y-82698260D01*
X97610381Y-82516034D01*
X97408328Y-82365703D01*
X97183834Y-82251564D01*
X96943319Y-82176882D01*
X96693659Y-82143792D01*
X96441993Y-82153240D01*
X96195518Y-82204956D01*
X95961279Y-82297461D01*
X95745975Y-82428110D01*
X95555762Y-82593168D01*
X95396078Y-82787916D01*
X95372483Y-82829367D01*
X95284217Y-82698260D01*
X95110381Y-82516034D01*
X94908328Y-82365703D01*
X94683834Y-82251564D01*
X94443319Y-82176882D01*
X94193659Y-82143792D01*
X93941993Y-82153240D01*
X93695518Y-82204956D01*
X93461279Y-82297461D01*
X93245975Y-82428110D01*
X93055762Y-82593168D01*
X92896078Y-82787916D01*
X92771491Y-83006784D01*
X92684540Y-83246331D01*
X92639500Y-83586148D01*
X83478142Y-83586148D01*
X83459039Y-83537778D01*
X83328390Y-83322474D01*
X83163331Y-83132261D01*
X82968584Y-82972578D01*
X82927133Y-82948983D01*
X83058240Y-82860716D01*
X83240466Y-82686881D01*
X83390797Y-82484828D01*
X83504936Y-82260334D01*
X83579618Y-82019819D01*
X83612708Y-81770159D01*
X83603260Y-81518492D01*
X83551544Y-81272017D01*
X83459039Y-81037778D01*
X83328390Y-80822474D01*
X83163331Y-80632261D01*
X82968584Y-80472578D01*
X82909596Y-80439000D01*
X102351614Y-80439000D01*
X102602641Y-80690027D01*
M02*
